%TF.GenerationSoftware,KiCad,Pcbnew,9.0.3*%
%TF.CreationDate,2025-08-22T13:58:03+03:00*%
%TF.ProjectId,chestie,63686573-7469-4652-9e6b-696361645f70,rev?*%
%TF.SameCoordinates,Original*%
%TF.FileFunction,Copper,L1,Top*%
%TF.FilePolarity,Positive*%
%FSLAX46Y46*%
G04 Gerber Fmt 4.6, Leading zero omitted, Abs format (unit mm)*
G04 Created by KiCad (PCBNEW 9.0.3) date 2025-08-22 13:58:03*
%MOMM*%
%LPD*%
G01*
G04 APERTURE LIST*
G04 Aperture macros list*
%AMRoundRect*
0 Rectangle with rounded corners*
0 $1 Rounding radius*
0 $2 $3 $4 $5 $6 $7 $8 $9 X,Y pos of 4 corners*
0 Add a 4 corners polygon primitive as box body*
4,1,4,$2,$3,$4,$5,$6,$7,$8,$9,$2,$3,0*
0 Add four circle primitives for the rounded corners*
1,1,$1+$1,$2,$3*
1,1,$1+$1,$4,$5*
1,1,$1+$1,$6,$7*
1,1,$1+$1,$8,$9*
0 Add four rect primitives between the rounded corners*
20,1,$1+$1,$2,$3,$4,$5,0*
20,1,$1+$1,$4,$5,$6,$7,0*
20,1,$1+$1,$6,$7,$8,$9,0*
20,1,$1+$1,$8,$9,$2,$3,0*%
G04 Aperture macros list end*
%TA.AperFunction,ComponentPad*%
%ADD10RoundRect,0.250000X0.550000X0.550000X-0.550000X0.550000X-0.550000X-0.550000X0.550000X-0.550000X0*%
%TD*%
%TA.AperFunction,ComponentPad*%
%ADD11C,1.600000*%
%TD*%
%TA.AperFunction,ComponentPad*%
%ADD12R,1.800000X1.800000*%
%TD*%
%TA.AperFunction,ComponentPad*%
%ADD13C,1.800000*%
%TD*%
%TA.AperFunction,ComponentPad*%
%ADD14O,2.200000X3.500000*%
%TD*%
%TA.AperFunction,ComponentPad*%
%ADD15R,1.500000X2.500000*%
%TD*%
%TA.AperFunction,ComponentPad*%
%ADD16O,1.500000X2.500000*%
%TD*%
%TA.AperFunction,ComponentPad*%
%ADD17RoundRect,0.250000X-0.550000X-0.550000X0.550000X-0.550000X0.550000X0.550000X-0.550000X0.550000X0*%
%TD*%
%TA.AperFunction,ComponentPad*%
%ADD18RoundRect,0.249999X0.850001X-0.850001X0.850001X0.850001X-0.850001X0.850001X-0.850001X-0.850001X0*%
%TD*%
%TA.AperFunction,ComponentPad*%
%ADD19C,2.200000*%
%TD*%
%TA.AperFunction,ComponentPad*%
%ADD20R,1.050000X1.500000*%
%TD*%
%TA.AperFunction,ComponentPad*%
%ADD21O,1.050000X1.500000*%
%TD*%
%TA.AperFunction,ComponentPad*%
%ADD22RoundRect,0.250002X1.499998X-1.499998X1.499998X1.499998X-1.499998X1.499998X-1.499998X-1.499998X0*%
%TD*%
%TA.AperFunction,ComponentPad*%
%ADD23C,3.500000*%
%TD*%
%TA.AperFunction,ComponentPad*%
%ADD24RoundRect,0.250000X0.550000X-0.550000X0.550000X0.550000X-0.550000X0.550000X-0.550000X-0.550000X0*%
%TD*%
%TA.AperFunction,ViaPad*%
%ADD25C,0.600000*%
%TD*%
%TA.AperFunction,Conductor*%
%ADD26C,0.200000*%
%TD*%
G04 APERTURE END LIST*
D10*
%TO.P,C1,1*%
%TO.N,Net-(D1-K)*%
X97100000Y-66960000D03*
D11*
%TO.P,C1,2*%
%TO.N,GND*%
X94600000Y-66960000D03*
%TD*%
D12*
%TO.P,D5,1,K*%
%TO.N,Net-(D5-K)*%
X119640000Y-71800000D03*
D13*
%TO.P,D5,2,A*%
%TO.N,Net-(D5-A)*%
X117100000Y-71800000D03*
%TD*%
D14*
%TO.P,SW1,*%
%TO.N,*%
X68200000Y-40497500D03*
X76400000Y-40497500D03*
D15*
%TO.P,SW1,1,A*%
%TO.N,Net-(J1-Pin_2)*%
X70300000Y-40497500D03*
D16*
%TO.P,SW1,2,B*%
%TO.N,Net-(Q1-C)*%
X72300000Y-40497500D03*
%TO.P,SW1,3*%
%TO.N,N/C*%
X74300000Y-40497500D03*
%TD*%
D12*
%TO.P,D15,1,K*%
%TO.N,Net-(D15-K)*%
X114140000Y-94700000D03*
D13*
%TO.P,D15,2,A*%
%TO.N,Net-(D14-K)*%
X111600000Y-94700000D03*
%TD*%
D12*
%TO.P,D10,1,K*%
%TO.N,GND*%
X155540000Y-65000000D03*
D13*
%TO.P,D10,2,A*%
%TO.N,Net-(D10-A)*%
X153000000Y-65000000D03*
%TD*%
D17*
%TO.P,U1,1,GND*%
%TO.N,GND*%
X89480000Y-52960000D03*
D11*
%TO.P,U1,2,TR*%
%TO.N,Net-(D1-K)*%
X89480000Y-55500000D03*
%TO.P,U1,3,Q*%
%TO.N,Net-(U1-Q)*%
X89480000Y-58040000D03*
%TO.P,U1,4,R*%
%TO.N,Net-(Q1-C)*%
X89480000Y-60580000D03*
%TO.P,U1,5,CV*%
%TO.N,Net-(U1-CV)*%
X97100000Y-60580000D03*
%TO.P,U1,6,THR*%
%TO.N,Net-(D1-K)*%
X97100000Y-58040000D03*
%TO.P,U1,7,DIS*%
%TO.N,Net-(D1-A)*%
X97100000Y-55500000D03*
%TO.P,U1,8,VCC*%
%TO.N,Net-(Q1-C)*%
X97100000Y-52960000D03*
%TD*%
D18*
%TO.P,D1,1,K*%
%TO.N,Net-(D1-K)*%
X108200000Y-72540000D03*
D19*
%TO.P,D1,2,A*%
%TO.N,Net-(D1-A)*%
X108200000Y-62380000D03*
%TD*%
D11*
%TO.P,R6,1*%
%TO.N,Net-(Q1-E)*%
X66290000Y-95600000D03*
%TO.P,R6,2*%
%TO.N,Net-(D2-A)*%
X73910000Y-95600000D03*
%TD*%
%TO.P,R11,1*%
%TO.N,Net-(Q1-E)*%
X66390000Y-74300000D03*
%TO.P,R11,2*%
%TO.N,Net-(D17-A)*%
X74010000Y-74300000D03*
%TD*%
D12*
%TO.P,D16,1,K*%
%TO.N,GND*%
X118280000Y-87400000D03*
D13*
%TO.P,D16,2,A*%
%TO.N,Net-(D15-K)*%
X115740000Y-87400000D03*
%TD*%
D11*
%TO.P,R2,1*%
%TO.N,Net-(D1-A)*%
X103400000Y-62950000D03*
%TO.P,R2,2*%
%TO.N,Net-(D1-K)*%
X103400000Y-70570000D03*
%TD*%
%TO.P,R4,1*%
%TO.N,Net-(U2A--)*%
X66900000Y-60190000D03*
%TO.P,R4,2*%
%TO.N,Net-(Q1-B)*%
X66900000Y-67810000D03*
%TD*%
D12*
%TO.P,D3,1,K*%
%TO.N,Net-(D3-K)*%
X110140000Y-87000000D03*
D13*
%TO.P,D3,2,A*%
%TO.N,Net-(D2-K)*%
X107600000Y-87000000D03*
%TD*%
D11*
%TO.P,R3,1*%
%TO.N,Net-(U1-Q)*%
X84000000Y-60110000D03*
%TO.P,R3,2*%
%TO.N,Net-(U2A-+)*%
X84000000Y-52490000D03*
%TD*%
D12*
%TO.P,D14,1,K*%
%TO.N,Net-(D14-K)*%
X144265000Y-94700000D03*
D13*
%TO.P,D14,2,A*%
%TO.N,Net-(D14-A)*%
X141725000Y-94700000D03*
%TD*%
D20*
%TO.P,Q1,1,C*%
%TO.N,Net-(Q1-C)*%
X74230000Y-67300000D03*
D21*
%TO.P,Q1,2,B*%
%TO.N,Net-(Q1-B)*%
X75500000Y-67300000D03*
%TO.P,Q1,3,E*%
%TO.N,Net-(Q1-E)*%
X76770000Y-67300000D03*
%TD*%
D11*
%TO.P,C2,1*%
%TO.N,Net-(U1-CV)*%
X89700000Y-66860000D03*
%TO.P,C2,2*%
%TO.N,GND*%
X84700000Y-66860000D03*
%TD*%
%TO.P,R5,1*%
%TO.N,Net-(U2A--)*%
X66900000Y-49490000D03*
%TO.P,R5,2*%
%TO.N,GND*%
X66900000Y-57110000D03*
%TD*%
D12*
%TO.P,D7,1,K*%
%TO.N,GND*%
X132140000Y-65000000D03*
D13*
%TO.P,D7,2,A*%
%TO.N,Net-(D6-K)*%
X129600000Y-65000000D03*
%TD*%
D12*
%TO.P,D4,1,K*%
%TO.N,GND*%
X114240000Y-79500000D03*
D13*
%TO.P,D4,2,A*%
%TO.N,Net-(D3-K)*%
X111700000Y-79500000D03*
%TD*%
D22*
%TO.P,J1,1,Pin_1*%
%TO.N,GND*%
X60200000Y-48900000D03*
D23*
%TO.P,J1,2,Pin_2*%
%TO.N,Net-(J1-Pin_2)*%
X60200000Y-41900000D03*
%TD*%
D12*
%TO.P,D2,1,K*%
%TO.N,Net-(D2-K)*%
X106240000Y-94600000D03*
D13*
%TO.P,D2,2,A*%
%TO.N,Net-(D2-A)*%
X103700000Y-94600000D03*
%TD*%
D11*
%TO.P,R1,1*%
%TO.N,Net-(Q1-C)*%
X103400000Y-52350000D03*
%TO.P,R1,2*%
%TO.N,Net-(D1-A)*%
X103400000Y-59970000D03*
%TD*%
D12*
%TO.P,D12,1,K*%
%TO.N,Net-(D12-K)*%
X149165000Y-80000000D03*
D13*
%TO.P,D12,2,A*%
%TO.N,Net-(D11-K)*%
X146625000Y-80000000D03*
%TD*%
D12*
%TO.P,D17,1,K*%
%TO.N,Net-(D17-K)*%
X122380000Y-80000000D03*
D13*
%TO.P,D17,2,A*%
%TO.N,Net-(D17-A)*%
X119840000Y-80000000D03*
%TD*%
D12*
%TO.P,D18,1,K*%
%TO.N,Net-(D18-K)*%
X126980000Y-72100000D03*
D13*
%TO.P,D18,2,A*%
%TO.N,Net-(D17-K)*%
X124440000Y-72100000D03*
%TD*%
D11*
%TO.P,R7,1*%
%TO.N,Net-(Q1-E)*%
X66380000Y-91300000D03*
%TO.P,R7,2*%
%TO.N,Net-(D5-A)*%
X74000000Y-91300000D03*
%TD*%
D12*
%TO.P,D6,1,K*%
%TO.N,Net-(D6-K)*%
X124740000Y-65000000D03*
D13*
%TO.P,D6,2,A*%
%TO.N,Net-(D5-K)*%
X122200000Y-65000000D03*
%TD*%
D11*
%TO.P,R10,1*%
%TO.N,Net-(Q1-E)*%
X66380000Y-79000000D03*
%TO.P,R10,2*%
%TO.N,Net-(D14-A)*%
X74000000Y-79000000D03*
%TD*%
D12*
%TO.P,D13,1,K*%
%TO.N,GND*%
X146605000Y-87500000D03*
D13*
%TO.P,D13,2,A*%
%TO.N,Net-(D12-K)*%
X144065000Y-87500000D03*
%TD*%
D12*
%TO.P,D8,1,K*%
%TO.N,Net-(D8-K)*%
X139540000Y-65000000D03*
D13*
%TO.P,D8,2,A*%
%TO.N,Net-(D8-A)*%
X137000000Y-65000000D03*
%TD*%
D24*
%TO.P,C3,1*%
%TO.N,Net-(U2A-+)*%
X85800000Y-47700000D03*
D11*
%TO.P,C3,2*%
%TO.N,GND*%
X85800000Y-45200000D03*
%TD*%
D12*
%TO.P,D19,1,K*%
%TO.N,GND*%
X134480000Y-72200000D03*
D13*
%TO.P,D19,2,A*%
%TO.N,Net-(D18-K)*%
X131940000Y-72200000D03*
%TD*%
D12*
%TO.P,D11,1,K*%
%TO.N,Net-(D11-K)*%
X152265000Y-72200000D03*
D13*
%TO.P,D11,2,A*%
%TO.N,Net-(D11-A)*%
X149725000Y-72200000D03*
%TD*%
D12*
%TO.P,D9,1,K*%
%TO.N,Net-(D10-A)*%
X146740000Y-65000000D03*
D13*
%TO.P,D9,2,A*%
%TO.N,Net-(D8-K)*%
X144200000Y-65000000D03*
%TD*%
D11*
%TO.P,R9,1*%
%TO.N,Net-(Q1-E)*%
X66380000Y-83300000D03*
%TO.P,R9,2*%
%TO.N,Net-(D11-A)*%
X74000000Y-83300000D03*
%TD*%
D17*
%TO.P,U2,1*%
%TO.N,Net-(Q1-B)*%
X71795000Y-52790000D03*
D11*
%TO.P,U2,2,-*%
%TO.N,Net-(U2A--)*%
X71795000Y-55330000D03*
%TO.P,U2,3,+*%
%TO.N,Net-(U2A-+)*%
X71795000Y-57870000D03*
%TO.P,U2,4,V-*%
%TO.N,GND*%
X71795000Y-60410000D03*
%TO.P,U2,5*%
%TO.N,N/C*%
X79415000Y-60410000D03*
%TO.P,U2,6*%
X79415000Y-57870000D03*
%TO.P,U2,7*%
X79415000Y-55330000D03*
%TO.P,U2,8,V+*%
%TO.N,Net-(Q1-C)*%
X79415000Y-52790000D03*
%TD*%
%TO.P,R8,1*%
%TO.N,Net-(Q1-E)*%
X66380000Y-87300000D03*
%TO.P,R8,2*%
%TO.N,Net-(D8-A)*%
X74000000Y-87300000D03*
%TD*%
D25*
%TO.N,Net-(D17-A)*%
X109000000Y-83100000D03*
X103300000Y-79200000D03*
%TO.N,Net-(Q1-B)*%
X75500000Y-57600000D03*
%TO.N,Net-(U2A-+)*%
X74756470Y-56600000D03*
%TO.N,Net-(Q1-C)*%
X93300000Y-57200000D03*
%TD*%
D26*
%TO.N,Net-(D17-A)*%
X107200000Y-83100000D02*
X109000000Y-83100000D01*
X103300000Y-79200000D02*
X107200000Y-83100000D01*
%TO.N,Net-(D18-K)*%
X131840000Y-72100000D02*
X131940000Y-72200000D01*
X126980000Y-72100000D02*
X131840000Y-72100000D01*
%TO.N,Net-(D17-K)*%
X122380000Y-74160000D02*
X124440000Y-72100000D01*
X122380000Y-80000000D02*
X122380000Y-74160000D01*
%TO.N,Net-(D15-K)*%
X114140000Y-94700000D02*
X114140000Y-89000000D01*
X114140000Y-89000000D02*
X115740000Y-87400000D01*
%TO.N,Net-(D14-K)*%
X115800000Y-98900000D02*
X111600000Y-94700000D01*
X140065000Y-98900000D02*
X115800000Y-98900000D01*
X144265000Y-94700000D02*
X140065000Y-98900000D01*
%TO.N,Net-(D12-K)*%
X149165000Y-82400000D02*
X144065000Y-87500000D01*
X149165000Y-80000000D02*
X149165000Y-82400000D01*
%TO.N,Net-(D11-K)*%
X152265000Y-74360000D02*
X146625000Y-80000000D01*
X152265000Y-72200000D02*
X152265000Y-74360000D01*
%TO.N,Net-(D10-A)*%
X146740000Y-65000000D02*
X153000000Y-65000000D01*
%TO.N,Net-(D8-K)*%
X139540000Y-65000000D02*
X144200000Y-65000000D01*
%TO.N,Net-(D6-K)*%
X124740000Y-65000000D02*
X129600000Y-65000000D01*
%TO.N,Net-(D5-K)*%
X119640000Y-67560000D02*
X122200000Y-65000000D01*
X119640000Y-71800000D02*
X119640000Y-67560000D01*
%TO.N,Net-(D3-K)*%
X110140000Y-87000000D02*
X110140000Y-81060000D01*
X110140000Y-81060000D02*
X111700000Y-79500000D01*
%TO.N,Net-(D2-K)*%
X106240000Y-88360000D02*
X107600000Y-87000000D01*
X106240000Y-94600000D02*
X106240000Y-88360000D01*
%TO.N,Net-(Q1-E)*%
X76770000Y-67525000D02*
X76770000Y-67300000D01*
X69995000Y-74300000D02*
X76770000Y-67525000D01*
X66390000Y-74300000D02*
X69995000Y-74300000D01*
X66380000Y-74310000D02*
X66390000Y-74300000D01*
X66380000Y-79000000D02*
X66380000Y-74310000D01*
X66380000Y-83300000D02*
X66380000Y-79000000D01*
X66380000Y-87300000D02*
X66380000Y-83300000D01*
X66380000Y-91300000D02*
X66380000Y-87300000D01*
X66290000Y-91390000D02*
X66380000Y-91300000D01*
X66290000Y-95600000D02*
X66290000Y-91390000D01*
%TO.N,Net-(D1-K)*%
X94560000Y-55500000D02*
X97100000Y-58040000D01*
X108200000Y-72540000D02*
X105370000Y-72540000D01*
X105370000Y-72540000D02*
X103400000Y-70570000D01*
X103400000Y-70570000D02*
X100710000Y-70570000D01*
X100900000Y-61840000D02*
X97100000Y-58040000D01*
X100900000Y-63160000D02*
X100900000Y-61840000D01*
X89480000Y-55500000D02*
X94560000Y-55500000D01*
X100710000Y-70570000D02*
X97100000Y-66960000D01*
X97100000Y-66960000D02*
X100900000Y-63160000D01*
%TO.N,Net-(Q1-B)*%
X75500000Y-68100000D02*
X75500000Y-67300000D01*
X70910000Y-67810000D02*
X72800000Y-69700000D01*
X75500000Y-67300000D02*
X75500000Y-57600000D01*
X73900000Y-69700000D02*
X75500000Y-68100000D01*
X72800000Y-69700000D02*
X73900000Y-69700000D01*
X66900000Y-67810000D02*
X70910000Y-67810000D01*
%TO.N,Net-(D1-A)*%
X101570000Y-59970000D02*
X97100000Y-55500000D01*
X103400000Y-62950000D02*
X107630000Y-62950000D01*
X103400000Y-59970000D02*
X101570000Y-59970000D01*
X103400000Y-62950000D02*
X103400000Y-59970000D01*
X107630000Y-62950000D02*
X108200000Y-62380000D01*
%TO.N,Net-(J1-Pin_2)*%
X61949999Y-43649999D02*
X60200000Y-41900000D01*
X70300000Y-41028813D02*
X67678814Y-43649999D01*
X67678814Y-43649999D02*
X61949999Y-43649999D01*
X70300000Y-40497500D02*
X70300000Y-41028813D01*
%TO.N,Net-(U1-Q)*%
X87410000Y-60110000D02*
X89480000Y-58040000D01*
X84000000Y-60110000D02*
X87410000Y-60110000D01*
%TO.N,Net-(U1-CV)*%
X95980000Y-60580000D02*
X97100000Y-60580000D01*
X89700000Y-66860000D02*
X95980000Y-60580000D01*
%TO.N,Net-(U2A-+)*%
X74900000Y-56600000D02*
X74756470Y-56600000D01*
X84000000Y-52490000D02*
X84000000Y-49500000D01*
X84000000Y-49500000D02*
X85800000Y-47700000D01*
X73065000Y-56600000D02*
X74900000Y-56600000D01*
X71795000Y-57870000D02*
X73065000Y-56600000D01*
%TO.N,Net-(U2A--)*%
X66900000Y-60190000D02*
X64705000Y-57995000D01*
X66900000Y-50435000D02*
X66900000Y-49490000D01*
X64705000Y-56595000D02*
X68882500Y-52417500D01*
X68882500Y-52417500D02*
X66900000Y-50435000D01*
X64705000Y-57995000D02*
X64705000Y-56595000D01*
X71795000Y-55330000D02*
X68882500Y-52417500D01*
%TO.N,Net-(Q1-C)*%
X88700000Y-62500000D02*
X83000000Y-62500000D01*
X89480000Y-61720000D02*
X88700000Y-62500000D01*
X72300000Y-40497500D02*
X72300000Y-45675000D01*
X97100000Y-52960000D02*
X102790000Y-52960000D01*
X89480000Y-60580000D02*
X89480000Y-61720000D01*
X89480000Y-60580000D02*
X89920000Y-60580000D01*
X74230000Y-67300000D02*
X74230000Y-57975000D01*
X72300000Y-45675000D02*
X79415000Y-52790000D01*
X81700000Y-55075000D02*
X79415000Y-52790000D01*
X83000000Y-62500000D02*
X81700000Y-61200000D01*
X102790000Y-52960000D02*
X103400000Y-52350000D01*
X81700000Y-61200000D02*
X81700000Y-55075000D01*
X89920000Y-60580000D02*
X93300000Y-57200000D01*
X74230000Y-57975000D02*
X79415000Y-52790000D01*
%TD*%
%TA.AperFunction,Conductor*%
%TO.N,GND*%
G36*
X162143039Y-34020185D02*
G01*
X162188794Y-34072989D01*
X162200000Y-34124500D01*
X162200000Y-99966742D01*
X162180315Y-100033781D01*
X162127511Y-100079536D01*
X162075895Y-100090742D01*
X52023895Y-99997477D01*
X51956872Y-99977736D01*
X51911162Y-99924893D01*
X51900000Y-99873477D01*
X51900000Y-96778711D01*
X52549500Y-96778711D01*
X52549500Y-97021288D01*
X52581161Y-97261785D01*
X52643947Y-97496104D01*
X52696400Y-97622736D01*
X52736776Y-97720212D01*
X52858064Y-97930289D01*
X52858066Y-97930292D01*
X52858067Y-97930293D01*
X53005733Y-98122736D01*
X53005739Y-98122743D01*
X53177256Y-98294260D01*
X53177262Y-98294265D01*
X53369711Y-98441936D01*
X53579788Y-98563224D01*
X53803900Y-98656054D01*
X54038211Y-98718838D01*
X54218586Y-98742584D01*
X54278711Y-98750500D01*
X54278712Y-98750500D01*
X54521289Y-98750500D01*
X54569388Y-98744167D01*
X54761789Y-98718838D01*
X54996100Y-98656054D01*
X55220212Y-98563224D01*
X55430289Y-98441936D01*
X55622738Y-98294265D01*
X55794265Y-98122738D01*
X55941936Y-97930289D01*
X56063224Y-97720212D01*
X56156054Y-97496100D01*
X56218838Y-97261789D01*
X56250500Y-97021288D01*
X56250500Y-96778712D01*
X56218838Y-96538211D01*
X56156054Y-96303900D01*
X56063224Y-96079788D01*
X55941936Y-95869711D01*
X55844192Y-95742328D01*
X55794266Y-95677263D01*
X55794260Y-95677256D01*
X55622743Y-95505739D01*
X55622736Y-95505733D01*
X55430293Y-95358067D01*
X55430292Y-95358066D01*
X55430289Y-95358064D01*
X55221650Y-95237606D01*
X55220214Y-95236777D01*
X55220205Y-95236773D01*
X54996104Y-95143947D01*
X54761785Y-95081161D01*
X54521289Y-95049500D01*
X54521288Y-95049500D01*
X54278712Y-95049500D01*
X54278711Y-95049500D01*
X54038214Y-95081161D01*
X53803895Y-95143947D01*
X53579794Y-95236773D01*
X53579785Y-95236777D01*
X53369706Y-95358067D01*
X53177263Y-95505733D01*
X53177256Y-95505739D01*
X53005739Y-95677256D01*
X53005733Y-95677263D01*
X52858067Y-95869706D01*
X52736777Y-96079785D01*
X52736773Y-96079794D01*
X52643947Y-96303895D01*
X52581161Y-96538214D01*
X52549500Y-96778711D01*
X51900000Y-96778711D01*
X51900000Y-47350015D01*
X57950000Y-47350015D01*
X57950000Y-48650000D01*
X59437639Y-48650000D01*
X59430743Y-48666649D01*
X59400000Y-48821207D01*
X59400000Y-48978793D01*
X59430743Y-49133351D01*
X59437639Y-49150000D01*
X57950001Y-49150000D01*
X57950001Y-50449984D01*
X57960494Y-50552695D01*
X58015641Y-50719117D01*
X58015643Y-50719122D01*
X58107684Y-50868344D01*
X58231655Y-50992315D01*
X58380877Y-51084356D01*
X58380882Y-51084358D01*
X58547304Y-51139505D01*
X58547311Y-51139506D01*
X58650021Y-51149999D01*
X59949999Y-51149999D01*
X59950000Y-51149998D01*
X59950000Y-49662360D01*
X59966649Y-49669257D01*
X60121207Y-49700000D01*
X60278793Y-49700000D01*
X60433351Y-49669257D01*
X60450000Y-49662360D01*
X60450000Y-51149999D01*
X61749970Y-51149999D01*
X61749984Y-51149998D01*
X61852695Y-51139505D01*
X62019117Y-51084358D01*
X62019122Y-51084356D01*
X62168344Y-50992315D01*
X62292315Y-50868344D01*
X62384356Y-50719122D01*
X62384358Y-50719117D01*
X62439505Y-50552695D01*
X62439506Y-50552688D01*
X62449999Y-50449984D01*
X62450000Y-50449971D01*
X62450000Y-49150000D01*
X60962361Y-49150000D01*
X60969257Y-49133351D01*
X61000000Y-48978793D01*
X61000000Y-48821207D01*
X60969257Y-48666649D01*
X60962361Y-48650000D01*
X62449999Y-48650000D01*
X62449999Y-47350030D01*
X62449998Y-47350015D01*
X62439505Y-47247304D01*
X62384358Y-47080882D01*
X62384356Y-47080877D01*
X62292315Y-46931655D01*
X62168344Y-46807684D01*
X62019122Y-46715643D01*
X62019117Y-46715641D01*
X61852695Y-46660494D01*
X61852688Y-46660493D01*
X61749984Y-46650000D01*
X60450000Y-46650000D01*
X60450000Y-48137639D01*
X60433351Y-48130743D01*
X60278793Y-48100000D01*
X60121207Y-48100000D01*
X59966649Y-48130743D01*
X59950000Y-48137639D01*
X59950000Y-46650000D01*
X58650030Y-46650000D01*
X58650014Y-46650001D01*
X58547304Y-46660494D01*
X58380882Y-46715641D01*
X58380877Y-46715643D01*
X58231655Y-46807684D01*
X58107684Y-46931655D01*
X58015643Y-47080877D01*
X58015641Y-47080882D01*
X57960494Y-47247304D01*
X57960493Y-47247311D01*
X57950000Y-47350015D01*
X51900000Y-47350015D01*
X51900000Y-41752486D01*
X57949500Y-41752486D01*
X57949500Y-42047513D01*
X57975896Y-42248000D01*
X57988007Y-42339993D01*
X58035266Y-42516367D01*
X58064361Y-42624951D01*
X58064364Y-42624961D01*
X58177254Y-42897500D01*
X58177258Y-42897510D01*
X58324761Y-43152993D01*
X58504352Y-43387040D01*
X58504358Y-43387047D01*
X58712952Y-43595641D01*
X58712959Y-43595647D01*
X58947006Y-43775238D01*
X59202489Y-43922741D01*
X59202490Y-43922741D01*
X59202493Y-43922743D01*
X59377526Y-43995244D01*
X59434182Y-44018712D01*
X59475048Y-44035639D01*
X59760007Y-44111993D01*
X60052494Y-44150500D01*
X60052501Y-44150500D01*
X60347499Y-44150500D01*
X60347506Y-44150500D01*
X60639993Y-44111993D01*
X60924952Y-44035639D01*
X61197507Y-43922743D01*
X61226686Y-43905896D01*
X61253751Y-43899329D01*
X61279840Y-43889599D01*
X61287230Y-43891206D01*
X61294583Y-43889423D01*
X61320901Y-43898531D01*
X61348113Y-43904451D01*
X61356803Y-43910956D01*
X61360610Y-43912274D01*
X61376367Y-43925602D01*
X61465138Y-44014373D01*
X61465148Y-44014384D01*
X61469478Y-44018714D01*
X61469479Y-44018715D01*
X61581283Y-44130519D01*
X61668094Y-44180638D01*
X61668096Y-44180640D01*
X61718212Y-44209575D01*
X61718214Y-44209576D01*
X61870941Y-44250499D01*
X61870942Y-44250499D01*
X67592145Y-44250499D01*
X67592161Y-44250500D01*
X67599757Y-44250500D01*
X67757868Y-44250500D01*
X67757871Y-44250500D01*
X67910599Y-44209576D01*
X67960718Y-44180638D01*
X68047530Y-44130519D01*
X68159334Y-44018715D01*
X68159334Y-44018713D01*
X68169542Y-44008506D01*
X68169544Y-44008503D01*
X69893729Y-42284318D01*
X69955052Y-42250833D01*
X69981410Y-42247999D01*
X71097871Y-42247999D01*
X71097872Y-42247999D01*
X71157483Y-42241591D01*
X71292331Y-42191296D01*
X71407546Y-42105046D01*
X71436236Y-42066720D01*
X71442766Y-42061832D01*
X71446576Y-42054613D01*
X71470331Y-42041197D01*
X71492166Y-42024853D01*
X71500305Y-42024270D01*
X71507415Y-42020256D01*
X71534652Y-42021813D01*
X71561857Y-42019868D01*
X71570816Y-42023882D01*
X71577171Y-42024246D01*
X71608383Y-42040714D01*
X71644594Y-42067023D01*
X71648386Y-42069778D01*
X71691051Y-42125108D01*
X71699500Y-42170096D01*
X71699500Y-45588330D01*
X71699499Y-45588348D01*
X71699499Y-45754054D01*
X71699498Y-45754054D01*
X71699499Y-45754057D01*
X71740423Y-45906785D01*
X71751471Y-45925921D01*
X71769358Y-45956900D01*
X71769359Y-45956904D01*
X71769360Y-45956904D01*
X71819479Y-46043714D01*
X71819481Y-46043717D01*
X71938349Y-46162585D01*
X71938355Y-46162590D01*
X78120922Y-52345157D01*
X78154407Y-52406480D01*
X78151173Y-52471155D01*
X78146522Y-52485468D01*
X78114500Y-52687648D01*
X78114500Y-52892351D01*
X78146522Y-53094534D01*
X78151173Y-53108848D01*
X78153165Y-53178690D01*
X78120921Y-53234842D01*
X75405133Y-55950630D01*
X75343810Y-55984115D01*
X75274118Y-55979131D01*
X75248561Y-55966051D01*
X75135655Y-55890609D01*
X75135642Y-55890602D01*
X74989971Y-55830264D01*
X74989959Y-55830261D01*
X74835315Y-55799500D01*
X74835312Y-55799500D01*
X74677628Y-55799500D01*
X74677625Y-55799500D01*
X74522980Y-55830261D01*
X74522968Y-55830264D01*
X74377297Y-55890602D01*
X74377284Y-55890609D01*
X74245595Y-55978602D01*
X74178917Y-55999480D01*
X74176704Y-55999500D01*
X73115266Y-55999500D01*
X73048227Y-55979815D01*
X73002472Y-55927011D01*
X72992528Y-55857853D01*
X72999080Y-55833970D01*
X72998714Y-55833852D01*
X73000218Y-55829222D01*
X73000220Y-55829219D01*
X73063477Y-55634534D01*
X73095500Y-55432352D01*
X73095500Y-55227648D01*
X73086695Y-55172058D01*
X73063477Y-55025465D01*
X73000218Y-54830776D01*
X72962098Y-54755963D01*
X72907287Y-54648390D01*
X72899556Y-54637749D01*
X72786971Y-54482786D01*
X72642219Y-54338034D01*
X72610065Y-54314673D01*
X72548547Y-54269978D01*
X72505882Y-54214649D01*
X72499903Y-54145036D01*
X72532508Y-54083240D01*
X72582426Y-54051955D01*
X72664334Y-54024814D01*
X72813656Y-53932712D01*
X72937712Y-53808656D01*
X73029814Y-53659334D01*
X73084999Y-53492797D01*
X73095500Y-53390009D01*
X73095499Y-52189992D01*
X73084999Y-52087203D01*
X73029814Y-51920666D01*
X72937712Y-51771344D01*
X72813656Y-51647288D01*
X72664334Y-51555186D01*
X72497797Y-51500001D01*
X72497795Y-51500000D01*
X72395010Y-51489500D01*
X71194998Y-51489500D01*
X71194981Y-51489501D01*
X71092203Y-51500000D01*
X71092200Y-51500001D01*
X70925668Y-51555185D01*
X70925663Y-51555187D01*
X70776342Y-51647289D01*
X70652289Y-51771342D01*
X70560187Y-51920663D01*
X70560185Y-51920668D01*
X70553231Y-51941654D01*
X70505001Y-52087203D01*
X70505001Y-52087204D01*
X70505000Y-52087204D01*
X70494500Y-52189983D01*
X70494500Y-52880903D01*
X70474815Y-52947942D01*
X70422011Y-52993697D01*
X70352853Y-53003641D01*
X70289297Y-52974616D01*
X70282819Y-52968584D01*
X67859391Y-50545156D01*
X67825906Y-50483833D01*
X67830890Y-50414141D01*
X67859391Y-50369794D01*
X67891966Y-50337219D01*
X67891968Y-50337215D01*
X67891971Y-50337213D01*
X67944732Y-50264590D01*
X68012287Y-50171610D01*
X68105220Y-49989219D01*
X68168477Y-49794534D01*
X68200500Y-49592352D01*
X68200500Y-49387648D01*
X68181583Y-49268210D01*
X68168477Y-49185465D01*
X68109298Y-49003333D01*
X68105220Y-48990781D01*
X68105218Y-48990778D01*
X68105218Y-48990776D01*
X68071503Y-48924607D01*
X68012287Y-48808390D01*
X67947093Y-48718657D01*
X67891971Y-48642786D01*
X67747213Y-48498028D01*
X67581613Y-48377715D01*
X67581612Y-48377714D01*
X67581610Y-48377713D01*
X67524653Y-48348691D01*
X67399223Y-48284781D01*
X67204534Y-48221522D01*
X67029995Y-48193878D01*
X67002352Y-48189500D01*
X66797648Y-48189500D01*
X66773329Y-48193351D01*
X66595465Y-48221522D01*
X66400776Y-48284781D01*
X66218386Y-48377715D01*
X66052786Y-48498028D01*
X65908028Y-48642786D01*
X65787715Y-48808386D01*
X65694781Y-48990776D01*
X65631522Y-49185465D01*
X65599500Y-49387648D01*
X65599500Y-49592351D01*
X65631522Y-49794534D01*
X65694781Y-49989223D01*
X65787715Y-50171613D01*
X65908028Y-50337213D01*
X66052786Y-50481971D01*
X66218385Y-50602284D01*
X66218387Y-50602285D01*
X66218390Y-50602287D01*
X66305799Y-50646824D01*
X66356595Y-50694799D01*
X66356891Y-50695309D01*
X66419477Y-50803712D01*
X66419481Y-50803717D01*
X66538349Y-50922585D01*
X66538355Y-50922590D01*
X67945583Y-52329818D01*
X67979068Y-52391141D01*
X67974084Y-52460833D01*
X67945583Y-52505180D01*
X64336286Y-56114478D01*
X64224481Y-56226282D01*
X64224479Y-56226285D01*
X64186614Y-56291871D01*
X64186613Y-56291873D01*
X64145423Y-56363214D01*
X64145423Y-56363215D01*
X64104499Y-56515943D01*
X64104499Y-56515945D01*
X64104499Y-56684046D01*
X64104500Y-56684059D01*
X64104500Y-57908330D01*
X64104499Y-57908348D01*
X64104499Y-58074054D01*
X64104498Y-58074054D01*
X64145424Y-58226789D01*
X64145425Y-58226790D01*
X64171403Y-58271784D01*
X64171404Y-58271785D01*
X64224479Y-58363714D01*
X64224481Y-58363717D01*
X64343349Y-58482585D01*
X64343355Y-58482590D01*
X65605921Y-59745157D01*
X65639406Y-59806480D01*
X65636173Y-59871149D01*
X65631523Y-59885460D01*
X65631523Y-59885462D01*
X65599500Y-60087648D01*
X65599500Y-60292351D01*
X65631522Y-60494534D01*
X65694781Y-60689223D01*
X65787715Y-60871613D01*
X65908028Y-61037213D01*
X66052786Y-61181971D01*
X66186412Y-61279054D01*
X66218390Y-61302287D01*
X66320334Y-61354230D01*
X66400776Y-61395218D01*
X66400778Y-61395218D01*
X66400781Y-61395220D01*
X66472137Y-61418405D01*
X66595465Y-61458477D01*
X66676312Y-61471282D01*
X66797648Y-61490500D01*
X66797649Y-61490500D01*
X67002351Y-61490500D01*
X67002352Y-61490500D01*
X67204534Y-61458477D01*
X67399219Y-61395220D01*
X67581610Y-61302287D01*
X67674590Y-61234732D01*
X67747213Y-61181971D01*
X67747215Y-61181968D01*
X67747219Y-61181966D01*
X67891966Y-61037219D01*
X67891968Y-61037215D01*
X67891971Y-61037213D01*
X67954415Y-60951264D01*
X68012287Y-60871610D01*
X68105220Y-60689219D01*
X68168477Y-60494534D01*
X68200500Y-60292352D01*
X68200500Y-60087648D01*
X68180885Y-59963806D01*
X68168477Y-59885465D01*
X68118868Y-59732786D01*
X68105220Y-59690781D01*
X68105218Y-59690778D01*
X68105218Y-59690776D01*
X68064455Y-59610776D01*
X68012287Y-59508390D01*
X67998792Y-59489815D01*
X67891971Y-59342786D01*
X67747213Y-59198028D01*
X67581613Y-59077715D01*
X67581612Y-59077714D01*
X67581610Y-59077713D01*
X67524653Y-59048691D01*
X67399223Y-58984781D01*
X67204534Y-58921522D01*
X67029995Y-58893878D01*
X67002352Y-58889500D01*
X66797648Y-58889500D01*
X66757211Y-58895904D01*
X66595462Y-58921523D01*
X66595460Y-58921523D01*
X66581149Y-58926173D01*
X66511308Y-58928164D01*
X66455157Y-58895921D01*
X65341819Y-57782583D01*
X65308334Y-57721260D01*
X65305500Y-57694902D01*
X65305500Y-56895097D01*
X65325185Y-56828058D01*
X65341813Y-56807421D01*
X65416424Y-56732810D01*
X65477743Y-56699328D01*
X65547435Y-56704312D01*
X65603369Y-56746183D01*
X65627786Y-56811647D01*
X65626575Y-56839892D01*
X65600000Y-57007682D01*
X65600000Y-57212317D01*
X65632009Y-57414417D01*
X65695244Y-57609031D01*
X65788141Y-57791350D01*
X65788147Y-57791359D01*
X65820523Y-57835921D01*
X65820524Y-57835922D01*
X66500000Y-57156446D01*
X66500000Y-57162661D01*
X66527259Y-57264394D01*
X66579920Y-57355606D01*
X66654394Y-57430080D01*
X66745606Y-57482741D01*
X66847339Y-57510000D01*
X66853553Y-57510000D01*
X66174076Y-58189474D01*
X66218650Y-58221859D01*
X66400968Y-58314755D01*
X66595582Y-58377990D01*
X66797683Y-58410000D01*
X67002317Y-58410000D01*
X67204417Y-58377990D01*
X67399031Y-58314755D01*
X67581349Y-58221859D01*
X67625921Y-58189474D01*
X66946447Y-57510000D01*
X66952661Y-57510000D01*
X67054394Y-57482741D01*
X67145606Y-57430080D01*
X67220080Y-57355606D01*
X67272741Y-57264394D01*
X67300000Y-57162661D01*
X67300000Y-57156447D01*
X67979474Y-57835921D01*
X68011859Y-57791349D01*
X68104755Y-57609031D01*
X68167990Y-57414417D01*
X68200000Y-57212317D01*
X68200000Y-57007682D01*
X68167990Y-56805582D01*
X68104755Y-56610968D01*
X68011859Y-56428650D01*
X67979474Y-56384077D01*
X67979474Y-56384076D01*
X67300000Y-57063551D01*
X67300000Y-57057339D01*
X67272741Y-56955606D01*
X67220080Y-56864394D01*
X67145606Y-56789920D01*
X67054394Y-56737259D01*
X66952661Y-56710000D01*
X66946446Y-56710000D01*
X67625922Y-56030524D01*
X67625921Y-56030523D01*
X67581359Y-55998147D01*
X67581350Y-55998141D01*
X67399031Y-55905244D01*
X67204417Y-55842009D01*
X67002317Y-55810000D01*
X66797683Y-55810000D01*
X66629892Y-55836575D01*
X66560598Y-55827620D01*
X66507146Y-55782624D01*
X66486507Y-55715872D01*
X66505232Y-55648559D01*
X66522809Y-55626425D01*
X68794819Y-53354416D01*
X68856142Y-53320931D01*
X68925834Y-53325915D01*
X68970181Y-53354416D01*
X70500922Y-54885157D01*
X70534407Y-54946480D01*
X70531173Y-55011155D01*
X70526522Y-55025468D01*
X70494500Y-55227648D01*
X70494500Y-55432351D01*
X70526522Y-55634534D01*
X70589781Y-55829223D01*
X70648693Y-55944842D01*
X70676532Y-55999480D01*
X70682715Y-56011613D01*
X70803028Y-56177213D01*
X70947786Y-56321971D01*
X71054498Y-56399500D01*
X71113390Y-56442287D01*
X71204840Y-56488883D01*
X71206080Y-56489515D01*
X71256876Y-56537490D01*
X71273671Y-56605311D01*
X71251134Y-56671446D01*
X71206080Y-56710485D01*
X71113386Y-56757715D01*
X70947786Y-56878028D01*
X70803028Y-57022786D01*
X70682715Y-57188386D01*
X70589781Y-57370776D01*
X70526522Y-57565465D01*
X70494500Y-57767648D01*
X70494500Y-57972351D01*
X70526522Y-58174534D01*
X70589781Y-58369223D01*
X70647543Y-58482585D01*
X70676401Y-58539223D01*
X70682715Y-58551613D01*
X70803028Y-58717213D01*
X70947786Y-58861971D01*
X71113385Y-58982284D01*
X71113387Y-58982285D01*
X71113390Y-58982287D01*
X71206080Y-59029515D01*
X71206630Y-59029795D01*
X71257426Y-59077770D01*
X71274221Y-59145591D01*
X71251684Y-59211725D01*
X71206630Y-59250765D01*
X71113644Y-59298143D01*
X71069077Y-59330523D01*
X71069077Y-59330524D01*
X71748554Y-60010000D01*
X71742339Y-60010000D01*
X71640606Y-60037259D01*
X71549394Y-60089920D01*
X71474920Y-60164394D01*
X71422259Y-60255606D01*
X71395000Y-60357339D01*
X71395000Y-60363553D01*
X70715524Y-59684077D01*
X70715523Y-59684077D01*
X70683143Y-59728644D01*
X70590244Y-59910968D01*
X70527009Y-60105582D01*
X70495000Y-60307682D01*
X70495000Y-60512317D01*
X70527009Y-60714417D01*
X70590244Y-60909031D01*
X70683141Y-61091350D01*
X70683147Y-61091359D01*
X70715523Y-61135921D01*
X70715524Y-61135922D01*
X71395000Y-60456446D01*
X71395000Y-60462661D01*
X71422259Y-60564394D01*
X71474920Y-60655606D01*
X71549394Y-60730080D01*
X71640606Y-60782741D01*
X71742339Y-60810000D01*
X71748553Y-60810000D01*
X71069076Y-61489474D01*
X71113650Y-61521859D01*
X71295968Y-61614755D01*
X71490582Y-61677990D01*
X71692683Y-61710000D01*
X71897317Y-61710000D01*
X72099417Y-61677990D01*
X72294031Y-61614755D01*
X72476349Y-61521859D01*
X72520921Y-61489474D01*
X71841447Y-60810000D01*
X71847661Y-60810000D01*
X71949394Y-60782741D01*
X72040606Y-60730080D01*
X72115080Y-60655606D01*
X72167741Y-60564394D01*
X72195000Y-60462661D01*
X72195000Y-60456447D01*
X72874474Y-61135921D01*
X72906859Y-61091349D01*
X72999755Y-60909031D01*
X73062990Y-60714417D01*
X73095000Y-60512317D01*
X73095000Y-60307682D01*
X73062990Y-60105582D01*
X72999755Y-59910968D01*
X72906859Y-59728650D01*
X72874474Y-59684077D01*
X72874474Y-59684076D01*
X72195000Y-60363551D01*
X72195000Y-60357339D01*
X72167741Y-60255606D01*
X72115080Y-60164394D01*
X72040606Y-60089920D01*
X71949394Y-60037259D01*
X71847661Y-60010000D01*
X71841446Y-60010000D01*
X72520922Y-59330524D01*
X72520921Y-59330523D01*
X72476359Y-59298147D01*
X72476350Y-59298141D01*
X72383369Y-59250765D01*
X72332573Y-59202790D01*
X72315778Y-59134969D01*
X72338315Y-59068835D01*
X72383370Y-59029795D01*
X72383920Y-59029515D01*
X72476610Y-58982287D01*
X72583289Y-58904781D01*
X72642213Y-58861971D01*
X72642215Y-58861968D01*
X72642219Y-58861966D01*
X72786966Y-58717219D01*
X72786968Y-58717215D01*
X72786971Y-58717213D01*
X72839732Y-58644590D01*
X72907287Y-58551610D01*
X73000220Y-58369219D01*
X73063477Y-58174534D01*
X73095500Y-57972352D01*
X73095500Y-57767648D01*
X73063477Y-57565466D01*
X73058826Y-57551154D01*
X73056832Y-57481315D01*
X73089077Y-57425157D01*
X73277416Y-57236819D01*
X73338739Y-57203334D01*
X73365097Y-57200500D01*
X73855902Y-57200500D01*
X73922941Y-57220185D01*
X73968696Y-57272989D01*
X73978640Y-57342147D01*
X73949615Y-57405703D01*
X73943583Y-57412181D01*
X73749481Y-57606282D01*
X73749477Y-57606287D01*
X73731046Y-57638213D01*
X73731045Y-57638215D01*
X73670423Y-57743215D01*
X73629499Y-57895943D01*
X73629499Y-57895945D01*
X73629499Y-58064046D01*
X73629500Y-58064059D01*
X73629500Y-65957884D01*
X73609815Y-66024923D01*
X73557011Y-66070678D01*
X73548834Y-66074066D01*
X73462669Y-66106203D01*
X73462664Y-66106206D01*
X73347455Y-66192452D01*
X73347452Y-66192455D01*
X73261206Y-66307664D01*
X73261202Y-66307671D01*
X73210908Y-66442517D01*
X73204501Y-66502116D01*
X73204500Y-66502135D01*
X73204500Y-68097870D01*
X73204501Y-68097876D01*
X73210908Y-68157483D01*
X73261202Y-68292328D01*
X73261206Y-68292335D01*
X73347452Y-68407544D01*
X73347455Y-68407547D01*
X73462664Y-68493793D01*
X73462671Y-68493797D01*
X73507618Y-68510561D01*
X73597517Y-68544091D01*
X73657127Y-68550500D01*
X73900902Y-68550499D01*
X73967941Y-68570183D01*
X74013696Y-68622987D01*
X74023640Y-68692146D01*
X73994615Y-68755701D01*
X73988584Y-68762180D01*
X73687582Y-69063182D01*
X73626261Y-69096666D01*
X73599903Y-69099500D01*
X73100098Y-69099500D01*
X73033059Y-69079815D01*
X73012417Y-69063181D01*
X71397590Y-67448355D01*
X71397588Y-67448352D01*
X71278717Y-67329481D01*
X71278716Y-67329480D01*
X71191904Y-67279360D01*
X71191904Y-67279359D01*
X71191900Y-67279358D01*
X71141785Y-67250423D01*
X70989057Y-67209499D01*
X70830943Y-67209499D01*
X70823347Y-67209499D01*
X70823331Y-67209500D01*
X68129602Y-67209500D01*
X68062563Y-67189815D01*
X68019117Y-67141795D01*
X68012284Y-67128385D01*
X67891971Y-66962786D01*
X67747213Y-66818028D01*
X67581613Y-66697715D01*
X67581612Y-66697714D01*
X67581610Y-66697713D01*
X67524653Y-66668691D01*
X67399223Y-66604781D01*
X67204534Y-66541522D01*
X67029995Y-66513878D01*
X67002352Y-66509500D01*
X66797648Y-66509500D01*
X66773329Y-66513351D01*
X66595465Y-66541522D01*
X66400776Y-66604781D01*
X66218386Y-66697715D01*
X66052786Y-66818028D01*
X65908028Y-66962786D01*
X65787715Y-67128386D01*
X65694781Y-67310776D01*
X65631522Y-67505465D01*
X65599500Y-67707648D01*
X65599500Y-67912351D01*
X65631522Y-68114534D01*
X65694781Y-68309223D01*
X65787715Y-68491613D01*
X65908028Y-68657213D01*
X66052786Y-68801971D01*
X66207749Y-68914556D01*
X66218390Y-68922287D01*
X66334607Y-68981503D01*
X66400776Y-69015218D01*
X66400778Y-69015218D01*
X66400781Y-69015220D01*
X66505137Y-69049127D01*
X66595465Y-69078477D01*
X66696557Y-69094488D01*
X66797648Y-69110500D01*
X66797649Y-69110500D01*
X67002351Y-69110500D01*
X67002352Y-69110500D01*
X67204534Y-69078477D01*
X67399219Y-69015220D01*
X67581610Y-68922287D01*
X67674590Y-68854732D01*
X67747213Y-68801971D01*
X67747215Y-68801968D01*
X67747219Y-68801966D01*
X67891966Y-68657219D01*
X67891968Y-68657215D01*
X67891971Y-68657213D01*
X68012284Y-68491614D01*
X68012285Y-68491613D01*
X68012287Y-68491610D01*
X68019117Y-68478204D01*
X68067091Y-68427409D01*
X68129602Y-68410500D01*
X70609903Y-68410500D01*
X70676942Y-68430185D01*
X70697583Y-68446818D01*
X72431284Y-70180520D01*
X72431286Y-70180521D01*
X72431290Y-70180524D01*
X72568209Y-70259573D01*
X72568216Y-70259577D01*
X72720943Y-70300501D01*
X72720945Y-70300501D01*
X72845902Y-70300501D01*
X72912941Y-70320186D01*
X72958696Y-70372990D01*
X72968640Y-70442148D01*
X72939615Y-70505704D01*
X72933583Y-70512182D01*
X69782584Y-73663181D01*
X69721261Y-73696666D01*
X69694903Y-73699500D01*
X67619602Y-73699500D01*
X67552563Y-73679815D01*
X67509117Y-73631795D01*
X67502287Y-73618390D01*
X67502285Y-73618387D01*
X67502284Y-73618385D01*
X67381971Y-73452786D01*
X67237213Y-73308028D01*
X67071613Y-73187715D01*
X67071612Y-73187714D01*
X67071610Y-73187713D01*
X67014653Y-73158691D01*
X66889223Y-73094781D01*
X66694534Y-73031522D01*
X66519995Y-73003878D01*
X66492352Y-72999500D01*
X66287648Y-72999500D01*
X66263329Y-73003351D01*
X66085465Y-73031522D01*
X65890776Y-73094781D01*
X65708386Y-73187715D01*
X65542786Y-73308028D01*
X65398028Y-73452786D01*
X65277715Y-73618386D01*
X65184781Y-73800776D01*
X65121522Y-73995465D01*
X65089500Y-74197648D01*
X65089500Y-74402351D01*
X65121522Y-74604534D01*
X65184781Y-74799223D01*
X65277715Y-74981613D01*
X65398028Y-75147213D01*
X65398034Y-75147219D01*
X65542781Y-75291966D01*
X65708390Y-75412287D01*
X65711792Y-75414020D01*
X65762589Y-75461993D01*
X65779500Y-75524506D01*
X65779500Y-77770397D01*
X65759815Y-77837436D01*
X65711800Y-77880879D01*
X65698389Y-77887712D01*
X65532786Y-78008028D01*
X65388028Y-78152786D01*
X65267715Y-78318386D01*
X65174781Y-78500776D01*
X65111522Y-78695465D01*
X65079500Y-78897648D01*
X65079500Y-79102351D01*
X65111522Y-79304534D01*
X65174781Y-79499223D01*
X65231338Y-79610221D01*
X65262841Y-79672049D01*
X65267715Y-79681613D01*
X65388028Y-79847213D01*
X65388034Y-79847219D01*
X65532781Y-79991966D01*
X65698390Y-80112287D01*
X65711793Y-80119116D01*
X65762589Y-80167088D01*
X65779500Y-80229601D01*
X65779500Y-82070397D01*
X65759815Y-82137436D01*
X65711800Y-82180879D01*
X65698389Y-82187712D01*
X65532786Y-82308028D01*
X65388028Y-82452786D01*
X65267715Y-82618386D01*
X65174781Y-82800776D01*
X65111522Y-82995465D01*
X65079500Y-83197648D01*
X65079500Y-83402351D01*
X65111522Y-83604534D01*
X65174781Y-83799223D01*
X65267715Y-83981613D01*
X65388028Y-84147213D01*
X65388034Y-84147219D01*
X65532781Y-84291966D01*
X65698390Y-84412287D01*
X65711793Y-84419116D01*
X65762589Y-84467088D01*
X65779500Y-84529601D01*
X65779500Y-86070397D01*
X65759815Y-86137436D01*
X65711800Y-86180879D01*
X65698389Y-86187712D01*
X65532786Y-86308028D01*
X65388028Y-86452786D01*
X65267715Y-86618386D01*
X65174781Y-86800776D01*
X65111522Y-86995465D01*
X65079500Y-87197648D01*
X65079500Y-87402351D01*
X65111522Y-87604534D01*
X65174781Y-87799223D01*
X65267715Y-87981613D01*
X65388028Y-88147213D01*
X65388034Y-88147219D01*
X65532781Y-88291966D01*
X65698390Y-88412287D01*
X65711793Y-88419116D01*
X65762589Y-88467088D01*
X65779500Y-88529601D01*
X65779500Y-90070397D01*
X65759815Y-90137436D01*
X65711800Y-90180879D01*
X65698389Y-90187712D01*
X65532786Y-90308028D01*
X65388028Y-90452786D01*
X65267715Y-90618386D01*
X65174781Y-90800776D01*
X65111522Y-90995465D01*
X65079500Y-91197648D01*
X65079500Y-91402351D01*
X65111522Y-91604534D01*
X65174781Y-91799223D01*
X65267715Y-91981613D01*
X65388028Y-92147213D01*
X65532784Y-92291969D01*
X65604696Y-92344214D01*
X65638384Y-92368690D01*
X65681051Y-92424020D01*
X65689500Y-92469009D01*
X65689500Y-94370397D01*
X65669815Y-94437436D01*
X65621800Y-94480879D01*
X65608389Y-94487712D01*
X65442786Y-94608028D01*
X65298028Y-94752786D01*
X65177715Y-94918386D01*
X65084781Y-95100776D01*
X65021522Y-95295465D01*
X64989500Y-95497648D01*
X64989500Y-95702351D01*
X65021522Y-95904534D01*
X65084781Y-96099223D01*
X65129492Y-96186972D01*
X65176236Y-96278712D01*
X65177715Y-96281613D01*
X65298028Y-96447213D01*
X65442786Y-96591971D01*
X65597749Y-96704556D01*
X65608390Y-96712287D01*
X65705535Y-96761785D01*
X65790776Y-96805218D01*
X65790778Y-96805218D01*
X65790781Y-96805220D01*
X65895137Y-96839127D01*
X65985465Y-96868477D01*
X66086557Y-96884488D01*
X66187648Y-96900500D01*
X66187649Y-96900500D01*
X66392351Y-96900500D01*
X66392352Y-96900500D01*
X66594534Y-96868477D01*
X66789219Y-96805220D01*
X66971610Y-96712287D01*
X67064590Y-96644732D01*
X67137213Y-96591971D01*
X67137215Y-96591968D01*
X67137219Y-96591966D01*
X67281966Y-96447219D01*
X67281968Y-96447215D01*
X67281971Y-96447213D01*
X67334732Y-96374590D01*
X67402287Y-96281610D01*
X67495220Y-96099219D01*
X67558477Y-95904534D01*
X67590500Y-95702352D01*
X67590500Y-95497648D01*
X72609500Y-95497648D01*
X72609500Y-95702351D01*
X72641522Y-95904534D01*
X72704781Y-96099223D01*
X72749492Y-96186972D01*
X72796236Y-96278712D01*
X72797715Y-96281613D01*
X72918028Y-96447213D01*
X73062786Y-96591971D01*
X73217749Y-96704556D01*
X73228390Y-96712287D01*
X73325535Y-96761785D01*
X73410776Y-96805218D01*
X73410778Y-96805218D01*
X73410781Y-96805220D01*
X73515137Y-96839127D01*
X73605465Y-96868477D01*
X73706557Y-96884488D01*
X73807648Y-96900500D01*
X73807649Y-96900500D01*
X74012351Y-96900500D01*
X74012352Y-96900500D01*
X74214534Y-96868477D01*
X74409219Y-96805220D01*
X74591610Y-96712287D01*
X74684590Y-96644732D01*
X74757213Y-96591971D01*
X74757215Y-96591968D01*
X74757219Y-96591966D01*
X74901966Y-96447219D01*
X74901968Y-96447215D01*
X74901971Y-96447213D01*
X74954732Y-96374590D01*
X75022287Y-96281610D01*
X75115220Y-96099219D01*
X75178477Y-95904534D01*
X75210500Y-95702352D01*
X75210500Y-95497648D01*
X75200423Y-95434025D01*
X75178477Y-95295465D01*
X75149127Y-95205137D01*
X75115220Y-95100781D01*
X75115218Y-95100778D01*
X75115218Y-95100776D01*
X75078111Y-95027951D01*
X75022287Y-94918390D01*
X75014556Y-94907749D01*
X74901971Y-94752786D01*
X74757217Y-94608032D01*
X74757212Y-94608028D01*
X74725848Y-94585240D01*
X74725825Y-94585225D01*
X74594453Y-94489778D01*
X102299500Y-94489778D01*
X102299500Y-94710222D01*
X102316742Y-94819086D01*
X102333985Y-94927952D01*
X102402103Y-95137603D01*
X102402104Y-95137606D01*
X102502187Y-95334025D01*
X102631752Y-95512358D01*
X102631756Y-95512363D01*
X102787636Y-95668243D01*
X102787641Y-95668247D01*
X102889606Y-95742328D01*
X102965978Y-95797815D01*
X103094375Y-95863237D01*
X103162393Y-95897895D01*
X103162396Y-95897896D01*
X103267221Y-95931955D01*
X103372049Y-95966015D01*
X103589778Y-96000500D01*
X103589779Y-96000500D01*
X103810221Y-96000500D01*
X103810222Y-96000500D01*
X104027951Y-95966015D01*
X104237606Y-95897895D01*
X104434022Y-95797815D01*
X104612365Y-95668242D01*
X104662536Y-95618070D01*
X104723857Y-95584586D01*
X104793548Y-95589570D01*
X104849482Y-95631441D01*
X104866398Y-95662419D01*
X104896202Y-95742328D01*
X104896206Y-95742335D01*
X104982452Y-95857544D01*
X104982455Y-95857547D01*
X105097664Y-95943793D01*
X105097671Y-95943797D01*
X105232517Y-95994091D01*
X105232516Y-95994091D01*
X105239444Y-95994835D01*
X105292127Y-96000500D01*
X107187872Y-96000499D01*
X107247483Y-95994091D01*
X107382331Y-95943796D01*
X107497546Y-95857546D01*
X107583796Y-95742331D01*
X107634091Y-95607483D01*
X107640500Y-95547873D01*
X107640499Y-94589778D01*
X110199500Y-94589778D01*
X110199500Y-94810222D01*
X110207078Y-94858067D01*
X110233985Y-95027952D01*
X110302103Y-95237603D01*
X110302104Y-95237606D01*
X110402187Y-95434025D01*
X110531752Y-95612358D01*
X110531756Y-95612363D01*
X110687636Y-95768243D01*
X110687641Y-95768247D01*
X110827289Y-95869706D01*
X110865978Y-95897815D01*
X110994375Y-95963237D01*
X111062393Y-95997895D01*
X111062396Y-95997896D01*
X111129525Y-96019707D01*
X111272049Y-96066015D01*
X111489778Y-96100500D01*
X111489779Y-96100500D01*
X111710221Y-96100500D01*
X111710222Y-96100500D01*
X111927951Y-96066015D01*
X111998205Y-96043187D01*
X112068044Y-96041192D01*
X112124203Y-96073438D01*
X115315139Y-99264374D01*
X115315149Y-99264385D01*
X115319479Y-99268715D01*
X115319480Y-99268716D01*
X115431284Y-99380520D01*
X115518095Y-99430639D01*
X115518097Y-99430641D01*
X115556151Y-99452611D01*
X115568215Y-99459577D01*
X115720943Y-99500501D01*
X115720946Y-99500501D01*
X115886653Y-99500501D01*
X115886669Y-99500500D01*
X139978331Y-99500500D01*
X139978347Y-99500501D01*
X139985943Y-99500501D01*
X140144054Y-99500501D01*
X140144057Y-99500501D01*
X140296785Y-99459577D01*
X140346904Y-99430639D01*
X140433716Y-99380520D01*
X140545520Y-99268716D01*
X140545520Y-99268714D01*
X140555728Y-99258507D01*
X140555730Y-99258504D01*
X143535523Y-96278711D01*
X156449500Y-96278711D01*
X156449500Y-96521288D01*
X156481161Y-96761785D01*
X156543947Y-96996104D01*
X156554379Y-97021288D01*
X156636776Y-97220212D01*
X156758064Y-97430289D01*
X156758066Y-97430292D01*
X156758067Y-97430293D01*
X156905733Y-97622736D01*
X156905739Y-97622743D01*
X157077256Y-97794260D01*
X157077262Y-97794265D01*
X157269711Y-97941936D01*
X157479788Y-98063224D01*
X157703900Y-98156054D01*
X157938211Y-98218838D01*
X158118586Y-98242584D01*
X158178711Y-98250500D01*
X158178712Y-98250500D01*
X158421289Y-98250500D01*
X158469388Y-98244167D01*
X158661789Y-98218838D01*
X158896100Y-98156054D01*
X159120212Y-98063224D01*
X159330289Y-97941936D01*
X159522738Y-97794265D01*
X159694265Y-97622738D01*
X159841936Y-97430289D01*
X159963224Y-97220212D01*
X160056054Y-96996100D01*
X160118838Y-96761789D01*
X160150500Y-96521288D01*
X160150500Y-96278712D01*
X160118838Y-96038211D01*
X160056054Y-95803900D01*
X159963224Y-95579788D01*
X159841936Y-95369711D01*
X159781018Y-95290321D01*
X159694266Y-95177263D01*
X159694260Y-95177256D01*
X159522743Y-95005739D01*
X159522736Y-95005733D01*
X159330293Y-94858067D01*
X159330292Y-94858066D01*
X159330289Y-94858064D01*
X159147942Y-94752786D01*
X159120214Y-94736777D01*
X159120205Y-94736773D01*
X158896104Y-94643947D01*
X158661785Y-94581161D01*
X158421289Y-94549500D01*
X158421288Y-94549500D01*
X158178712Y-94549500D01*
X158178711Y-94549500D01*
X157938214Y-94581161D01*
X157703895Y-94643947D01*
X157479794Y-94736773D01*
X157479785Y-94736777D01*
X157269706Y-94858067D01*
X157077263Y-95005733D01*
X157077256Y-95005739D01*
X156905739Y-95177256D01*
X156905733Y-95177263D01*
X156758067Y-95369706D01*
X156636777Y-95579785D01*
X156636773Y-95579794D01*
X156543947Y-95803895D01*
X156481161Y-96038214D01*
X156449500Y-96278711D01*
X143535523Y-96278711D01*
X143677416Y-96136818D01*
X143738739Y-96103333D01*
X143765097Y-96100499D01*
X145212871Y-96100499D01*
X145212872Y-96100499D01*
X145272483Y-96094091D01*
X145407331Y-96043796D01*
X145522546Y-95957546D01*
X145608796Y-95842331D01*
X145659091Y-95707483D01*
X145665500Y-95647873D01*
X145665499Y-93752128D01*
X145659091Y-93692517D01*
X145657272Y-93687641D01*
X145608797Y-93557671D01*
X145608793Y-93557664D01*
X145522547Y-93442455D01*
X145522544Y-93442452D01*
X145407335Y-93356206D01*
X145407328Y-93356202D01*
X145272482Y-93305908D01*
X145272483Y-93305908D01*
X145212883Y-93299501D01*
X145212881Y-93299500D01*
X145212873Y-93299500D01*
X145212864Y-93299500D01*
X143317129Y-93299500D01*
X143317123Y-93299501D01*
X143257516Y-93305908D01*
X143122671Y-93356202D01*
X143122664Y-93356206D01*
X143007455Y-93442452D01*
X143007452Y-93442455D01*
X142921206Y-93557664D01*
X142921203Y-93557669D01*
X142891398Y-93637581D01*
X142849526Y-93693514D01*
X142784062Y-93717931D01*
X142715789Y-93703079D01*
X142687535Y-93681928D01*
X142637363Y-93631756D01*
X142637358Y-93631752D01*
X142459025Y-93502187D01*
X142459024Y-93502186D01*
X142459022Y-93502185D01*
X142396096Y-93470122D01*
X142262606Y-93402104D01*
X142262603Y-93402103D01*
X142052952Y-93333985D01*
X141944086Y-93316742D01*
X141835222Y-93299500D01*
X141614778Y-93299500D01*
X141542201Y-93310995D01*
X141397047Y-93333985D01*
X141187396Y-93402103D01*
X141187393Y-93402104D01*
X140990974Y-93502187D01*
X140812641Y-93631752D01*
X140812636Y-93631756D01*
X140656756Y-93787636D01*
X140656752Y-93787641D01*
X140527187Y-93965974D01*
X140427104Y-94162393D01*
X140427103Y-94162396D01*
X140358985Y-94372047D01*
X140340665Y-94487715D01*
X140324500Y-94589778D01*
X140324500Y-94810222D01*
X140332078Y-94858067D01*
X140358985Y-95027952D01*
X140427103Y-95237603D01*
X140427104Y-95237606D01*
X140527187Y-95434025D01*
X140656752Y-95612358D01*
X140656756Y-95612363D01*
X140812636Y-95768243D01*
X140812641Y-95768247D01*
X140952289Y-95869706D01*
X140990978Y-95897815D01*
X141119375Y-95963237D01*
X141187393Y-95997895D01*
X141187396Y-95997896D01*
X141254525Y-96019707D01*
X141397049Y-96066015D01*
X141614778Y-96100500D01*
X141614779Y-96100500D01*
X141715902Y-96100500D01*
X141782941Y-96120185D01*
X141828696Y-96172989D01*
X141838640Y-96242147D01*
X141809615Y-96305703D01*
X141803583Y-96312181D01*
X139852584Y-98263181D01*
X139791261Y-98296666D01*
X139764903Y-98299500D01*
X116100097Y-98299500D01*
X116033058Y-98279815D01*
X116012416Y-98263181D01*
X114061415Y-96312180D01*
X114027930Y-96250857D01*
X114032914Y-96181165D01*
X114074786Y-96125232D01*
X114140250Y-96100815D01*
X114149096Y-96100499D01*
X115087871Y-96100499D01*
X115087872Y-96100499D01*
X115147483Y-96094091D01*
X115282331Y-96043796D01*
X115397546Y-95957546D01*
X115483796Y-95842331D01*
X115534091Y-95707483D01*
X115540500Y-95647873D01*
X115540499Y-93752128D01*
X115534091Y-93692517D01*
X115532272Y-93687641D01*
X115483797Y-93557671D01*
X115483793Y-93557664D01*
X115397547Y-93442455D01*
X115397544Y-93442452D01*
X115282335Y-93356206D01*
X115282328Y-93356202D01*
X115147482Y-93305908D01*
X115147483Y-93305908D01*
X115087883Y-93299501D01*
X115087881Y-93299500D01*
X115087873Y-93299500D01*
X115087865Y-93299500D01*
X114864500Y-93299500D01*
X114797461Y-93279815D01*
X114751706Y-93227011D01*
X114740500Y-93175500D01*
X114740500Y-89300096D01*
X114760185Y-89233057D01*
X114776815Y-89212419D01*
X115215797Y-88773436D01*
X115277118Y-88739953D01*
X115341794Y-88743188D01*
X115412049Y-88766015D01*
X115629778Y-88800500D01*
X115629779Y-88800500D01*
X115850221Y-88800500D01*
X115850222Y-88800500D01*
X116067951Y-88766015D01*
X116277606Y-88697895D01*
X116474022Y-88597815D01*
X116652365Y-88468242D01*
X116702924Y-88417682D01*
X116764245Y-88384198D01*
X116833936Y-88389182D01*
X116889870Y-88431053D01*
X116906786Y-88462030D01*
X116936646Y-88542087D01*
X116936649Y-88542093D01*
X117022809Y-88657187D01*
X117022812Y-88657190D01*
X117137906Y-88743350D01*
X117137913Y-88743354D01*
X117272620Y-88793596D01*
X117272627Y-88793598D01*
X117332155Y-88799999D01*
X117332172Y-88800000D01*
X118030000Y-88800000D01*
X118030000Y-87775277D01*
X118106306Y-87819333D01*
X118220756Y-87850000D01*
X118339244Y-87850000D01*
X118453694Y-87819333D01*
X118530000Y-87775277D01*
X118530000Y-88800000D01*
X119227828Y-88800000D01*
X119227844Y-88799999D01*
X119287372Y-88793598D01*
X119287379Y-88793596D01*
X119422086Y-88743354D01*
X119422093Y-88743350D01*
X119537187Y-88657190D01*
X119537190Y-88657187D01*
X119623350Y-88542093D01*
X119623354Y-88542086D01*
X119673596Y-88407379D01*
X119673598Y-88407372D01*
X119679999Y-88347844D01*
X119680000Y-88347827D01*
X119680000Y-87650000D01*
X118655278Y-87650000D01*
X118699333Y-87573694D01*
X118730000Y-87459244D01*
X118730000Y-87389778D01*
X142664500Y-87389778D01*
X142664500Y-87610221D01*
X142698985Y-87827952D01*
X142767103Y-88037603D01*
X142767104Y-88037606D01*
X142822953Y-88147213D01*
X142848736Y-88197815D01*
X142867187Y-88234025D01*
X142996752Y-88412358D01*
X142996756Y-88412363D01*
X143152636Y-88568243D01*
X143152641Y-88568247D01*
X143275058Y-88657187D01*
X143330978Y-88697815D01*
X143447501Y-88757187D01*
X143527393Y-88797895D01*
X143527396Y-88797896D01*
X143632221Y-88831955D01*
X143737049Y-88866015D01*
X143954778Y-88900500D01*
X143954779Y-88900500D01*
X144175221Y-88900500D01*
X144175222Y-88900500D01*
X144392951Y-88866015D01*
X144602606Y-88797895D01*
X144799022Y-88697815D01*
X144977365Y-88568242D01*
X145027924Y-88517682D01*
X145089245Y-88484198D01*
X145158936Y-88489182D01*
X145214870Y-88531053D01*
X145231786Y-88562030D01*
X145261646Y-88642087D01*
X145261649Y-88642093D01*
X145347809Y-88757187D01*
X145347812Y-88757190D01*
X145462906Y-88843350D01*
X145462913Y-88843354D01*
X145597620Y-88893596D01*
X145597627Y-88893598D01*
X145657155Y-88899999D01*
X145657172Y-88900000D01*
X146355000Y-88900000D01*
X146355000Y-87875277D01*
X146431306Y-87919333D01*
X146545756Y-87950000D01*
X146664244Y-87950000D01*
X146778694Y-87919333D01*
X146855000Y-87875277D01*
X146855000Y-88900000D01*
X147552828Y-88900000D01*
X147552844Y-88899999D01*
X147612372Y-88893598D01*
X147612379Y-88893596D01*
X147747086Y-88843354D01*
X147747093Y-88843350D01*
X147862187Y-88757190D01*
X147862190Y-88757187D01*
X147948350Y-88642093D01*
X147948354Y-88642086D01*
X147998596Y-88507379D01*
X147998598Y-88507372D01*
X148004999Y-88447844D01*
X148005000Y-88447827D01*
X148005000Y-87750000D01*
X146980278Y-87750000D01*
X147024333Y-87673694D01*
X147055000Y-87559244D01*
X147055000Y-87440756D01*
X147024333Y-87326306D01*
X146980278Y-87250000D01*
X148005000Y-87250000D01*
X148005000Y-86552172D01*
X148004999Y-86552155D01*
X147998598Y-86492627D01*
X147998596Y-86492620D01*
X147948354Y-86357913D01*
X147948350Y-86357906D01*
X147862190Y-86242812D01*
X147862187Y-86242809D01*
X147747093Y-86156649D01*
X147747086Y-86156645D01*
X147612379Y-86106403D01*
X147612372Y-86106401D01*
X147552844Y-86100000D01*
X146855000Y-86100000D01*
X146855000Y-87124722D01*
X146778694Y-87080667D01*
X146664244Y-87050000D01*
X146545756Y-87050000D01*
X146431306Y-87080667D01*
X146355000Y-87124722D01*
X146355000Y-86110596D01*
X146363644Y-86081155D01*
X146370168Y-86051169D01*
X146373922Y-86046153D01*
X146374685Y-86043557D01*
X146391319Y-86022915D01*
X146453277Y-85960957D01*
X147960620Y-84453614D01*
X149533713Y-82880521D01*
X149533716Y-82880520D01*
X149645520Y-82768716D01*
X149695639Y-82681904D01*
X149724577Y-82631785D01*
X149765500Y-82479057D01*
X149765500Y-82320943D01*
X149765500Y-81524499D01*
X149785185Y-81457460D01*
X149837989Y-81411705D01*
X149889500Y-81400499D01*
X150112871Y-81400499D01*
X150112872Y-81400499D01*
X150172483Y-81394091D01*
X150307331Y-81343796D01*
X150422546Y-81257546D01*
X150508796Y-81142331D01*
X150559091Y-81007483D01*
X150565500Y-80947873D01*
X150565499Y-79052128D01*
X150559091Y-78992517D01*
X150549388Y-78966503D01*
X150508797Y-78857671D01*
X150508793Y-78857664D01*
X150422547Y-78742455D01*
X150422544Y-78742452D01*
X150307335Y-78656206D01*
X150307328Y-78656202D01*
X150172482Y-78605908D01*
X150172483Y-78605908D01*
X150112883Y-78599501D01*
X150112881Y-78599500D01*
X150112873Y-78599500D01*
X150112865Y-78599500D01*
X149174096Y-78599500D01*
X149107057Y-78579815D01*
X149061302Y-78527011D01*
X149051358Y-78457853D01*
X149080383Y-78394297D01*
X149086415Y-78387819D01*
X149774734Y-77699500D01*
X152623506Y-74850728D01*
X152623511Y-74850724D01*
X152633714Y-74840520D01*
X152633716Y-74840520D01*
X152745520Y-74728716D01*
X152824577Y-74591784D01*
X152865500Y-74439057D01*
X152865500Y-73724499D01*
X152885185Y-73657460D01*
X152937989Y-73611705D01*
X152989500Y-73600499D01*
X153212871Y-73600499D01*
X153212872Y-73600499D01*
X153272483Y-73594091D01*
X153407331Y-73543796D01*
X153522546Y-73457546D01*
X153608796Y-73342331D01*
X153659091Y-73207483D01*
X153665500Y-73147873D01*
X153665499Y-71252128D01*
X153659091Y-71192517D01*
X153658221Y-71190185D01*
X153608797Y-71057671D01*
X153608793Y-71057664D01*
X153522547Y-70942455D01*
X153522544Y-70942452D01*
X153407335Y-70856206D01*
X153407328Y-70856202D01*
X153272482Y-70805908D01*
X153272483Y-70805908D01*
X153212883Y-70799501D01*
X153212881Y-70799500D01*
X153212873Y-70799500D01*
X153212864Y-70799500D01*
X151317129Y-70799500D01*
X151317123Y-70799501D01*
X151257516Y-70805908D01*
X151122671Y-70856202D01*
X151122664Y-70856206D01*
X151007455Y-70942452D01*
X151007452Y-70942455D01*
X150921206Y-71057664D01*
X150921203Y-71057669D01*
X150891398Y-71137581D01*
X150849526Y-71193514D01*
X150784062Y-71217931D01*
X150715789Y-71203079D01*
X150687535Y-71181928D01*
X150637363Y-71131756D01*
X150637358Y-71131752D01*
X150459025Y-71002187D01*
X150459024Y-71002186D01*
X150459022Y-71002185D01*
X150378411Y-70961111D01*
X150262606Y-70902104D01*
X150262603Y-70902103D01*
X150052952Y-70833985D01*
X149944086Y-70816742D01*
X149835222Y-70799500D01*
X149614778Y-70799500D01*
X149542201Y-70810995D01*
X149397047Y-70833985D01*
X149187396Y-70902103D01*
X149187393Y-70902104D01*
X148990974Y-71002187D01*
X148812641Y-71131752D01*
X148812636Y-71131756D01*
X148656756Y-71287636D01*
X148656752Y-71287641D01*
X148527187Y-71465974D01*
X148427104Y-71662393D01*
X148427103Y-71662396D01*
X148358985Y-71872047D01*
X148324500Y-72089778D01*
X148324500Y-72310221D01*
X148358985Y-72527952D01*
X148427103Y-72737603D01*
X148427104Y-72737606D01*
X148527187Y-72934025D01*
X148656752Y-73112358D01*
X148656756Y-73112363D01*
X148812636Y-73268243D01*
X148812641Y-73268247D01*
X148968192Y-73381260D01*
X148990978Y-73397815D01*
X149119375Y-73463237D01*
X149187393Y-73497895D01*
X149187396Y-73497896D01*
X149292221Y-73531955D01*
X149397049Y-73566015D01*
X149614778Y-73600500D01*
X149614779Y-73600500D01*
X149835221Y-73600500D01*
X149835222Y-73600500D01*
X150052951Y-73566015D01*
X150262606Y-73497895D01*
X150459022Y-73397815D01*
X150637365Y-73268242D01*
X150687536Y-73218070D01*
X150748857Y-73184586D01*
X150818548Y-73189570D01*
X150874482Y-73231441D01*
X150891398Y-73262419D01*
X150921202Y-73342328D01*
X150921206Y-73342335D01*
X151007452Y-73457544D01*
X151007455Y-73457547D01*
X151122664Y-73543793D01*
X151122671Y-73543797D01*
X151167618Y-73560561D01*
X151257517Y-73594091D01*
X151317127Y-73600500D01*
X151540500Y-73600499D01*
X151607539Y-73620183D01*
X151653294Y-73672987D01*
X151664500Y-73724499D01*
X151664500Y-74059902D01*
X151644815Y-74126941D01*
X151628181Y-74147583D01*
X147149202Y-78626561D01*
X147087879Y-78660046D01*
X147023203Y-78656811D01*
X146998584Y-78648812D01*
X146952952Y-78633985D01*
X146844086Y-78616742D01*
X146735222Y-78599500D01*
X146514778Y-78599500D01*
X146442201Y-78610995D01*
X146297047Y-78633985D01*
X146087396Y-78702103D01*
X146087393Y-78702104D01*
X145890974Y-78802187D01*
X145712641Y-78931752D01*
X145712636Y-78931756D01*
X145556756Y-79087636D01*
X145556752Y-79087641D01*
X145427187Y-79265974D01*
X145327104Y-79462393D01*
X145327103Y-79462396D01*
X145258985Y-79672047D01*
X145224500Y-79889778D01*
X145224500Y-80110221D01*
X145258985Y-80327952D01*
X145327103Y-80537603D01*
X145327104Y-80537606D01*
X145380341Y-80642086D01*
X145408736Y-80697815D01*
X145427187Y-80734025D01*
X145556752Y-80912358D01*
X145556756Y-80912363D01*
X145712636Y-81068243D01*
X145712641Y-81068247D01*
X145868192Y-81181260D01*
X145890978Y-81197815D01*
X146019375Y-81263237D01*
X146087393Y-81297895D01*
X146087396Y-81297896D01*
X146192221Y-81331955D01*
X146297049Y-81366015D01*
X146514778Y-81400500D01*
X146514779Y-81400500D01*
X146735221Y-81400500D01*
X146735222Y-81400500D01*
X146952951Y-81366015D01*
X147162606Y-81297895D01*
X147359022Y-81197815D01*
X147537365Y-81068242D01*
X147587536Y-81018070D01*
X147648857Y-80984586D01*
X147718548Y-80989570D01*
X147774482Y-81031441D01*
X147791398Y-81062419D01*
X147821202Y-81142328D01*
X147821206Y-81142335D01*
X147907452Y-81257544D01*
X147907455Y-81257547D01*
X148022664Y-81343793D01*
X148022671Y-81343797D01*
X148066372Y-81360096D01*
X148157517Y-81394091D01*
X148217127Y-81400500D01*
X148440500Y-81400499D01*
X148507539Y-81420183D01*
X148553294Y-81472987D01*
X148564500Y-81524499D01*
X148564500Y-82099902D01*
X148544815Y-82166941D01*
X148528181Y-82187583D01*
X144589202Y-86126561D01*
X144527879Y-86160046D01*
X144463203Y-86156811D01*
X144431115Y-86146385D01*
X144392952Y-86133985D01*
X144245279Y-86110596D01*
X144175222Y-86099500D01*
X143954778Y-86099500D01*
X143884721Y-86110596D01*
X143737047Y-86133985D01*
X143527396Y-86202103D01*
X143527393Y-86202104D01*
X143330974Y-86302187D01*
X143152641Y-86431752D01*
X143152636Y-86431756D01*
X142996756Y-86587636D01*
X142996752Y-86587641D01*
X142867187Y-86765974D01*
X142767104Y-86962393D01*
X142767103Y-86962396D01*
X142698985Y-87172047D01*
X142664500Y-87389778D01*
X118730000Y-87389778D01*
X118730000Y-87340756D01*
X118699333Y-87226306D01*
X118655278Y-87150000D01*
X119680000Y-87150000D01*
X119680000Y-86452172D01*
X119679999Y-86452155D01*
X119673598Y-86392627D01*
X119673596Y-86392620D01*
X119623354Y-86257913D01*
X119623350Y-86257906D01*
X119537190Y-86142812D01*
X119537187Y-86142809D01*
X119422093Y-86056649D01*
X119422086Y-86056645D01*
X119287379Y-86006403D01*
X119287372Y-86006401D01*
X119227844Y-86000000D01*
X118530000Y-86000000D01*
X118530000Y-87024722D01*
X118453694Y-86980667D01*
X118339244Y-86950000D01*
X118220756Y-86950000D01*
X118106306Y-86980667D01*
X118030000Y-87024722D01*
X118030000Y-86000000D01*
X117332155Y-86000000D01*
X117272627Y-86006401D01*
X117272620Y-86006403D01*
X117137913Y-86056645D01*
X117137906Y-86056649D01*
X117022812Y-86142809D01*
X117022809Y-86142812D01*
X116936649Y-86257906D01*
X116936643Y-86257918D01*
X116906785Y-86337969D01*
X116864914Y-86393903D01*
X116799449Y-86418319D01*
X116731176Y-86403467D01*
X116702923Y-86382316D01*
X116652363Y-86331756D01*
X116652358Y-86331752D01*
X116474025Y-86202187D01*
X116474024Y-86202186D01*
X116474022Y-86202185D01*
X116411096Y-86170122D01*
X116277606Y-86102104D01*
X116277603Y-86102103D01*
X116067952Y-86033985D01*
X115959086Y-86016742D01*
X115850222Y-85999500D01*
X115629778Y-85999500D01*
X115557201Y-86010995D01*
X115412047Y-86033985D01*
X115202396Y-86102103D01*
X115202393Y-86102104D01*
X115005974Y-86202187D01*
X114827641Y-86331752D01*
X114827636Y-86331756D01*
X114671756Y-86487636D01*
X114671752Y-86487641D01*
X114542187Y-86665974D01*
X114442104Y-86862393D01*
X114442103Y-86862396D01*
X114373985Y-87072047D01*
X114354092Y-87197648D01*
X114339500Y-87289778D01*
X114339500Y-87510222D01*
X114356742Y-87619086D01*
X114373985Y-87727952D01*
X114396811Y-87798203D01*
X114398806Y-87868044D01*
X114366561Y-87924202D01*
X113771286Y-88519478D01*
X113659481Y-88631282D01*
X113659479Y-88631285D01*
X113634420Y-88674689D01*
X113621023Y-88697895D01*
X113609361Y-88718094D01*
X113609359Y-88718096D01*
X113580425Y-88768209D01*
X113580424Y-88768210D01*
X113572470Y-88797895D01*
X113539499Y-88920943D01*
X113539499Y-88920945D01*
X113539499Y-89089046D01*
X113539500Y-89089059D01*
X113539500Y-93175500D01*
X113519815Y-93242539D01*
X113467011Y-93288294D01*
X113415501Y-93299500D01*
X113192130Y-93299500D01*
X113192123Y-93299501D01*
X113132516Y-93305908D01*
X112997671Y-93356202D01*
X112997664Y-93356206D01*
X112882455Y-93442452D01*
X112882452Y-93442455D01*
X112796206Y-93557664D01*
X112796203Y-93557669D01*
X112766398Y-93637581D01*
X112724526Y-93693514D01*
X112659062Y-93717931D01*
X112590789Y-93703079D01*
X112562535Y-93681928D01*
X112512363Y-93631756D01*
X112512358Y-93631752D01*
X112334025Y-93502187D01*
X112334024Y-93502186D01*
X112334022Y-93502185D01*
X112271096Y-93470122D01*
X112137606Y-93402104D01*
X112137603Y-93402103D01*
X111927952Y-93333985D01*
X111819086Y-93316742D01*
X111710222Y-93299500D01*
X111489778Y-93299500D01*
X111417201Y-93310995D01*
X111272047Y-93333985D01*
X111062396Y-93402103D01*
X111062393Y-93402104D01*
X110865974Y-93502187D01*
X110687641Y-93631752D01*
X110687636Y-93631756D01*
X110531756Y-93787636D01*
X110531752Y-93787641D01*
X110402187Y-93965974D01*
X110302104Y-94162393D01*
X110302103Y-94162396D01*
X110233985Y-94372047D01*
X110215665Y-94487715D01*
X110199500Y-94589778D01*
X107640499Y-94589778D01*
X107640499Y-93652128D01*
X107634091Y-93592517D01*
X107621094Y-93557671D01*
X107583797Y-93457671D01*
X107583793Y-93457664D01*
X107497547Y-93342455D01*
X107497544Y-93342452D01*
X107382335Y-93256206D01*
X107382328Y-93256202D01*
X107247482Y-93205908D01*
X107247483Y-93205908D01*
X107187883Y-93199501D01*
X107187881Y-93199500D01*
X107187873Y-93199500D01*
X107187865Y-93199500D01*
X106964500Y-93199500D01*
X106897461Y-93179815D01*
X106851706Y-93127011D01*
X106840500Y-93075500D01*
X106840500Y-88660096D01*
X106860185Y-88593057D01*
X106876815Y-88572419D01*
X107075797Y-88373436D01*
X107137118Y-88339953D01*
X107201794Y-88343188D01*
X107216072Y-88347827D01*
X107272049Y-88366015D01*
X107489778Y-88400500D01*
X107489779Y-88400500D01*
X107710221Y-88400500D01*
X107710222Y-88400500D01*
X107927951Y-88366015D01*
X108137606Y-88297895D01*
X108334022Y-88197815D01*
X108512365Y-88068242D01*
X108562536Y-88018070D01*
X108623857Y-87984586D01*
X108693548Y-87989570D01*
X108749482Y-88031441D01*
X108766398Y-88062419D01*
X108796202Y-88142328D01*
X108796206Y-88142335D01*
X108882452Y-88257544D01*
X108882455Y-88257547D01*
X108997664Y-88343793D01*
X108997671Y-88343797D01*
X109132517Y-88394091D01*
X109132516Y-88394091D01*
X109139444Y-88394835D01*
X109192127Y-88400500D01*
X111087872Y-88400499D01*
X111147483Y-88394091D01*
X111282331Y-88343796D01*
X111397546Y-88257546D01*
X111483796Y-88142331D01*
X111534091Y-88007483D01*
X111540500Y-87947873D01*
X111540499Y-86052128D01*
X111534091Y-85992517D01*
X111513601Y-85937581D01*
X111483797Y-85857671D01*
X111483793Y-85857664D01*
X111397547Y-85742455D01*
X111397544Y-85742452D01*
X111282335Y-85656206D01*
X111282328Y-85656202D01*
X111147482Y-85605908D01*
X111147483Y-85605908D01*
X111087883Y-85599501D01*
X111087881Y-85599500D01*
X111087873Y-85599500D01*
X111087865Y-85599500D01*
X110864500Y-85599500D01*
X110797461Y-85579815D01*
X110751706Y-85527011D01*
X110740500Y-85475500D01*
X110740500Y-81360096D01*
X110760185Y-81293057D01*
X110776815Y-81272419D01*
X111175797Y-80873436D01*
X111237118Y-80839953D01*
X111301794Y-80843188D01*
X111372049Y-80866015D01*
X111589778Y-80900500D01*
X111589779Y-80900500D01*
X111810221Y-80900500D01*
X111810222Y-80900500D01*
X112027951Y-80866015D01*
X112237606Y-80797895D01*
X112434022Y-80697815D01*
X112612365Y-80568242D01*
X112662924Y-80517682D01*
X112724245Y-80484198D01*
X112793936Y-80489182D01*
X112849870Y-80531053D01*
X112866786Y-80562030D01*
X112896646Y-80642087D01*
X112896649Y-80642093D01*
X112982809Y-80757187D01*
X112982812Y-80757190D01*
X113097906Y-80843350D01*
X113097913Y-80843354D01*
X113232620Y-80893596D01*
X113232627Y-80893598D01*
X113292155Y-80899999D01*
X113292172Y-80900000D01*
X113990000Y-80900000D01*
X113990000Y-79875277D01*
X114066306Y-79919333D01*
X114180756Y-79950000D01*
X114299244Y-79950000D01*
X114413694Y-79919333D01*
X114490000Y-79875277D01*
X114490000Y-80900000D01*
X115187828Y-80900000D01*
X115187844Y-80899999D01*
X115247372Y-80893598D01*
X115247379Y-80893596D01*
X115382086Y-80843354D01*
X115382093Y-80843350D01*
X115497187Y-80757190D01*
X115497190Y-80757187D01*
X115583350Y-80642093D01*
X115583354Y-80642086D01*
X115633596Y-80507379D01*
X115633598Y-80507372D01*
X115639999Y-80447844D01*
X115640000Y-80447827D01*
X115640000Y-79889778D01*
X118439500Y-79889778D01*
X118439500Y-80110221D01*
X118473985Y-80327952D01*
X118542103Y-80537603D01*
X118542104Y-80537606D01*
X118595341Y-80642086D01*
X118623736Y-80697815D01*
X118642187Y-80734025D01*
X118771752Y-80912358D01*
X118771756Y-80912363D01*
X118927636Y-81068243D01*
X118927641Y-81068247D01*
X119083192Y-81181260D01*
X119105978Y-81197815D01*
X119234375Y-81263237D01*
X119302393Y-81297895D01*
X119302396Y-81297896D01*
X119407221Y-81331955D01*
X119512049Y-81366015D01*
X119729778Y-81400500D01*
X119729779Y-81400500D01*
X119950221Y-81400500D01*
X119950222Y-81400500D01*
X120167951Y-81366015D01*
X120377606Y-81297895D01*
X120574022Y-81197815D01*
X120752365Y-81068242D01*
X120802536Y-81018070D01*
X120863857Y-80984586D01*
X120933548Y-80989570D01*
X120989482Y-81031441D01*
X121006398Y-81062419D01*
X121036202Y-81142328D01*
X121036206Y-81142335D01*
X121122452Y-81257544D01*
X121122455Y-81257547D01*
X121237664Y-81343793D01*
X121237671Y-81343797D01*
X121372517Y-81394091D01*
X121372516Y-81394091D01*
X121379444Y-81394835D01*
X121432127Y-81400500D01*
X123327872Y-81400499D01*
X123387483Y-81394091D01*
X123522331Y-81343796D01*
X123637546Y-81257546D01*
X123723796Y-81142331D01*
X123774091Y-81007483D01*
X123780500Y-80947873D01*
X123780499Y-79052128D01*
X123774091Y-78992517D01*
X123764388Y-78966503D01*
X123723797Y-78857671D01*
X123723793Y-78857664D01*
X123637547Y-78742455D01*
X123637544Y-78742452D01*
X123522335Y-78656206D01*
X123522328Y-78656202D01*
X123387482Y-78605908D01*
X123387483Y-78605908D01*
X123327883Y-78599501D01*
X123327881Y-78599500D01*
X123327873Y-78599500D01*
X123327865Y-78599500D01*
X123104500Y-78599500D01*
X123037461Y-78579815D01*
X122991706Y-78527011D01*
X122980500Y-78475500D01*
X122980500Y-74460096D01*
X123000185Y-74393057D01*
X123016815Y-74372419D01*
X123915797Y-73473436D01*
X123977118Y-73439953D01*
X124041794Y-73443188D01*
X124061051Y-73449444D01*
X124112049Y-73466015D01*
X124329778Y-73500500D01*
X124329779Y-73500500D01*
X124550221Y-73500500D01*
X124550222Y-73500500D01*
X124767951Y-73466015D01*
X124977606Y-73397895D01*
X125174022Y-73297815D01*
X125352365Y-73168242D01*
X125402536Y-73118070D01*
X125463857Y-73084586D01*
X125533548Y-73089570D01*
X125589482Y-73131441D01*
X125606398Y-73162419D01*
X125636202Y-73242328D01*
X125636206Y-73242335D01*
X125722452Y-73357544D01*
X125722455Y-73357547D01*
X125837664Y-73443793D01*
X125837671Y-73443797D01*
X125972517Y-73494091D01*
X125972516Y-73494091D01*
X125979444Y-73494835D01*
X126032127Y-73500500D01*
X127927872Y-73500499D01*
X127987483Y-73494091D01*
X128122331Y-73443796D01*
X128237546Y-73357546D01*
X128323796Y-73242331D01*
X128374091Y-73107483D01*
X128380500Y-73047873D01*
X128380500Y-72824500D01*
X128400185Y-72757461D01*
X128452989Y-72711706D01*
X128504500Y-72700500D01*
X130547211Y-72700500D01*
X130614250Y-72720185D01*
X130657696Y-72768205D01*
X130742187Y-72934025D01*
X130871752Y-73112358D01*
X130871756Y-73112363D01*
X131027636Y-73268243D01*
X131027641Y-73268247D01*
X131183192Y-73381260D01*
X131205978Y-73397815D01*
X131334375Y-73463237D01*
X131402393Y-73497895D01*
X131402396Y-73497896D01*
X131507221Y-73531955D01*
X131612049Y-73566015D01*
X131829778Y-73600500D01*
X131829779Y-73600500D01*
X132050221Y-73600500D01*
X132050222Y-73600500D01*
X132267951Y-73566015D01*
X132477606Y-73497895D01*
X132674022Y-73397815D01*
X132852365Y-73268242D01*
X132902924Y-73217682D01*
X132964245Y-73184198D01*
X133033936Y-73189182D01*
X133089870Y-73231053D01*
X133106786Y-73262030D01*
X133136646Y-73342087D01*
X133136649Y-73342093D01*
X133222809Y-73457187D01*
X133222812Y-73457190D01*
X133337906Y-73543350D01*
X133337913Y-73543354D01*
X133472620Y-73593596D01*
X133472627Y-73593598D01*
X133532155Y-73599999D01*
X133532172Y-73600000D01*
X134230000Y-73600000D01*
X134230000Y-72575277D01*
X134306306Y-72619333D01*
X134420756Y-72650000D01*
X134539244Y-72650000D01*
X134653694Y-72619333D01*
X134730000Y-72575277D01*
X134730000Y-73600000D01*
X135427828Y-73600000D01*
X135427844Y-73599999D01*
X135487372Y-73593598D01*
X135487379Y-73593596D01*
X135622086Y-73543354D01*
X135622093Y-73543350D01*
X135737187Y-73457190D01*
X135737190Y-73457187D01*
X135823350Y-73342093D01*
X135823354Y-73342086D01*
X135873596Y-73207379D01*
X135873598Y-73207372D01*
X135879999Y-73147844D01*
X135880000Y-73147827D01*
X135880000Y-72450000D01*
X134855278Y-72450000D01*
X134899333Y-72373694D01*
X134930000Y-72259244D01*
X134930000Y-72140756D01*
X134899333Y-72026306D01*
X134855278Y-71950000D01*
X135880000Y-71950000D01*
X135880000Y-71252172D01*
X135879999Y-71252155D01*
X135873598Y-71192627D01*
X135873596Y-71192620D01*
X135823354Y-71057913D01*
X135823350Y-71057906D01*
X135737190Y-70942812D01*
X135737187Y-70942809D01*
X135622093Y-70856649D01*
X135622086Y-70856645D01*
X135487379Y-70806403D01*
X135487372Y-70806401D01*
X135427844Y-70800000D01*
X134730000Y-70800000D01*
X134730000Y-71824722D01*
X134653694Y-71780667D01*
X134539244Y-71750000D01*
X134420756Y-71750000D01*
X134306306Y-71780667D01*
X134230000Y-71824722D01*
X134230000Y-70800000D01*
X133532155Y-70800000D01*
X133472627Y-70806401D01*
X133472620Y-70806403D01*
X133337913Y-70856645D01*
X133337906Y-70856649D01*
X133222812Y-70942809D01*
X133222809Y-70942812D01*
X133136649Y-71057906D01*
X133136643Y-71057918D01*
X133106785Y-71137969D01*
X133064914Y-71193903D01*
X132999449Y-71218319D01*
X132931176Y-71203467D01*
X132902923Y-71182316D01*
X132852363Y-71131756D01*
X132852358Y-71131752D01*
X132674025Y-71002187D01*
X132674024Y-71002186D01*
X132674022Y-71002185D01*
X132593411Y-70961111D01*
X132477606Y-70902104D01*
X132477603Y-70902103D01*
X132267952Y-70833985D01*
X132159086Y-70816742D01*
X132050222Y-70799500D01*
X131829778Y-70799500D01*
X131757201Y-70810995D01*
X131612047Y-70833985D01*
X131402396Y-70902103D01*
X131402393Y-70902104D01*
X131205974Y-71002187D01*
X131027641Y-71131752D01*
X131027636Y-71131756D01*
X130871758Y-71287634D01*
X130822997Y-71354747D01*
X130754965Y-71448386D01*
X130699638Y-71491051D01*
X130654649Y-71499500D01*
X128504499Y-71499500D01*
X128437460Y-71479815D01*
X128391705Y-71427011D01*
X128380499Y-71375500D01*
X128380499Y-71152129D01*
X128380498Y-71152123D01*
X128378308Y-71131752D01*
X128374091Y-71092517D01*
X128374090Y-71092515D01*
X128323797Y-70957671D01*
X128323793Y-70957664D01*
X128237547Y-70842455D01*
X128237544Y-70842452D01*
X128122335Y-70756206D01*
X128122328Y-70756202D01*
X127987482Y-70705908D01*
X127987483Y-70705908D01*
X127927883Y-70699501D01*
X127927881Y-70699500D01*
X127927873Y-70699500D01*
X127927864Y-70699500D01*
X126032129Y-70699500D01*
X126032123Y-70699501D01*
X125972516Y-70705908D01*
X125837671Y-70756202D01*
X125837664Y-70756206D01*
X125722455Y-70842452D01*
X125722452Y-70842455D01*
X125636206Y-70957664D01*
X125636203Y-70957669D01*
X125606398Y-71037581D01*
X125564526Y-71093514D01*
X125499062Y-71117931D01*
X125430789Y-71103079D01*
X125402535Y-71081928D01*
X125352363Y-71031756D01*
X125352358Y-71031752D01*
X125174025Y-70902187D01*
X125174024Y-70902186D01*
X125174022Y-70902185D01*
X125083784Y-70856206D01*
X124977606Y-70802104D01*
X124977603Y-70802103D01*
X124767952Y-70733985D01*
X124659086Y-70716742D01*
X124550222Y-70699500D01*
X124329778Y-70699500D01*
X124257201Y-70710995D01*
X124112047Y-70733985D01*
X123902396Y-70802103D01*
X123902393Y-70802104D01*
X123705974Y-70902187D01*
X123527641Y-71031752D01*
X123527636Y-71031756D01*
X123371756Y-71187636D01*
X123371752Y-71187641D01*
X123242187Y-71365974D01*
X123142104Y-71562393D01*
X123142103Y-71562396D01*
X123073985Y-71772047D01*
X123056485Y-71882539D01*
X123039500Y-71989778D01*
X123039500Y-72210222D01*
X123056742Y-72319086D01*
X123073985Y-72427952D01*
X123096811Y-72498203D01*
X123098806Y-72568044D01*
X123066561Y-72624202D01*
X122013786Y-73676977D01*
X122013777Y-73676986D01*
X122011286Y-73679478D01*
X122011284Y-73679480D01*
X121899480Y-73791284D01*
X121883201Y-73819481D01*
X121876832Y-73830511D01*
X121876832Y-73830512D01*
X121820424Y-73928213D01*
X121820423Y-73928215D01*
X121779499Y-74080943D01*
X121779499Y-74080945D01*
X121779499Y-74249046D01*
X121779500Y-74249059D01*
X121779500Y-78475500D01*
X121759815Y-78542539D01*
X121707011Y-78588294D01*
X121655501Y-78599500D01*
X121432130Y-78599500D01*
X121432123Y-78599501D01*
X121372516Y-78605908D01*
X121237671Y-78656202D01*
X121237664Y-78656206D01*
X121122455Y-78742452D01*
X121122452Y-78742455D01*
X121036206Y-78857664D01*
X121036203Y-78857669D01*
X121006398Y-78937581D01*
X120964526Y-78993514D01*
X120899062Y-79017931D01*
X120830789Y-79003079D01*
X120802535Y-78981928D01*
X120752363Y-78931756D01*
X120752358Y-78931752D01*
X120574025Y-78802187D01*
X120574024Y-78802186D01*
X120574022Y-78802185D01*
X120456791Y-78742452D01*
X120377606Y-78702104D01*
X120377603Y-78702103D01*
X120167952Y-78633985D01*
X120059086Y-78616742D01*
X119950222Y-78599500D01*
X119729778Y-78599500D01*
X119657201Y-78610995D01*
X119512047Y-78633985D01*
X119302396Y-78702103D01*
X119302393Y-78702104D01*
X119105974Y-78802187D01*
X118927641Y-78931752D01*
X118927636Y-78931756D01*
X118771756Y-79087636D01*
X118771752Y-79087641D01*
X118642187Y-79265974D01*
X118542104Y-79462393D01*
X118542103Y-79462396D01*
X118473985Y-79672047D01*
X118439500Y-79889778D01*
X115640000Y-79889778D01*
X115640000Y-79750000D01*
X114615278Y-79750000D01*
X114659333Y-79673694D01*
X114690000Y-79559244D01*
X114690000Y-79440756D01*
X114659333Y-79326306D01*
X114615278Y-79250000D01*
X115640000Y-79250000D01*
X115640000Y-78552172D01*
X115639999Y-78552155D01*
X115633598Y-78492627D01*
X115633596Y-78492620D01*
X115583354Y-78357913D01*
X115583350Y-78357906D01*
X115497190Y-78242812D01*
X115497187Y-78242809D01*
X115382093Y-78156649D01*
X115382086Y-78156645D01*
X115247379Y-78106403D01*
X115247372Y-78106401D01*
X115187844Y-78100000D01*
X114490000Y-78100000D01*
X114490000Y-79124722D01*
X114413694Y-79080667D01*
X114299244Y-79050000D01*
X114180756Y-79050000D01*
X114066306Y-79080667D01*
X113990000Y-79124722D01*
X113990000Y-78100000D01*
X113292155Y-78100000D01*
X113232627Y-78106401D01*
X113232620Y-78106403D01*
X113097913Y-78156645D01*
X113097906Y-78156649D01*
X112982812Y-78242809D01*
X112982809Y-78242812D01*
X112896649Y-78357906D01*
X112896643Y-78357918D01*
X112866785Y-78437969D01*
X112824914Y-78493903D01*
X112759449Y-78518319D01*
X112691176Y-78503467D01*
X112662923Y-78482316D01*
X112612363Y-78431756D01*
X112612358Y-78431752D01*
X112434025Y-78302187D01*
X112434024Y-78302186D01*
X112434022Y-78302185D01*
X112371096Y-78270122D01*
X112237606Y-78202104D01*
X112237603Y-78202103D01*
X112027952Y-78133985D01*
X111919086Y-78116742D01*
X111810222Y-78099500D01*
X111589778Y-78099500D01*
X111517201Y-78110995D01*
X111372047Y-78133985D01*
X111162396Y-78202103D01*
X111162393Y-78202104D01*
X110965974Y-78302187D01*
X110787641Y-78431752D01*
X110787636Y-78431756D01*
X110631756Y-78587636D01*
X110631752Y-78587641D01*
X110502187Y-78765974D01*
X110402104Y-78962393D01*
X110402103Y-78962396D01*
X110333985Y-79172047D01*
X110317070Y-79278846D01*
X110299500Y-79389778D01*
X110299500Y-79610222D01*
X110309553Y-79673694D01*
X110333008Y-79821786D01*
X110333985Y-79827951D01*
X110354073Y-79889778D01*
X110356811Y-79898203D01*
X110358806Y-79968044D01*
X110326561Y-80024202D01*
X109771286Y-80579478D01*
X109659481Y-80691282D01*
X109659480Y-80691284D01*
X109621430Y-80757190D01*
X109609361Y-80778094D01*
X109609359Y-80778096D01*
X109580425Y-80828209D01*
X109580424Y-80828210D01*
X109576366Y-80843354D01*
X109539499Y-80980943D01*
X109539499Y-80980945D01*
X109539499Y-81149046D01*
X109539500Y-81149059D01*
X109539500Y-82271433D01*
X109519815Y-82338472D01*
X109467011Y-82384227D01*
X109397853Y-82394171D01*
X109368048Y-82385995D01*
X109329887Y-82370189D01*
X109233497Y-82330263D01*
X109233492Y-82330262D01*
X109233489Y-82330261D01*
X109078845Y-82299500D01*
X109078842Y-82299500D01*
X108921158Y-82299500D01*
X108921155Y-82299500D01*
X108766510Y-82330261D01*
X108766498Y-82330264D01*
X108620827Y-82390602D01*
X108620814Y-82390609D01*
X108489125Y-82478602D01*
X108422447Y-82499480D01*
X108420234Y-82499500D01*
X107500097Y-82499500D01*
X107433058Y-82479815D01*
X107412416Y-82463181D01*
X104134574Y-79185339D01*
X104101089Y-79124016D01*
X104100638Y-79121849D01*
X104075110Y-78993514D01*
X104069737Y-78966503D01*
X104055345Y-78931758D01*
X104009397Y-78820827D01*
X104009390Y-78820814D01*
X103921789Y-78689711D01*
X103921786Y-78689707D01*
X103810292Y-78578213D01*
X103810288Y-78578210D01*
X103679185Y-78490609D01*
X103679172Y-78490602D01*
X103533501Y-78430264D01*
X103533489Y-78430261D01*
X103378845Y-78399500D01*
X103378842Y-78399500D01*
X103221158Y-78399500D01*
X103221155Y-78399500D01*
X103066510Y-78430261D01*
X103066498Y-78430264D01*
X102920827Y-78490602D01*
X102920814Y-78490609D01*
X102789711Y-78578210D01*
X102789707Y-78578213D01*
X102678213Y-78689707D01*
X102678210Y-78689711D01*
X102590609Y-78820814D01*
X102590602Y-78820827D01*
X102530264Y-78966498D01*
X102530261Y-78966510D01*
X102499500Y-79121153D01*
X102499500Y-79278846D01*
X102530261Y-79433489D01*
X102530264Y-79433501D01*
X102590602Y-79579172D01*
X102590609Y-79579185D01*
X102678210Y-79710288D01*
X102678213Y-79710292D01*
X102789707Y-79821786D01*
X102789711Y-79821789D01*
X102920814Y-79909390D01*
X102920827Y-79909397D01*
X103018853Y-79950000D01*
X103066503Y-79969737D01*
X103131147Y-79982595D01*
X103221849Y-80000638D01*
X103283760Y-80033023D01*
X103285339Y-80034574D01*
X106715139Y-83464374D01*
X106715149Y-83464385D01*
X106719479Y-83468715D01*
X106719480Y-83468716D01*
X106831284Y-83580520D01*
X106872879Y-83604534D01*
X106918095Y-83630639D01*
X106918097Y-83630641D01*
X106956151Y-83652611D01*
X106968215Y-83659577D01*
X107120943Y-83700501D01*
X107120946Y-83700501D01*
X107286653Y-83700501D01*
X107286669Y-83700500D01*
X108420234Y-83700500D01*
X108487273Y-83720185D01*
X108489125Y-83721398D01*
X108620814Y-83809390D01*
X108620827Y-83809397D01*
X108766498Y-83869735D01*
X108766503Y-83869737D01*
X108908087Y-83897900D01*
X108921153Y-83900499D01*
X108921156Y-83900500D01*
X108921158Y-83900500D01*
X109078844Y-83900500D01*
X109078845Y-83900499D01*
X109233497Y-83869737D01*
X109310574Y-83837811D01*
X109368048Y-83814005D01*
X109437517Y-83806536D01*
X109499996Y-83837811D01*
X109535648Y-83897900D01*
X109539500Y-83928566D01*
X109539500Y-85475500D01*
X109519815Y-85542539D01*
X109467011Y-85588294D01*
X109415501Y-85599500D01*
X109192130Y-85599500D01*
X109192123Y-85599501D01*
X109132516Y-85605908D01*
X108997671Y-85656202D01*
X108997664Y-85656206D01*
X108882455Y-85742452D01*
X108882452Y-85742455D01*
X108796206Y-85857664D01*
X108796203Y-85857669D01*
X108766398Y-85937581D01*
X108724526Y-85993514D01*
X108659062Y-86017931D01*
X108590789Y-86003079D01*
X108562535Y-85981928D01*
X108512363Y-85931756D01*
X108512358Y-85931752D01*
X108334025Y-85802187D01*
X108334024Y-85802186D01*
X108334022Y-85802185D01*
X108216791Y-85742452D01*
X108137606Y-85702104D01*
X108137603Y-85702103D01*
X107927952Y-85633985D01*
X107819086Y-85616742D01*
X107710222Y-85599500D01*
X107489778Y-85599500D01*
X107417201Y-85610995D01*
X107272047Y-85633985D01*
X107062396Y-85702103D01*
X107062393Y-85702104D01*
X106865974Y-85802187D01*
X106687641Y-85931752D01*
X106687636Y-85931756D01*
X106531756Y-86087636D01*
X106531752Y-86087641D01*
X106402187Y-86265974D01*
X106302104Y-86462393D01*
X106302103Y-86462396D01*
X106233985Y-86672047D01*
X106213596Y-86800781D01*
X106199500Y-86889778D01*
X106199500Y-87110222D01*
X106213347Y-87197648D01*
X106233985Y-87327952D01*
X106248812Y-87373584D01*
X106254073Y-87389778D01*
X106256811Y-87398203D01*
X106258806Y-87468044D01*
X106226561Y-87524202D01*
X105871286Y-87879478D01*
X105759481Y-87991282D01*
X105759475Y-87991290D01*
X105715049Y-88068240D01*
X105715049Y-88068242D01*
X105680423Y-88128214D01*
X105676639Y-88142335D01*
X105639499Y-88280943D01*
X105639499Y-88280945D01*
X105639499Y-88449046D01*
X105639500Y-88449059D01*
X105639500Y-93075500D01*
X105619815Y-93142539D01*
X105567011Y-93188294D01*
X105515501Y-93199500D01*
X105292130Y-93199500D01*
X105292123Y-93199501D01*
X105232516Y-93205908D01*
X105097671Y-93256202D01*
X105097664Y-93256206D01*
X104982455Y-93342452D01*
X104982452Y-93342455D01*
X104896206Y-93457664D01*
X104896203Y-93457669D01*
X104866398Y-93537581D01*
X104824526Y-93593514D01*
X104759062Y-93617931D01*
X104690789Y-93603079D01*
X104662535Y-93581928D01*
X104612363Y-93531756D01*
X104612358Y-93531752D01*
X104434025Y-93402187D01*
X104434024Y-93402186D01*
X104434022Y-93402185D01*
X104343784Y-93356206D01*
X104237606Y-93302104D01*
X104237603Y-93302103D01*
X104027952Y-93233985D01*
X103919086Y-93216742D01*
X103810222Y-93199500D01*
X103589778Y-93199500D01*
X103517201Y-93210995D01*
X103372047Y-93233985D01*
X103162396Y-93302103D01*
X103162393Y-93302104D01*
X102965974Y-93402187D01*
X102787641Y-93531752D01*
X102787636Y-93531756D01*
X102631756Y-93687636D01*
X102631752Y-93687641D01*
X102502187Y-93865974D01*
X102402104Y-94062393D01*
X102402103Y-94062396D01*
X102333985Y-94272047D01*
X102314546Y-94394780D01*
X102299500Y-94489778D01*
X74594453Y-94489778D01*
X74591609Y-94487712D01*
X74409223Y-94394781D01*
X74214534Y-94331522D01*
X74039995Y-94303878D01*
X74012352Y-94299500D01*
X73807648Y-94299500D01*
X73783329Y-94303351D01*
X73605465Y-94331522D01*
X73410776Y-94394781D01*
X73228386Y-94487715D01*
X73062786Y-94608028D01*
X72918028Y-94752786D01*
X72797715Y-94918386D01*
X72704781Y-95100776D01*
X72641522Y-95295465D01*
X72609500Y-95497648D01*
X67590500Y-95497648D01*
X67580423Y-95434025D01*
X67558477Y-95295465D01*
X67529127Y-95205137D01*
X67495220Y-95100781D01*
X67495218Y-95100778D01*
X67495218Y-95100776D01*
X67458111Y-95027951D01*
X67402287Y-94918390D01*
X67394556Y-94907749D01*
X67281971Y-94752786D01*
X67137213Y-94608028D01*
X66971610Y-94487712D01*
X66958200Y-94480879D01*
X66907406Y-94432903D01*
X66890500Y-94370397D01*
X66890500Y-92575459D01*
X66910185Y-92508420D01*
X66958203Y-92464975D01*
X67061610Y-92412287D01*
X67121617Y-92368690D01*
X67227213Y-92291971D01*
X67227215Y-92291968D01*
X67227219Y-92291966D01*
X67371966Y-92147219D01*
X67371968Y-92147215D01*
X67371971Y-92147213D01*
X67424732Y-92074590D01*
X67492287Y-91981610D01*
X67585220Y-91799219D01*
X67648477Y-91604534D01*
X67680500Y-91402352D01*
X67680500Y-91197648D01*
X72699500Y-91197648D01*
X72699500Y-91402351D01*
X72731522Y-91604534D01*
X72794781Y-91799223D01*
X72887715Y-91981613D01*
X73008028Y-92147213D01*
X73152786Y-92291971D01*
X73258383Y-92368690D01*
X73318390Y-92412287D01*
X73421794Y-92464974D01*
X73500776Y-92505218D01*
X73500778Y-92505218D01*
X73500781Y-92505220D01*
X73605137Y-92539127D01*
X73695465Y-92568477D01*
X73796557Y-92584488D01*
X73897648Y-92600500D01*
X73897649Y-92600500D01*
X74102351Y-92600500D01*
X74102352Y-92600500D01*
X74304534Y-92568477D01*
X74499219Y-92505220D01*
X74681610Y-92412287D01*
X74774590Y-92344732D01*
X74847213Y-92291971D01*
X74847215Y-92291968D01*
X74847219Y-92291966D01*
X74991966Y-92147219D01*
X74991968Y-92147215D01*
X74991971Y-92147213D01*
X75044732Y-92074590D01*
X75112287Y-91981610D01*
X75205220Y-91799219D01*
X75268477Y-91604534D01*
X75300500Y-91402352D01*
X75300500Y-91197648D01*
X75268477Y-90995466D01*
X75205220Y-90800781D01*
X75205218Y-90800778D01*
X75205218Y-90800776D01*
X75171503Y-90734607D01*
X75112287Y-90618390D01*
X75104556Y-90607749D01*
X74991971Y-90452786D01*
X74847213Y-90308028D01*
X74681613Y-90187715D01*
X74681612Y-90187714D01*
X74681610Y-90187713D01*
X74624653Y-90158691D01*
X74499223Y-90094781D01*
X74304534Y-90031522D01*
X74129995Y-90003878D01*
X74102352Y-89999500D01*
X73897648Y-89999500D01*
X73873329Y-90003351D01*
X73695465Y-90031522D01*
X73500776Y-90094781D01*
X73318386Y-90187715D01*
X73152786Y-90308028D01*
X73008028Y-90452786D01*
X72887715Y-90618386D01*
X72794781Y-90800776D01*
X72731522Y-90995465D01*
X72699500Y-91197648D01*
X67680500Y-91197648D01*
X67648477Y-90995466D01*
X67585220Y-90800781D01*
X67585218Y-90800778D01*
X67585218Y-90800776D01*
X67551503Y-90734607D01*
X67492287Y-90618390D01*
X67484556Y-90607749D01*
X67371971Y-90452786D01*
X67227213Y-90308028D01*
X67061610Y-90187712D01*
X67048200Y-90180879D01*
X66997406Y-90132903D01*
X66980500Y-90070397D01*
X66980500Y-88529601D01*
X67000185Y-88462562D01*
X67048206Y-88419116D01*
X67061610Y-88412287D01*
X67227219Y-88291966D01*
X67371966Y-88147219D01*
X67371968Y-88147215D01*
X67371971Y-88147213D01*
X67473489Y-88007483D01*
X67492287Y-87981610D01*
X67585220Y-87799219D01*
X67648477Y-87604534D01*
X67680500Y-87402352D01*
X67680500Y-87197648D01*
X72699500Y-87197648D01*
X72699500Y-87402351D01*
X72731522Y-87604534D01*
X72794781Y-87799223D01*
X72887715Y-87981613D01*
X73008028Y-88147213D01*
X73152786Y-88291971D01*
X73279728Y-88384198D01*
X73318390Y-88412287D01*
X73399499Y-88453614D01*
X73500776Y-88505218D01*
X73500778Y-88505218D01*
X73500781Y-88505220D01*
X73544663Y-88519478D01*
X73695465Y-88568477D01*
X73796557Y-88584488D01*
X73897648Y-88600500D01*
X73897649Y-88600500D01*
X74102351Y-88600500D01*
X74102352Y-88600500D01*
X74304534Y-88568477D01*
X74499219Y-88505220D01*
X74681610Y-88412287D01*
X74781170Y-88339953D01*
X74847213Y-88291971D01*
X74847215Y-88291968D01*
X74847219Y-88291966D01*
X74991966Y-88147219D01*
X74991968Y-88147215D01*
X74991971Y-88147213D01*
X75093489Y-88007483D01*
X75112287Y-87981610D01*
X75205220Y-87799219D01*
X75268477Y-87604534D01*
X75300500Y-87402352D01*
X75300500Y-87197648D01*
X75280607Y-87072049D01*
X75268477Y-86995465D01*
X75205218Y-86800776D01*
X75171503Y-86734607D01*
X75112287Y-86618390D01*
X75089943Y-86587636D01*
X74991971Y-86452786D01*
X74847213Y-86308028D01*
X74681613Y-86187715D01*
X74681612Y-86187714D01*
X74681610Y-86187713D01*
X74620636Y-86156645D01*
X74499223Y-86094781D01*
X74304534Y-86031522D01*
X74129995Y-86003878D01*
X74102352Y-85999500D01*
X73897648Y-85999500D01*
X73873329Y-86003351D01*
X73695465Y-86031522D01*
X73500776Y-86094781D01*
X73318386Y-86187715D01*
X73152786Y-86308028D01*
X73008028Y-86452786D01*
X72887715Y-86618386D01*
X72794781Y-86800776D01*
X72731522Y-86995465D01*
X72699500Y-87197648D01*
X67680500Y-87197648D01*
X67660607Y-87072049D01*
X67648477Y-86995465D01*
X67585218Y-86800776D01*
X67551503Y-86734607D01*
X67492287Y-86618390D01*
X67469943Y-86587636D01*
X67371971Y-86452786D01*
X67227213Y-86308028D01*
X67061610Y-86187712D01*
X67048200Y-86180879D01*
X66997406Y-86132903D01*
X66980500Y-86070397D01*
X66980500Y-84529601D01*
X67000185Y-84462562D01*
X67048206Y-84419116D01*
X67061610Y-84412287D01*
X67227219Y-84291966D01*
X67371966Y-84147219D01*
X67371968Y-84147215D01*
X67371971Y-84147213D01*
X67424732Y-84074590D01*
X67492287Y-83981610D01*
X67585220Y-83799219D01*
X67648477Y-83604534D01*
X67680500Y-83402352D01*
X67680500Y-83197648D01*
X72699500Y-83197648D01*
X72699500Y-83402351D01*
X72731522Y-83604534D01*
X72794781Y-83799223D01*
X72887715Y-83981613D01*
X73008028Y-84147213D01*
X73152786Y-84291971D01*
X73307749Y-84404556D01*
X73318390Y-84412287D01*
X73399499Y-84453614D01*
X73500776Y-84505218D01*
X73500778Y-84505218D01*
X73500781Y-84505220D01*
X73575818Y-84529601D01*
X73695465Y-84568477D01*
X73796557Y-84584488D01*
X73897648Y-84600500D01*
X73897649Y-84600500D01*
X74102351Y-84600500D01*
X74102352Y-84600500D01*
X74304534Y-84568477D01*
X74499219Y-84505220D01*
X74681610Y-84412287D01*
X74774590Y-84344732D01*
X74847213Y-84291971D01*
X74847215Y-84291968D01*
X74847219Y-84291966D01*
X74991966Y-84147219D01*
X74991968Y-84147215D01*
X74991971Y-84147213D01*
X75044732Y-84074590D01*
X75112287Y-83981610D01*
X75205220Y-83799219D01*
X75268477Y-83604534D01*
X75300500Y-83402352D01*
X75300500Y-83197648D01*
X75268477Y-82995466D01*
X75205220Y-82800781D01*
X75205218Y-82800778D01*
X75205218Y-82800776D01*
X75171503Y-82734607D01*
X75112287Y-82618390D01*
X75104556Y-82607749D01*
X74991971Y-82452786D01*
X74847213Y-82308028D01*
X74681613Y-82187715D01*
X74681612Y-82187714D01*
X74681610Y-82187713D01*
X74610077Y-82151265D01*
X74499223Y-82094781D01*
X74304534Y-82031522D01*
X74129995Y-82003878D01*
X74102352Y-81999500D01*
X73897648Y-81999500D01*
X73873329Y-82003351D01*
X73695465Y-82031522D01*
X73500776Y-82094781D01*
X73318386Y-82187715D01*
X73152786Y-82308028D01*
X73008028Y-82452786D01*
X72887715Y-82618386D01*
X72794781Y-82800776D01*
X72731522Y-82995465D01*
X72699500Y-83197648D01*
X67680500Y-83197648D01*
X67648477Y-82995466D01*
X67585220Y-82800781D01*
X67585218Y-82800778D01*
X67585218Y-82800776D01*
X67551503Y-82734607D01*
X67492287Y-82618390D01*
X67484556Y-82607749D01*
X67371971Y-82452786D01*
X67227213Y-82308028D01*
X67061610Y-82187712D01*
X67048200Y-82180879D01*
X66997406Y-82132903D01*
X66980500Y-82070397D01*
X66980500Y-80229601D01*
X67000185Y-80162562D01*
X67048206Y-80119116D01*
X67061610Y-80112287D01*
X67227219Y-79991966D01*
X67371966Y-79847219D01*
X67371968Y-79847215D01*
X67371971Y-79847213D01*
X67471448Y-79710292D01*
X67492287Y-79681610D01*
X67585220Y-79499219D01*
X67648477Y-79304534D01*
X67680500Y-79102352D01*
X67680500Y-78897648D01*
X72699500Y-78897648D01*
X72699500Y-79102351D01*
X72731522Y-79304534D01*
X72794781Y-79499223D01*
X72851338Y-79610221D01*
X72882841Y-79672049D01*
X72887715Y-79681613D01*
X73008028Y-79847213D01*
X73152786Y-79991971D01*
X73307749Y-80104556D01*
X73318390Y-80112287D01*
X73399499Y-80153614D01*
X73500776Y-80205218D01*
X73500778Y-80205218D01*
X73500781Y-80205220D01*
X73605137Y-80239127D01*
X73695465Y-80268477D01*
X73796557Y-80284488D01*
X73897648Y-80300500D01*
X73897649Y-80300500D01*
X74102351Y-80300500D01*
X74102352Y-80300500D01*
X74304534Y-80268477D01*
X74499219Y-80205220D01*
X74681610Y-80112287D01*
X74774590Y-80044732D01*
X74847213Y-79991971D01*
X74847215Y-79991968D01*
X74847219Y-79991966D01*
X74991966Y-79847219D01*
X74991968Y-79847215D01*
X74991971Y-79847213D01*
X75091448Y-79710292D01*
X75112287Y-79681610D01*
X75205220Y-79499219D01*
X75268477Y-79304534D01*
X75300500Y-79102352D01*
X75300500Y-78897648D01*
X75288332Y-78820821D01*
X75268477Y-78695465D01*
X75233655Y-78588294D01*
X75205220Y-78500781D01*
X75205218Y-78500778D01*
X75205218Y-78500776D01*
X75169288Y-78430261D01*
X75112287Y-78318390D01*
X75100515Y-78302187D01*
X74991971Y-78152786D01*
X74847213Y-78008028D01*
X74681613Y-77887715D01*
X74681612Y-77887714D01*
X74681610Y-77887713D01*
X74624653Y-77858691D01*
X74499223Y-77794781D01*
X74304534Y-77731522D01*
X74129995Y-77703878D01*
X74102352Y-77699500D01*
X73897648Y-77699500D01*
X73873329Y-77703351D01*
X73695465Y-77731522D01*
X73500776Y-77794781D01*
X73318386Y-77887715D01*
X73152786Y-78008028D01*
X73008028Y-78152786D01*
X72887715Y-78318386D01*
X72794781Y-78500776D01*
X72731522Y-78695465D01*
X72699500Y-78897648D01*
X67680500Y-78897648D01*
X67668332Y-78820821D01*
X67648477Y-78695465D01*
X67613655Y-78588294D01*
X67585220Y-78500781D01*
X67585218Y-78500778D01*
X67585218Y-78500776D01*
X67549288Y-78430261D01*
X67492287Y-78318390D01*
X67480515Y-78302187D01*
X67371971Y-78152786D01*
X67227213Y-78008028D01*
X67061610Y-77887712D01*
X67048200Y-77880879D01*
X66997406Y-77832903D01*
X66980500Y-77770397D01*
X66980500Y-75534696D01*
X67000185Y-75467657D01*
X67048206Y-75424211D01*
X67071610Y-75412287D01*
X67237219Y-75291966D01*
X67381966Y-75147219D01*
X67381968Y-75147215D01*
X67381971Y-75147213D01*
X67502284Y-74981614D01*
X67502285Y-74981613D01*
X67502287Y-74981610D01*
X67509117Y-74968204D01*
X67557091Y-74917409D01*
X67619602Y-74900500D01*
X69908331Y-74900500D01*
X69908347Y-74900501D01*
X69915943Y-74900501D01*
X70074054Y-74900501D01*
X70074057Y-74900501D01*
X70226785Y-74859577D01*
X70276904Y-74830639D01*
X70363716Y-74780520D01*
X70475520Y-74668716D01*
X70475520Y-74668714D01*
X70485728Y-74658507D01*
X70485730Y-74658504D01*
X70946586Y-74197648D01*
X72709500Y-74197648D01*
X72709500Y-74402351D01*
X72741522Y-74604534D01*
X72804781Y-74799223D01*
X72897715Y-74981613D01*
X73018028Y-75147213D01*
X73162786Y-75291971D01*
X73317749Y-75404556D01*
X73328390Y-75412287D01*
X73437060Y-75467657D01*
X73510776Y-75505218D01*
X73510778Y-75505218D01*
X73510781Y-75505220D01*
X73601499Y-75534696D01*
X73705465Y-75568477D01*
X73806557Y-75584488D01*
X73907648Y-75600500D01*
X73907649Y-75600500D01*
X74112351Y-75600500D01*
X74112352Y-75600500D01*
X74314534Y-75568477D01*
X74509219Y-75505220D01*
X74691610Y-75412287D01*
X74784590Y-75344732D01*
X74857213Y-75291971D01*
X74857215Y-75291968D01*
X74857219Y-75291966D01*
X75001966Y-75147219D01*
X75001968Y-75147215D01*
X75001971Y-75147213D01*
X75054732Y-75074590D01*
X75122287Y-74981610D01*
X75215220Y-74799219D01*
X75278477Y-74604534D01*
X75310500Y-74402352D01*
X75310500Y-74197648D01*
X75302570Y-74147583D01*
X75278477Y-73995465D01*
X75215218Y-73800776D01*
X75168624Y-73709332D01*
X75122287Y-73618390D01*
X75104633Y-73594091D01*
X75001971Y-73452786D01*
X74857213Y-73308028D01*
X74691613Y-73187715D01*
X74691612Y-73187714D01*
X74691610Y-73187713D01*
X74634653Y-73158691D01*
X74509223Y-73094781D01*
X74314534Y-73031522D01*
X74139995Y-73003878D01*
X74112352Y-72999500D01*
X73907648Y-72999500D01*
X73883329Y-73003351D01*
X73705465Y-73031522D01*
X73510776Y-73094781D01*
X73328386Y-73187715D01*
X73162786Y-73308028D01*
X73018028Y-73452786D01*
X72897715Y-73618386D01*
X72804781Y-73800776D01*
X72741522Y-73995465D01*
X72709500Y-74197648D01*
X70946586Y-74197648D01*
X76559355Y-68584878D01*
X76620676Y-68551395D01*
X76662822Y-68551018D01*
X76662932Y-68549903D01*
X76668995Y-68550500D01*
X76668997Y-68550500D01*
X76871004Y-68550500D01*
X76871005Y-68550499D01*
X77069127Y-68511091D01*
X77255756Y-68433786D01*
X77423718Y-68321558D01*
X77566558Y-68178718D01*
X77678786Y-68010756D01*
X77756091Y-67824127D01*
X77795500Y-67626003D01*
X77795500Y-66973997D01*
X77793184Y-66962352D01*
X77756318Y-66777012D01*
X77756316Y-66777006D01*
X77756091Y-66775873D01*
X77748556Y-66757682D01*
X83400000Y-66757682D01*
X83400000Y-66962317D01*
X83432009Y-67164417D01*
X83495244Y-67359031D01*
X83588141Y-67541350D01*
X83588147Y-67541359D01*
X83620523Y-67585921D01*
X83620524Y-67585922D01*
X84300000Y-66906446D01*
X84300000Y-66912661D01*
X84327259Y-67014394D01*
X84379920Y-67105606D01*
X84454394Y-67180080D01*
X84545606Y-67232741D01*
X84647339Y-67260000D01*
X84653553Y-67260000D01*
X83974076Y-67939474D01*
X84018650Y-67971859D01*
X84200968Y-68064755D01*
X84395582Y-68127990D01*
X84597683Y-68160000D01*
X84802317Y-68160000D01*
X85004417Y-68127990D01*
X85199031Y-68064755D01*
X85381349Y-67971859D01*
X85425921Y-67939474D01*
X84746447Y-67260000D01*
X84752661Y-67260000D01*
X84854394Y-67232741D01*
X84945606Y-67180080D01*
X85020080Y-67105606D01*
X85072741Y-67014394D01*
X85100000Y-66912661D01*
X85100000Y-66906447D01*
X85779474Y-67585921D01*
X85811859Y-67541349D01*
X85904755Y-67359031D01*
X85967990Y-67164417D01*
X86000000Y-66962317D01*
X86000000Y-66757682D01*
X85967990Y-66555582D01*
X85904755Y-66360968D01*
X85811859Y-66178650D01*
X85779474Y-66134077D01*
X85779474Y-66134076D01*
X85100000Y-66813551D01*
X85100000Y-66807339D01*
X85072741Y-66705606D01*
X85020080Y-66614394D01*
X84945606Y-66539920D01*
X84854394Y-66487259D01*
X84752661Y-66460000D01*
X84746446Y-66460000D01*
X85425922Y-65780524D01*
X85425921Y-65780523D01*
X85381359Y-65748147D01*
X85381350Y-65748141D01*
X85199031Y-65655244D01*
X85004417Y-65592009D01*
X84802317Y-65560000D01*
X84597683Y-65560000D01*
X84395582Y-65592009D01*
X84200968Y-65655244D01*
X84018644Y-65748143D01*
X83974077Y-65780523D01*
X83974077Y-65780524D01*
X84653554Y-66460000D01*
X84647339Y-66460000D01*
X84545606Y-66487259D01*
X84454394Y-66539920D01*
X84379920Y-66614394D01*
X84327259Y-66705606D01*
X84300000Y-66807339D01*
X84300000Y-66813553D01*
X83620524Y-66134077D01*
X83620523Y-66134077D01*
X83588143Y-66178644D01*
X83495244Y-66360968D01*
X83432009Y-66555582D01*
X83400000Y-66757682D01*
X77748556Y-66757682D01*
X77678786Y-66589244D01*
X77678784Y-66589241D01*
X77678782Y-66589237D01*
X77566558Y-66421281D01*
X77423718Y-66278441D01*
X77255762Y-66166217D01*
X77255752Y-66166212D01*
X77069127Y-66088909D01*
X77069119Y-66088907D01*
X76871007Y-66049500D01*
X76871003Y-66049500D01*
X76668997Y-66049500D01*
X76668992Y-66049500D01*
X76470880Y-66088907D01*
X76470872Y-66088909D01*
X76284235Y-66166217D01*
X76282947Y-66166906D01*
X76282194Y-66167062D01*
X76278616Y-66168545D01*
X76278334Y-66167866D01*
X76214544Y-66181145D01*
X76149301Y-66156141D01*
X76107934Y-66099834D01*
X76100500Y-66057545D01*
X76100500Y-58179765D01*
X76120185Y-58112726D01*
X76121398Y-58110874D01*
X76209390Y-57979185D01*
X76209390Y-57979184D01*
X76209394Y-57979179D01*
X76269737Y-57833497D01*
X76300500Y-57678842D01*
X76300500Y-57521158D01*
X76300500Y-57521155D01*
X76300499Y-57521153D01*
X76269737Y-57366503D01*
X76265223Y-57355606D01*
X76209397Y-57220827D01*
X76209390Y-57220814D01*
X76118405Y-57084646D01*
X76119519Y-57083901D01*
X76094885Y-57025901D01*
X76106675Y-56957033D01*
X76130367Y-56923866D01*
X77902819Y-55151415D01*
X77964142Y-55117930D01*
X78033834Y-55122914D01*
X78089767Y-55164786D01*
X78114184Y-55230250D01*
X78114500Y-55239096D01*
X78114500Y-55432351D01*
X78146522Y-55634534D01*
X78209781Y-55829223D01*
X78268693Y-55944842D01*
X78296532Y-55999480D01*
X78302715Y-56011613D01*
X78423028Y-56177213D01*
X78567786Y-56321971D01*
X78674498Y-56399500D01*
X78733390Y-56442287D01*
X78824840Y-56488883D01*
X78826080Y-56489515D01*
X78876876Y-56537490D01*
X78893671Y-56605311D01*
X78871134Y-56671446D01*
X78826080Y-56710485D01*
X78733386Y-56757715D01*
X78567786Y-56878028D01*
X78423028Y-57022786D01*
X78302715Y-57188386D01*
X78209781Y-57370776D01*
X78146522Y-57565465D01*
X78114500Y-57767648D01*
X78114500Y-57972351D01*
X78146522Y-58174534D01*
X78209781Y-58369223D01*
X78267543Y-58482585D01*
X78296401Y-58539223D01*
X78302715Y-58551613D01*
X78423028Y-58717213D01*
X78567786Y-58861971D01*
X78722749Y-58974556D01*
X78733390Y-58982287D01*
X78824840Y-59028883D01*
X78826080Y-59029515D01*
X78876876Y-59077490D01*
X78893671Y-59145311D01*
X78871134Y-59211446D01*
X78826080Y-59250485D01*
X78733386Y-59297715D01*
X78567786Y-59418028D01*
X78423028Y-59562786D01*
X78302715Y-59728386D01*
X78209781Y-59910776D01*
X78146522Y-60105465D01*
X78114500Y-60307648D01*
X78114500Y-60512351D01*
X78146522Y-60714534D01*
X78209781Y-60909223D01*
X78261706Y-61011130D01*
X78302585Y-61091359D01*
X78302715Y-61091613D01*
X78423028Y-61257213D01*
X78567786Y-61401971D01*
X78722749Y-61514556D01*
X78733390Y-61522287D01*
X78830900Y-61571971D01*
X78915776Y-61615218D01*
X78915778Y-61615218D01*
X78915781Y-61615220D01*
X78980123Y-61636126D01*
X79110465Y-61678477D01*
X79211557Y-61694488D01*
X79312648Y-61710500D01*
X79312649Y-61710500D01*
X79517351Y-61710500D01*
X79517352Y-61710500D01*
X79719534Y-61678477D01*
X79914219Y-61615220D01*
X80096610Y-61522287D01*
X80193504Y-61451890D01*
X80262213Y-61401971D01*
X80262215Y-61401968D01*
X80262219Y-61401966D01*
X80406966Y-61257219D01*
X80406968Y-61257215D01*
X80406971Y-61257213D01*
X80478177Y-61159205D01*
X80527287Y-61091610D01*
X80620220Y-60909219D01*
X80683477Y-60714534D01*
X80715500Y-60512352D01*
X80715500Y-60307648D01*
X80700237Y-60211284D01*
X80683477Y-60105465D01*
X80637449Y-59963806D01*
X80620220Y-59910781D01*
X80620218Y-59910778D01*
X80620218Y-59910776D01*
X80566559Y-59805466D01*
X80527287Y-59728390D01*
X80495092Y-59684077D01*
X80406971Y-59562786D01*
X80262213Y-59418028D01*
X80096614Y-59297715D01*
X80090006Y-59294348D01*
X80003917Y-59250483D01*
X79953123Y-59202511D01*
X79936328Y-59134690D01*
X79958865Y-59068555D01*
X80003917Y-59029516D01*
X80096610Y-58982287D01*
X80173845Y-58926173D01*
X80262213Y-58861971D01*
X80262215Y-58861968D01*
X80262219Y-58861966D01*
X80406966Y-58717219D01*
X80406968Y-58717215D01*
X80406971Y-58717213D01*
X80459732Y-58644590D01*
X80527287Y-58551610D01*
X80620220Y-58369219D01*
X80683477Y-58174534D01*
X80715500Y-57972352D01*
X80715500Y-57767648D01*
X80701434Y-57678842D01*
X80683477Y-57565465D01*
X80634398Y-57414417D01*
X80620220Y-57370781D01*
X80620218Y-57370778D01*
X80620218Y-57370776D01*
X80586503Y-57304607D01*
X80527287Y-57188390D01*
X80508594Y-57162661D01*
X80406971Y-57022786D01*
X80262213Y-56878028D01*
X80096614Y-56757715D01*
X80062525Y-56740346D01*
X80003917Y-56710483D01*
X79953123Y-56662511D01*
X79936328Y-56594690D01*
X79958865Y-56528555D01*
X80003917Y-56489516D01*
X80096610Y-56442287D01*
X80176730Y-56384077D01*
X80262213Y-56321971D01*
X80262215Y-56321968D01*
X80262219Y-56321966D01*
X80406966Y-56177219D01*
X80406968Y-56177215D01*
X80406971Y-56177213D01*
X80462705Y-56100500D01*
X80527287Y-56011610D01*
X80620220Y-55829219D01*
X80683477Y-55634534D01*
X80715500Y-55432352D01*
X80715500Y-55239096D01*
X80721738Y-55217851D01*
X80723318Y-55195763D01*
X80731390Y-55184979D01*
X80735185Y-55172058D01*
X80751918Y-55157558D01*
X80765190Y-55139830D01*
X80777810Y-55135122D01*
X80787989Y-55126303D01*
X80809906Y-55123151D01*
X80830654Y-55115413D01*
X80843814Y-55118275D01*
X80857147Y-55116359D01*
X80877290Y-55125558D01*
X80898927Y-55130265D01*
X80916652Y-55143533D01*
X80920703Y-55145384D01*
X80927180Y-55151415D01*
X81063181Y-55287416D01*
X81096666Y-55348739D01*
X81099500Y-55375097D01*
X81099500Y-61113330D01*
X81099499Y-61113348D01*
X81099499Y-61279054D01*
X81099498Y-61279054D01*
X81139199Y-61427219D01*
X81140423Y-61431785D01*
X81155834Y-61458477D01*
X81217471Y-61565236D01*
X81219479Y-61568714D01*
X81219481Y-61568717D01*
X81338349Y-61687585D01*
X81338354Y-61687589D01*
X82631284Y-62980520D01*
X82631286Y-62980521D01*
X82631290Y-62980524D01*
X82768209Y-63059573D01*
X82768212Y-63059575D01*
X82768216Y-63059577D01*
X82920943Y-63100501D01*
X82920945Y-63100501D01*
X83086654Y-63100501D01*
X83086670Y-63100500D01*
X88613331Y-63100500D01*
X88613347Y-63100501D01*
X88620943Y-63100501D01*
X88779054Y-63100501D01*
X88779057Y-63100501D01*
X88931785Y-63059577D01*
X88984647Y-63029057D01*
X88984648Y-63029057D01*
X89068709Y-62980524D01*
X89068708Y-62980524D01*
X89068716Y-62980520D01*
X89180520Y-62868716D01*
X89180520Y-62868714D01*
X89190724Y-62858511D01*
X89190727Y-62858506D01*
X89960520Y-62088716D01*
X90039577Y-61951784D01*
X90080501Y-61799057D01*
X90080501Y-61799050D01*
X90081219Y-61793596D01*
X90109482Y-61729698D01*
X90147864Y-61699290D01*
X90161610Y-61692287D01*
X90182770Y-61676913D01*
X90327213Y-61571971D01*
X90327215Y-61571968D01*
X90327219Y-61571966D01*
X90471966Y-61427219D01*
X90471968Y-61427215D01*
X90471971Y-61427213D01*
X90553337Y-61315220D01*
X90592287Y-61261610D01*
X90685220Y-61079219D01*
X90748477Y-60884534D01*
X90780500Y-60682352D01*
X90780500Y-60620097D01*
X90800185Y-60553058D01*
X90816819Y-60532416D01*
X92060850Y-59288385D01*
X93314662Y-58034572D01*
X93375983Y-58001089D01*
X93378150Y-58000638D01*
X93436085Y-57989113D01*
X93533497Y-57969737D01*
X93679179Y-57909394D01*
X93810289Y-57821789D01*
X93921789Y-57710289D01*
X94009394Y-57579179D01*
X94015075Y-57565465D01*
X94044478Y-57494478D01*
X94069737Y-57433497D01*
X94100500Y-57278842D01*
X94100500Y-57121158D01*
X94100500Y-57121155D01*
X94100499Y-57121153D01*
X94069737Y-56966503D01*
X94069735Y-56966498D01*
X94009397Y-56820827D01*
X94009390Y-56820814D01*
X93921789Y-56689711D01*
X93921786Y-56689707D01*
X93810292Y-56578213D01*
X93810288Y-56578210D01*
X93679185Y-56490609D01*
X93679172Y-56490602D01*
X93533501Y-56430264D01*
X93533489Y-56430261D01*
X93378845Y-56399500D01*
X93378842Y-56399500D01*
X93221158Y-56399500D01*
X93221155Y-56399500D01*
X93066510Y-56430261D01*
X93066498Y-56430264D01*
X92920827Y-56490602D01*
X92920814Y-56490609D01*
X92789711Y-56578210D01*
X92789707Y-56578213D01*
X92678213Y-56689707D01*
X92678210Y-56689711D01*
X92590609Y-56820814D01*
X92590602Y-56820827D01*
X92530264Y-56966498D01*
X92530261Y-56966508D01*
X92499361Y-57121850D01*
X92466976Y-57183761D01*
X92465425Y-57185339D01*
X90795932Y-58854831D01*
X90734609Y-58888316D01*
X90664917Y-58883332D01*
X90608984Y-58841460D01*
X90584567Y-58775996D01*
X90597767Y-58710855D01*
X90685216Y-58539228D01*
X90685218Y-58539223D01*
X90685220Y-58539219D01*
X90748477Y-58344534D01*
X90780500Y-58142352D01*
X90780500Y-57937648D01*
X90773895Y-57895945D01*
X90748477Y-57735465D01*
X90706503Y-57606284D01*
X90685220Y-57540781D01*
X90685218Y-57540778D01*
X90685218Y-57540776D01*
X90628815Y-57430080D01*
X90592287Y-57358390D01*
X90580486Y-57342147D01*
X90471971Y-57192786D01*
X90327213Y-57048028D01*
X90161614Y-56927715D01*
X90154054Y-56923863D01*
X90068917Y-56880483D01*
X90018123Y-56832511D01*
X90001328Y-56764690D01*
X90023865Y-56698555D01*
X90068917Y-56659516D01*
X90161610Y-56612287D01*
X90208512Y-56578211D01*
X90327213Y-56491971D01*
X90327215Y-56491968D01*
X90327219Y-56491966D01*
X90471966Y-56347219D01*
X90471968Y-56347215D01*
X90471971Y-56347213D01*
X90592284Y-56181614D01*
X90592285Y-56181613D01*
X90592287Y-56181610D01*
X90599117Y-56168204D01*
X90647091Y-56117409D01*
X90709602Y-56100500D01*
X94259903Y-56100500D01*
X94326942Y-56120185D01*
X94347584Y-56136819D01*
X95805922Y-57595157D01*
X95839407Y-57656480D01*
X95836173Y-57721155D01*
X95831522Y-57735468D01*
X95799500Y-57937648D01*
X95799500Y-58142351D01*
X95831522Y-58344534D01*
X95894781Y-58539223D01*
X95987715Y-58721613D01*
X96108028Y-58887213D01*
X96252786Y-59031971D01*
X96407749Y-59144556D01*
X96418390Y-59152287D01*
X96508162Y-59198028D01*
X96511080Y-59199515D01*
X96561876Y-59247490D01*
X96578671Y-59315311D01*
X96556134Y-59381446D01*
X96511080Y-59420485D01*
X96418386Y-59467715D01*
X96252786Y-59588028D01*
X96108028Y-59732786D01*
X95987714Y-59898386D01*
X95978633Y-59916210D01*
X95958596Y-59937424D01*
X95940706Y-59960469D01*
X95933678Y-59963806D01*
X95930658Y-59967005D01*
X95909437Y-59976837D01*
X95901896Y-59979500D01*
X95900943Y-59979500D01*
X95748215Y-60020423D01*
X95698620Y-60049057D01*
X95688709Y-60054778D01*
X95688703Y-60054781D01*
X95611287Y-60099477D01*
X95611282Y-60099481D01*
X95499478Y-60211286D01*
X90144842Y-65565921D01*
X90083519Y-65599406D01*
X90018848Y-65596173D01*
X90004534Y-65591522D01*
X89829995Y-65563878D01*
X89802352Y-65559500D01*
X89597648Y-65559500D01*
X89573329Y-65563351D01*
X89395465Y-65591522D01*
X89200776Y-65654781D01*
X89018386Y-65747715D01*
X88852786Y-65868028D01*
X88708028Y-66012786D01*
X88587715Y-66178386D01*
X88494781Y-66360776D01*
X88431522Y-66555465D01*
X88406351Y-66714394D01*
X88399500Y-66757648D01*
X88399500Y-66962352D01*
X88403878Y-66989995D01*
X88431522Y-67164534D01*
X88494781Y-67359223D01*
X88540197Y-67448355D01*
X88587585Y-67541359D01*
X88587715Y-67541613D01*
X88708028Y-67707213D01*
X88852786Y-67851971D01*
X88973226Y-67939474D01*
X89018390Y-67972287D01*
X89134607Y-68031503D01*
X89200776Y-68065218D01*
X89200778Y-68065218D01*
X89200781Y-68065220D01*
X89301267Y-68097870D01*
X89395465Y-68128477D01*
X89496557Y-68144488D01*
X89597648Y-68160500D01*
X89597649Y-68160500D01*
X89802351Y-68160500D01*
X89802352Y-68160500D01*
X90004534Y-68128477D01*
X90199219Y-68065220D01*
X90381610Y-67972287D01*
X90464104Y-67912352D01*
X90492259Y-67891897D01*
X90492260Y-67891896D01*
X90547215Y-67851969D01*
X90547215Y-67851968D01*
X90547219Y-67851966D01*
X90691966Y-67707219D01*
X90691968Y-67707215D01*
X90691971Y-67707213D01*
X90750972Y-67626003D01*
X90812287Y-67541610D01*
X90905220Y-67359219D01*
X90968477Y-67164534D01*
X91000500Y-66962352D01*
X91000500Y-66757648D01*
X90976288Y-66604780D01*
X90968478Y-66555472D01*
X90968477Y-66555471D01*
X90968477Y-66555466D01*
X90963825Y-66541151D01*
X90961832Y-66471312D01*
X90994075Y-66415158D01*
X95957345Y-61451888D01*
X96018666Y-61418405D01*
X96088358Y-61423389D01*
X96132705Y-61451890D01*
X96252786Y-61571971D01*
X96398712Y-61677990D01*
X96418390Y-61692287D01*
X96497613Y-61732653D01*
X96600776Y-61785218D01*
X96600778Y-61785218D01*
X96600781Y-61785220D01*
X96705137Y-61819127D01*
X96795465Y-61848477D01*
X96888296Y-61863180D01*
X96997648Y-61880500D01*
X96997649Y-61880500D01*
X97202351Y-61880500D01*
X97202352Y-61880500D01*
X97404534Y-61848477D01*
X97599219Y-61785220D01*
X97781610Y-61692287D01*
X97883012Y-61618615D01*
X97947213Y-61571971D01*
X97947215Y-61571968D01*
X97947219Y-61571966D01*
X98091966Y-61427219D01*
X98091968Y-61427215D01*
X98091971Y-61427213D01*
X98173337Y-61315220D01*
X98212287Y-61261610D01*
X98305220Y-61079219D01*
X98368477Y-60884534D01*
X98400500Y-60682352D01*
X98400500Y-60489096D01*
X98420185Y-60422058D01*
X98472989Y-60376303D01*
X98542147Y-60366359D01*
X98605703Y-60395384D01*
X98612168Y-60401404D01*
X99312731Y-61101966D01*
X100263181Y-62052416D01*
X100296666Y-62113739D01*
X100299500Y-62140097D01*
X100299500Y-62859902D01*
X100279815Y-62926941D01*
X100263181Y-62947583D01*
X97587582Y-65623181D01*
X97526259Y-65656666D01*
X97499901Y-65659500D01*
X96499998Y-65659500D01*
X96499980Y-65659501D01*
X96397203Y-65670000D01*
X96397200Y-65670001D01*
X96230668Y-65725185D01*
X96230663Y-65725187D01*
X96081342Y-65817289D01*
X95957289Y-65941342D01*
X95865187Y-66090663D01*
X95865185Y-66090668D01*
X95844717Y-66152438D01*
X95804944Y-66209883D01*
X95740428Y-66236706D01*
X95717283Y-66237052D01*
X95679474Y-66234076D01*
X95000000Y-66913551D01*
X95000000Y-66907339D01*
X94972741Y-66805606D01*
X94920080Y-66714394D01*
X94845606Y-66639920D01*
X94754394Y-66587259D01*
X94652661Y-66560000D01*
X94646446Y-66560000D01*
X95325922Y-65880524D01*
X95325921Y-65880523D01*
X95281359Y-65848147D01*
X95281350Y-65848141D01*
X95099031Y-65755244D01*
X94904417Y-65692009D01*
X94702317Y-65660000D01*
X94497683Y-65660000D01*
X94295582Y-65692009D01*
X94100968Y-65755244D01*
X93918644Y-65848143D01*
X93874077Y-65880523D01*
X93874077Y-65880524D01*
X94553554Y-66560000D01*
X94547339Y-66560000D01*
X94445606Y-66587259D01*
X94354394Y-66639920D01*
X94279920Y-66714394D01*
X94227259Y-66805606D01*
X94200000Y-66907339D01*
X94200000Y-66913553D01*
X93520524Y-66234077D01*
X93520523Y-66234077D01*
X93488143Y-66278644D01*
X93395244Y-66460968D01*
X93332009Y-66655582D01*
X93300000Y-66857682D01*
X93300000Y-67062317D01*
X93332009Y-67264417D01*
X93395244Y-67459031D01*
X93488141Y-67641350D01*
X93488147Y-67641359D01*
X93520523Y-67685921D01*
X93520524Y-67685922D01*
X94200000Y-67006446D01*
X94200000Y-67012661D01*
X94227259Y-67114394D01*
X94279920Y-67205606D01*
X94354394Y-67280080D01*
X94445606Y-67332741D01*
X94547339Y-67360000D01*
X94553553Y-67360000D01*
X93874076Y-68039474D01*
X93918650Y-68071859D01*
X94100968Y-68164755D01*
X94295582Y-68227990D01*
X94497683Y-68260000D01*
X94702317Y-68260000D01*
X94904417Y-68227990D01*
X95099031Y-68164755D01*
X95281349Y-68071859D01*
X95325921Y-68039474D01*
X94646447Y-67360000D01*
X94652661Y-67360000D01*
X94754394Y-67332741D01*
X94845606Y-67280080D01*
X94920080Y-67205606D01*
X94972741Y-67114394D01*
X95000000Y-67012661D01*
X95000000Y-67006447D01*
X95679473Y-67685921D01*
X95717280Y-67682946D01*
X95785658Y-67697310D01*
X95835415Y-67746361D01*
X95844716Y-67767559D01*
X95865186Y-67829333D01*
X95865187Y-67829336D01*
X95884160Y-67860096D01*
X95957288Y-67978656D01*
X96081344Y-68102712D01*
X96230666Y-68194814D01*
X96397203Y-68249999D01*
X96499991Y-68260500D01*
X97499902Y-68260499D01*
X97566941Y-68280183D01*
X97587583Y-68296818D01*
X100225139Y-70934374D01*
X100225149Y-70934385D01*
X100229479Y-70938715D01*
X100229480Y-70938716D01*
X100341284Y-71050520D01*
X100414026Y-71092517D01*
X100478215Y-71129577D01*
X100630943Y-71170501D01*
X100630946Y-71170501D01*
X100796653Y-71170501D01*
X100796669Y-71170500D01*
X102170398Y-71170500D01*
X102237437Y-71190185D01*
X102280883Y-71238205D01*
X102287715Y-71251614D01*
X102408028Y-71417213D01*
X102552786Y-71561971D01*
X102691008Y-71662393D01*
X102718390Y-71682287D01*
X102834607Y-71741503D01*
X102900776Y-71775218D01*
X102900778Y-71775218D01*
X102900781Y-71775220D01*
X103005137Y-71809127D01*
X103095465Y-71838477D01*
X103104513Y-71839910D01*
X103297648Y-71870500D01*
X103297649Y-71870500D01*
X103502351Y-71870500D01*
X103502352Y-71870500D01*
X103704534Y-71838477D01*
X103718842Y-71833827D01*
X103788682Y-71831831D01*
X103844841Y-71864076D01*
X105001284Y-73020520D01*
X105001286Y-73020521D01*
X105001290Y-73020524D01*
X105120883Y-73089570D01*
X105138216Y-73099577D01*
X105290943Y-73140501D01*
X105290945Y-73140501D01*
X105456654Y-73140501D01*
X105456670Y-73140500D01*
X106475500Y-73140500D01*
X106542539Y-73160185D01*
X106588294Y-73212989D01*
X106599500Y-73264500D01*
X106599500Y-73440017D01*
X106610000Y-73542796D01*
X106635048Y-73618385D01*
X106665186Y-73709335D01*
X106757288Y-73858656D01*
X106881344Y-73982712D01*
X107030665Y-74074814D01*
X107197202Y-74129999D01*
X107299990Y-74140500D01*
X107299995Y-74140500D01*
X109100005Y-74140500D01*
X109100010Y-74140500D01*
X109202798Y-74129999D01*
X109369335Y-74074814D01*
X109518656Y-73982712D01*
X109642712Y-73858656D01*
X109734814Y-73709335D01*
X109789999Y-73542798D01*
X109800500Y-73440010D01*
X109800500Y-71689778D01*
X115699500Y-71689778D01*
X115699500Y-71910222D01*
X115716742Y-72019086D01*
X115733985Y-72127952D01*
X115802103Y-72337603D01*
X115802104Y-72337606D01*
X115848139Y-72427952D01*
X115899092Y-72527952D01*
X115902187Y-72534025D01*
X116031752Y-72712358D01*
X116031756Y-72712363D01*
X116187636Y-72868243D01*
X116187641Y-72868247D01*
X116278174Y-72934022D01*
X116365978Y-72997815D01*
X116494375Y-73063237D01*
X116562393Y-73097895D01*
X116562396Y-73097896D01*
X116624493Y-73118072D01*
X116772049Y-73166015D01*
X116989778Y-73200500D01*
X116989779Y-73200500D01*
X117210221Y-73200500D01*
X117210222Y-73200500D01*
X117427951Y-73166015D01*
X117637606Y-73097895D01*
X117834022Y-72997815D01*
X118012365Y-72868242D01*
X118062536Y-72818070D01*
X118123857Y-72784586D01*
X118193548Y-72789570D01*
X118249482Y-72831441D01*
X118266398Y-72862419D01*
X118296202Y-72942328D01*
X118296206Y-72942335D01*
X118382452Y-73057544D01*
X118382455Y-73057547D01*
X118497664Y-73143793D01*
X118497671Y-73143797D01*
X118632517Y-73194091D01*
X118632516Y-73194091D01*
X118639444Y-73194835D01*
X118692127Y-73200500D01*
X120587872Y-73200499D01*
X120647483Y-73194091D01*
X120782331Y-73143796D01*
X120897546Y-73057546D01*
X120983796Y-72942331D01*
X121034091Y-72807483D01*
X121040500Y-72747873D01*
X121040499Y-70852128D01*
X121034091Y-70792517D01*
X121020546Y-70756202D01*
X120983797Y-70657671D01*
X120983793Y-70657664D01*
X120897547Y-70542455D01*
X120897544Y-70542452D01*
X120782335Y-70456206D01*
X120782328Y-70456202D01*
X120647482Y-70405908D01*
X120647483Y-70405908D01*
X120587883Y-70399501D01*
X120587881Y-70399500D01*
X120587873Y-70399500D01*
X120587865Y-70399500D01*
X120364500Y-70399500D01*
X120297461Y-70379815D01*
X120251706Y-70327011D01*
X120240500Y-70275500D01*
X120240500Y-67860096D01*
X120260185Y-67793057D01*
X120276814Y-67772420D01*
X121675797Y-66373436D01*
X121737118Y-66339953D01*
X121801794Y-66343188D01*
X121821051Y-66349444D01*
X121872049Y-66366015D01*
X122089778Y-66400500D01*
X122089779Y-66400500D01*
X122310221Y-66400500D01*
X122310222Y-66400500D01*
X122527951Y-66366015D01*
X122737606Y-66297895D01*
X122934022Y-66197815D01*
X123112365Y-66068242D01*
X123162536Y-66018070D01*
X123223857Y-65984586D01*
X123293548Y-65989570D01*
X123349482Y-66031441D01*
X123366398Y-66062419D01*
X123396202Y-66142328D01*
X123396206Y-66142335D01*
X123482452Y-66257544D01*
X123482455Y-66257547D01*
X123597664Y-66343793D01*
X123597671Y-66343797D01*
X123732517Y-66394091D01*
X123732516Y-66394091D01*
X123739444Y-66394835D01*
X123792127Y-66400500D01*
X125687872Y-66400499D01*
X125747483Y-66394091D01*
X125882331Y-66343796D01*
X125997546Y-66257546D01*
X126083796Y-66142331D01*
X126134091Y-66007483D01*
X126140500Y-65947873D01*
X126140500Y-65724500D01*
X126160185Y-65657461D01*
X126212989Y-65611706D01*
X126264500Y-65600500D01*
X128258164Y-65600500D01*
X128325203Y-65620185D01*
X128368648Y-65668204D01*
X128402185Y-65734023D01*
X128531752Y-65912358D01*
X128531756Y-65912363D01*
X128687636Y-66068243D01*
X128687641Y-66068247D01*
X128808618Y-66156141D01*
X128865978Y-66197815D01*
X128994375Y-66263237D01*
X129062393Y-66297895D01*
X129062396Y-66297896D01*
X129129525Y-66319707D01*
X129272049Y-66366015D01*
X129489778Y-66400500D01*
X129489779Y-66400500D01*
X129710221Y-66400500D01*
X129710222Y-66400500D01*
X129927951Y-66366015D01*
X130137606Y-66297895D01*
X130334022Y-66197815D01*
X130512365Y-66068242D01*
X130562924Y-66017682D01*
X130624245Y-65984198D01*
X130693936Y-65989182D01*
X130749870Y-66031053D01*
X130766786Y-66062030D01*
X130796646Y-66142087D01*
X130796649Y-66142093D01*
X130882809Y-66257187D01*
X130882812Y-66257190D01*
X130997906Y-66343350D01*
X130997913Y-66343354D01*
X131132620Y-66393596D01*
X131132627Y-66393598D01*
X131192155Y-66399999D01*
X131192172Y-66400000D01*
X131890000Y-66400000D01*
X131890000Y-65375277D01*
X131966306Y-65419333D01*
X132080756Y-65450000D01*
X132199244Y-65450000D01*
X132313694Y-65419333D01*
X132390000Y-65375277D01*
X132390000Y-66400000D01*
X133087828Y-66400000D01*
X133087844Y-66399999D01*
X133147372Y-66393598D01*
X133147379Y-66393596D01*
X133282086Y-66343354D01*
X133282093Y-66343350D01*
X133397187Y-66257190D01*
X133397190Y-66257187D01*
X133483350Y-66142093D01*
X133483354Y-66142086D01*
X133533596Y-66007379D01*
X133533598Y-66007372D01*
X133539999Y-65947844D01*
X133540000Y-65947827D01*
X133540000Y-65250000D01*
X132515278Y-65250000D01*
X132559333Y-65173694D01*
X132590000Y-65059244D01*
X132590000Y-64940756D01*
X132576340Y-64889778D01*
X135599500Y-64889778D01*
X135599500Y-65110221D01*
X135633985Y-65327952D01*
X135702103Y-65537603D01*
X135702104Y-65537606D01*
X135768649Y-65668204D01*
X135797683Y-65725187D01*
X135802187Y-65734025D01*
X135931752Y-65912358D01*
X135931756Y-65912363D01*
X136087636Y-66068243D01*
X136087641Y-66068247D01*
X136208618Y-66156141D01*
X136265978Y-66197815D01*
X136394375Y-66263237D01*
X136462393Y-66297895D01*
X136462396Y-66297896D01*
X136529525Y-66319707D01*
X136672049Y-66366015D01*
X136889778Y-66400500D01*
X136889779Y-66400500D01*
X137110221Y-66400500D01*
X137110222Y-66400500D01*
X137327951Y-66366015D01*
X137537606Y-66297895D01*
X137734022Y-66197815D01*
X137912365Y-66068242D01*
X137962536Y-66018070D01*
X138023857Y-65984586D01*
X138093548Y-65989570D01*
X138149482Y-66031441D01*
X138166398Y-66062419D01*
X138196202Y-66142328D01*
X138196206Y-66142335D01*
X138282452Y-66257544D01*
X138282455Y-66257547D01*
X138397664Y-66343793D01*
X138397671Y-66343797D01*
X138532517Y-66394091D01*
X138532516Y-66394091D01*
X138539444Y-66394835D01*
X138592127Y-66400500D01*
X140487872Y-66400499D01*
X140547483Y-66394091D01*
X140682331Y-66343796D01*
X140797546Y-66257546D01*
X140883796Y-66142331D01*
X140934091Y-66007483D01*
X140940500Y-65947873D01*
X140940500Y-65724500D01*
X140960185Y-65657461D01*
X141012989Y-65611706D01*
X141064500Y-65600500D01*
X142858164Y-65600500D01*
X142925203Y-65620185D01*
X142968648Y-65668204D01*
X143002185Y-65734023D01*
X143131752Y-65912358D01*
X143131756Y-65912363D01*
X143287636Y-66068243D01*
X143287641Y-66068247D01*
X143408618Y-66156141D01*
X143465978Y-66197815D01*
X143594375Y-66263237D01*
X143662393Y-66297895D01*
X143662396Y-66297896D01*
X143729525Y-66319707D01*
X143872049Y-66366015D01*
X144089778Y-66400500D01*
X144089779Y-66400500D01*
X144310221Y-66400500D01*
X144310222Y-66400500D01*
X144527951Y-66366015D01*
X144737606Y-66297895D01*
X144934022Y-66197815D01*
X145112365Y-66068242D01*
X145162536Y-66018070D01*
X145223857Y-65984586D01*
X145293548Y-65989570D01*
X145349482Y-66031441D01*
X145366398Y-66062419D01*
X145396202Y-66142328D01*
X145396206Y-66142335D01*
X145482452Y-66257544D01*
X145482455Y-66257547D01*
X145597664Y-66343793D01*
X145597671Y-66343797D01*
X145732517Y-66394091D01*
X145732516Y-66394091D01*
X145739444Y-66394835D01*
X145792127Y-66400500D01*
X147687872Y-66400499D01*
X147747483Y-66394091D01*
X147882331Y-66343796D01*
X147997546Y-66257546D01*
X148083796Y-66142331D01*
X148134091Y-66007483D01*
X148140500Y-65947873D01*
X148140500Y-65724500D01*
X148160185Y-65657461D01*
X148212989Y-65611706D01*
X148264500Y-65600500D01*
X151658164Y-65600500D01*
X151725203Y-65620185D01*
X151768648Y-65668204D01*
X151802185Y-65734023D01*
X151931752Y-65912358D01*
X151931756Y-65912363D01*
X152087636Y-66068243D01*
X152087641Y-66068247D01*
X152208618Y-66156141D01*
X152265978Y-66197815D01*
X152394375Y-66263237D01*
X152462393Y-66297895D01*
X152462396Y-66297896D01*
X152529525Y-66319707D01*
X152672049Y-66366015D01*
X152889778Y-66400500D01*
X152889779Y-66400500D01*
X153110221Y-66400500D01*
X153110222Y-66400500D01*
X153327951Y-66366015D01*
X153537606Y-66297895D01*
X153734022Y-66197815D01*
X153912365Y-66068242D01*
X153962924Y-66017682D01*
X154024245Y-65984198D01*
X154093936Y-65989182D01*
X154149870Y-66031053D01*
X154166786Y-66062030D01*
X154196646Y-66142087D01*
X154196649Y-66142093D01*
X154282809Y-66257187D01*
X154282812Y-66257190D01*
X154397906Y-66343350D01*
X154397913Y-66343354D01*
X154532620Y-66393596D01*
X154532627Y-66393598D01*
X154592155Y-66399999D01*
X154592172Y-66400000D01*
X155290000Y-66400000D01*
X155290000Y-65375277D01*
X155366306Y-65419333D01*
X155480756Y-65450000D01*
X155599244Y-65450000D01*
X155713694Y-65419333D01*
X155790000Y-65375277D01*
X155790000Y-66400000D01*
X156487828Y-66400000D01*
X156487844Y-66399999D01*
X156547372Y-66393598D01*
X156547379Y-66393596D01*
X156682086Y-66343354D01*
X156682093Y-66343350D01*
X156797187Y-66257190D01*
X156797190Y-66257187D01*
X156883350Y-66142093D01*
X156883354Y-66142086D01*
X156933596Y-66007379D01*
X156933598Y-66007372D01*
X156939999Y-65947844D01*
X156940000Y-65947827D01*
X156940000Y-65250000D01*
X155915278Y-65250000D01*
X155959333Y-65173694D01*
X155990000Y-65059244D01*
X155990000Y-64940756D01*
X155959333Y-64826306D01*
X155915278Y-64750000D01*
X156940000Y-64750000D01*
X156940000Y-64052172D01*
X156939999Y-64052155D01*
X156933598Y-63992627D01*
X156933596Y-63992620D01*
X156883354Y-63857913D01*
X156883350Y-63857906D01*
X156797190Y-63742812D01*
X156797187Y-63742809D01*
X156682093Y-63656649D01*
X156682086Y-63656645D01*
X156547379Y-63606403D01*
X156547372Y-63606401D01*
X156487844Y-63600000D01*
X155790000Y-63600000D01*
X155790000Y-64624722D01*
X155713694Y-64580667D01*
X155599244Y-64550000D01*
X155480756Y-64550000D01*
X155366306Y-64580667D01*
X155290000Y-64624722D01*
X155290000Y-63600000D01*
X154592155Y-63600000D01*
X154532627Y-63606401D01*
X154532620Y-63606403D01*
X154397913Y-63656645D01*
X154397906Y-63656649D01*
X154282812Y-63742809D01*
X154282809Y-63742812D01*
X154196649Y-63857906D01*
X154196643Y-63857918D01*
X154166785Y-63937969D01*
X154124914Y-63993903D01*
X154059449Y-64018319D01*
X153991176Y-64003467D01*
X153962923Y-63982316D01*
X153912363Y-63931756D01*
X153912358Y-63931752D01*
X153734025Y-63802187D01*
X153734024Y-63802186D01*
X153734022Y-63802185D01*
X153629381Y-63748867D01*
X153537606Y-63702104D01*
X153537603Y-63702103D01*
X153327952Y-63633985D01*
X153219086Y-63616742D01*
X153110222Y-63599500D01*
X152889778Y-63599500D01*
X152817201Y-63610995D01*
X152672047Y-63633985D01*
X152462396Y-63702103D01*
X152462393Y-63702104D01*
X152265974Y-63802187D01*
X152087641Y-63931752D01*
X152087636Y-63931756D01*
X151931756Y-64087636D01*
X151931752Y-64087641D01*
X151802185Y-64265976D01*
X151768648Y-64331796D01*
X151720674Y-64382591D01*
X151658164Y-64399500D01*
X148264499Y-64399500D01*
X148197460Y-64379815D01*
X148151705Y-64327011D01*
X148140499Y-64275500D01*
X148140499Y-64052129D01*
X148140498Y-64052123D01*
X148136864Y-64018319D01*
X148134091Y-63992517D01*
X148130286Y-63982316D01*
X148083797Y-63857671D01*
X148083793Y-63857664D01*
X147997547Y-63742455D01*
X147997544Y-63742452D01*
X147882335Y-63656206D01*
X147882328Y-63656202D01*
X147747482Y-63605908D01*
X147747483Y-63605908D01*
X147687883Y-63599501D01*
X147687881Y-63599500D01*
X147687873Y-63599500D01*
X147687864Y-63599500D01*
X145792129Y-63599500D01*
X145792123Y-63599501D01*
X145732516Y-63605908D01*
X145597671Y-63656202D01*
X145597664Y-63656206D01*
X145482455Y-63742452D01*
X145482452Y-63742455D01*
X145396206Y-63857664D01*
X145396203Y-63857669D01*
X145366398Y-63937581D01*
X145324526Y-63993514D01*
X145259062Y-64017931D01*
X145190789Y-64003079D01*
X145162535Y-63981928D01*
X145112363Y-63931756D01*
X145112358Y-63931752D01*
X144934025Y-63802187D01*
X144934024Y-63802186D01*
X144934022Y-63802185D01*
X144829381Y-63748867D01*
X144737606Y-63702104D01*
X144737603Y-63702103D01*
X144527952Y-63633985D01*
X144419086Y-63616742D01*
X144310222Y-63599500D01*
X144089778Y-63599500D01*
X144017201Y-63610995D01*
X143872047Y-63633985D01*
X143662396Y-63702103D01*
X143662393Y-63702104D01*
X143465974Y-63802187D01*
X143287641Y-63931752D01*
X143287636Y-63931756D01*
X143131756Y-64087636D01*
X143131752Y-64087641D01*
X143002185Y-64265976D01*
X142968648Y-64331796D01*
X142920674Y-64382591D01*
X142858164Y-64399500D01*
X141064499Y-64399500D01*
X140997460Y-64379815D01*
X140951705Y-64327011D01*
X140940499Y-64275500D01*
X140940499Y-64052129D01*
X140940498Y-64052123D01*
X140936864Y-64018319D01*
X140934091Y-63992517D01*
X140930286Y-63982316D01*
X140883797Y-63857671D01*
X140883793Y-63857664D01*
X140797547Y-63742455D01*
X140797544Y-63742452D01*
X140682335Y-63656206D01*
X140682328Y-63656202D01*
X140547482Y-63605908D01*
X140547483Y-63605908D01*
X140487883Y-63599501D01*
X140487881Y-63599500D01*
X140487873Y-63599500D01*
X140487864Y-63599500D01*
X138592129Y-63599500D01*
X138592123Y-63599501D01*
X138532516Y-63605908D01*
X138397671Y-63656202D01*
X138397664Y-63656206D01*
X138282455Y-63742452D01*
X138282452Y-63742455D01*
X138196206Y-63857664D01*
X138196203Y-63857669D01*
X138166398Y-63937581D01*
X138124526Y-63993514D01*
X138059062Y-64017931D01*
X137990789Y-64003079D01*
X137962535Y-63981928D01*
X137912363Y-63931756D01*
X137912358Y-63931752D01*
X137734025Y-63802187D01*
X137734024Y-63802186D01*
X137734022Y-63802185D01*
X137629381Y-63748867D01*
X137537606Y-63702104D01*
X137537603Y-63702103D01*
X137327952Y-63633985D01*
X137219086Y-63616742D01*
X137110222Y-63599500D01*
X136889778Y-63599500D01*
X136817201Y-63610995D01*
X136672047Y-63633985D01*
X136462396Y-63702103D01*
X136462393Y-63702104D01*
X136265974Y-63802187D01*
X136087641Y-63931752D01*
X136087636Y-63931756D01*
X135931756Y-64087636D01*
X135931752Y-64087641D01*
X135802187Y-64265974D01*
X135702104Y-64462393D01*
X135702103Y-64462396D01*
X135633985Y-64672047D01*
X135599500Y-64889778D01*
X132576340Y-64889778D01*
X132559333Y-64826306D01*
X132515278Y-64750000D01*
X133540000Y-64750000D01*
X133540000Y-64052172D01*
X133539999Y-64052155D01*
X133533598Y-63992627D01*
X133533596Y-63992620D01*
X133483354Y-63857913D01*
X133483350Y-63857906D01*
X133397190Y-63742812D01*
X133397187Y-63742809D01*
X133282093Y-63656649D01*
X133282086Y-63656645D01*
X133147379Y-63606403D01*
X133147372Y-63606401D01*
X133087844Y-63600000D01*
X132390000Y-63600000D01*
X132390000Y-64624722D01*
X132313694Y-64580667D01*
X132199244Y-64550000D01*
X132080756Y-64550000D01*
X131966306Y-64580667D01*
X131890000Y-64624722D01*
X131890000Y-63600000D01*
X131192155Y-63600000D01*
X131132627Y-63606401D01*
X131132620Y-63606403D01*
X130997913Y-63656645D01*
X130997906Y-63656649D01*
X130882812Y-63742809D01*
X130882809Y-63742812D01*
X130796649Y-63857906D01*
X130796643Y-63857918D01*
X130766785Y-63937969D01*
X130724914Y-63993903D01*
X130659449Y-64018319D01*
X130591176Y-64003467D01*
X130562923Y-63982316D01*
X130512363Y-63931756D01*
X130512358Y-63931752D01*
X130334025Y-63802187D01*
X130334024Y-63802186D01*
X130334022Y-63802185D01*
X130229381Y-63748867D01*
X130137606Y-63702104D01*
X130137603Y-63702103D01*
X129927952Y-63633985D01*
X129819086Y-63616742D01*
X129710222Y-63599500D01*
X129489778Y-63599500D01*
X129417201Y-63610995D01*
X129272047Y-63633985D01*
X129062396Y-63702103D01*
X129062393Y-63702104D01*
X128865974Y-63802187D01*
X128687641Y-63931752D01*
X128687636Y-63931756D01*
X128531756Y-64087636D01*
X128531752Y-64087641D01*
X128402185Y-64265976D01*
X128368648Y-64331796D01*
X128320674Y-64382591D01*
X128258164Y-64399500D01*
X126264499Y-64399500D01*
X126197460Y-64379815D01*
X126151705Y-64327011D01*
X126140499Y-64275500D01*
X126140499Y-64052129D01*
X126140498Y-64052123D01*
X126136864Y-64018319D01*
X126134091Y-63992517D01*
X126130286Y-63982316D01*
X126083797Y-63857671D01*
X126083793Y-63857664D01*
X125997547Y-63742455D01*
X125997544Y-63742452D01*
X125882335Y-63656206D01*
X125882328Y-63656202D01*
X125747482Y-63605908D01*
X125747483Y-63605908D01*
X125687883Y-63599501D01*
X125687881Y-63599500D01*
X125687873Y-63599500D01*
X125687864Y-63599500D01*
X123792129Y-63599500D01*
X123792123Y-63599501D01*
X123732516Y-63605908D01*
X123597671Y-63656202D01*
X123597664Y-63656206D01*
X123482455Y-63742452D01*
X123482452Y-63742455D01*
X123396206Y-63857664D01*
X123396203Y-63857669D01*
X123366398Y-63937581D01*
X123324526Y-63993514D01*
X123259062Y-64017931D01*
X123190789Y-64003079D01*
X123162535Y-63981928D01*
X123112363Y-63931756D01*
X123112358Y-63931752D01*
X122934025Y-63802187D01*
X122934024Y-63802186D01*
X122934022Y-63802185D01*
X122829381Y-63748867D01*
X122737606Y-63702104D01*
X122737603Y-63702103D01*
X122527952Y-63633985D01*
X122419086Y-63616742D01*
X122310222Y-63599500D01*
X122089778Y-63599500D01*
X122017201Y-63610995D01*
X121872047Y-63633985D01*
X121662396Y-63702103D01*
X121662393Y-63702104D01*
X121465974Y-63802187D01*
X121287641Y-63931752D01*
X121287636Y-63931756D01*
X121131756Y-64087636D01*
X121131752Y-64087641D01*
X121002187Y-64265974D01*
X120902104Y-64462393D01*
X120902103Y-64462396D01*
X120833985Y-64672047D01*
X120799500Y-64889778D01*
X120799500Y-65110221D01*
X120833985Y-65327952D01*
X120856811Y-65398203D01*
X120858806Y-65468044D01*
X120826561Y-65524202D01*
X119271286Y-67079478D01*
X119159481Y-67191282D01*
X119159479Y-67191285D01*
X119109361Y-67278094D01*
X119109359Y-67278096D01*
X119080425Y-67328209D01*
X119080424Y-67328210D01*
X119079210Y-67332741D01*
X119039499Y-67480943D01*
X119039499Y-67480945D01*
X119039499Y-67649046D01*
X119039500Y-67649059D01*
X119039500Y-70275500D01*
X119019815Y-70342539D01*
X118967011Y-70388294D01*
X118915501Y-70399500D01*
X118692130Y-70399500D01*
X118692123Y-70399501D01*
X118632516Y-70405908D01*
X118497671Y-70456202D01*
X118497664Y-70456206D01*
X118382455Y-70542452D01*
X118382452Y-70542455D01*
X118296206Y-70657664D01*
X118296203Y-70657669D01*
X118266398Y-70737581D01*
X118224526Y-70793514D01*
X118159062Y-70817931D01*
X118090789Y-70803079D01*
X118062535Y-70781928D01*
X118012363Y-70731756D01*
X118012358Y-70731752D01*
X117834025Y-70602187D01*
X117834024Y-70602186D01*
X117834022Y-70602185D01*
X117716791Y-70542452D01*
X117637606Y-70502104D01*
X117637603Y-70502103D01*
X117427952Y-70433985D01*
X117319086Y-70416742D01*
X117210222Y-70399500D01*
X116989778Y-70399500D01*
X116917201Y-70410995D01*
X116772047Y-70433985D01*
X116562396Y-70502103D01*
X116562393Y-70502104D01*
X116365974Y-70602187D01*
X116187641Y-70731752D01*
X116187636Y-70731756D01*
X116031756Y-70887636D01*
X116031752Y-70887641D01*
X115902187Y-71065974D01*
X115802104Y-71262393D01*
X115802103Y-71262396D01*
X115733985Y-71472047D01*
X115719743Y-71561966D01*
X115699500Y-71689778D01*
X109800500Y-71689778D01*
X109800500Y-71639990D01*
X109789999Y-71537202D01*
X109734814Y-71370665D01*
X109642712Y-71221344D01*
X109518656Y-71097288D01*
X109369335Y-71005186D01*
X109202798Y-70950001D01*
X109202796Y-70950000D01*
X109100017Y-70939500D01*
X109100010Y-70939500D01*
X107299990Y-70939500D01*
X107299982Y-70939500D01*
X107197203Y-70950000D01*
X107197202Y-70950001D01*
X107114669Y-70977349D01*
X107030667Y-71005185D01*
X107030662Y-71005187D01*
X106881342Y-71097289D01*
X106757289Y-71221342D01*
X106665187Y-71370662D01*
X106665185Y-71370667D01*
X106646515Y-71427011D01*
X106610001Y-71537202D01*
X106610001Y-71537203D01*
X106610000Y-71537203D01*
X106599500Y-71639982D01*
X106599500Y-71815500D01*
X106579815Y-71882539D01*
X106527011Y-71928294D01*
X106475500Y-71939500D01*
X105670098Y-71939500D01*
X105603059Y-71919815D01*
X105582417Y-71903181D01*
X104694077Y-71014842D01*
X104660592Y-70953519D01*
X104663828Y-70888841D01*
X104664218Y-70887641D01*
X104668477Y-70874534D01*
X104700500Y-70672352D01*
X104700500Y-70467648D01*
X104668477Y-70265466D01*
X104666563Y-70259576D01*
X104605218Y-70070776D01*
X104571503Y-70004607D01*
X104512287Y-69888390D01*
X104504556Y-69877749D01*
X104391971Y-69722786D01*
X104247213Y-69578028D01*
X104081613Y-69457715D01*
X104081612Y-69457714D01*
X104081610Y-69457713D01*
X104024653Y-69428691D01*
X103899223Y-69364781D01*
X103704534Y-69301522D01*
X103529995Y-69273878D01*
X103502352Y-69269500D01*
X103297648Y-69269500D01*
X103273329Y-69273351D01*
X103095465Y-69301522D01*
X102900776Y-69364781D01*
X102718386Y-69457715D01*
X102552786Y-69578028D01*
X102408028Y-69722786D01*
X102287715Y-69888385D01*
X102280883Y-69901795D01*
X102232909Y-69952591D01*
X102170398Y-69969500D01*
X101010097Y-69969500D01*
X100943058Y-69949815D01*
X100922416Y-69933181D01*
X98436818Y-67447583D01*
X98403333Y-67386260D01*
X98400499Y-67359902D01*
X98400499Y-66560098D01*
X98420184Y-66493059D01*
X98436818Y-66472417D01*
X99849991Y-65059244D01*
X101380520Y-63528716D01*
X101459577Y-63391784D01*
X101500501Y-63239057D01*
X101500501Y-63080942D01*
X101500501Y-63073347D01*
X101500500Y-63073329D01*
X101500500Y-61929060D01*
X101500501Y-61929047D01*
X101500501Y-61760944D01*
X101493178Y-61733614D01*
X101459577Y-61608216D01*
X101459573Y-61608209D01*
X101380524Y-61471290D01*
X101380518Y-61471282D01*
X99888736Y-59979500D01*
X98394076Y-58484841D01*
X98360592Y-58423519D01*
X98363828Y-58358841D01*
X98368477Y-58344534D01*
X98400500Y-58142352D01*
X98400500Y-57949097D01*
X98420185Y-57882058D01*
X98472989Y-57836303D01*
X98542147Y-57826359D01*
X98605703Y-57855384D01*
X98612179Y-57861414D01*
X101201284Y-60450520D01*
X101201286Y-60450521D01*
X101201290Y-60450524D01*
X101308379Y-60512351D01*
X101338216Y-60529577D01*
X101490943Y-60570501D01*
X101490945Y-60570501D01*
X101656654Y-60570501D01*
X101656670Y-60570500D01*
X102170398Y-60570500D01*
X102237437Y-60590185D01*
X102280883Y-60638205D01*
X102287715Y-60651614D01*
X102408028Y-60817213D01*
X102408034Y-60817219D01*
X102552781Y-60961966D01*
X102718390Y-61082287D01*
X102731793Y-61089116D01*
X102782589Y-61137088D01*
X102799500Y-61199601D01*
X102799500Y-61720397D01*
X102779815Y-61787436D01*
X102731800Y-61830879D01*
X102718389Y-61837712D01*
X102552786Y-61958028D01*
X102408028Y-62102786D01*
X102287715Y-62268386D01*
X102194781Y-62450776D01*
X102131522Y-62645465D01*
X102114208Y-62754785D01*
X102099500Y-62847648D01*
X102099500Y-63052352D01*
X102102825Y-63073347D01*
X102131522Y-63254534D01*
X102194781Y-63449223D01*
X102235286Y-63528717D01*
X102274869Y-63606403D01*
X102287715Y-63631613D01*
X102408028Y-63797213D01*
X102552786Y-63941971D01*
X102704400Y-64052123D01*
X102718390Y-64062287D01*
X102834607Y-64121503D01*
X102900776Y-64155218D01*
X102900778Y-64155218D01*
X102900781Y-64155220D01*
X102994629Y-64185713D01*
X103095465Y-64218477D01*
X103196557Y-64234488D01*
X103297648Y-64250500D01*
X103297649Y-64250500D01*
X103502351Y-64250500D01*
X103502352Y-64250500D01*
X103704534Y-64218477D01*
X103899219Y-64155220D01*
X104081610Y-64062287D01*
X104194181Y-63980500D01*
X104247213Y-63941971D01*
X104247215Y-63941968D01*
X104247219Y-63941966D01*
X104391966Y-63797219D01*
X104391968Y-63797215D01*
X104391971Y-63797213D01*
X104512284Y-63631614D01*
X104512285Y-63631613D01*
X104512287Y-63631610D01*
X104519117Y-63618204D01*
X104567091Y-63567409D01*
X104629602Y-63550500D01*
X107055689Y-63550500D01*
X107122728Y-63570185D01*
X107143370Y-63586819D01*
X107157345Y-63600794D01*
X107157350Y-63600798D01*
X107296787Y-63702104D01*
X107361155Y-63748870D01*
X107465792Y-63802185D01*
X107585616Y-63863239D01*
X107585618Y-63863239D01*
X107585621Y-63863241D01*
X107825215Y-63941090D01*
X108074038Y-63980500D01*
X108074039Y-63980500D01*
X108325961Y-63980500D01*
X108325962Y-63980500D01*
X108574785Y-63941090D01*
X108814379Y-63863241D01*
X109038845Y-63748870D01*
X109242656Y-63600793D01*
X109420793Y-63422656D01*
X109568870Y-63218845D01*
X109683241Y-62994379D01*
X109761090Y-62754785D01*
X109800500Y-62505962D01*
X109800500Y-62254038D01*
X109761090Y-62005215D01*
X109683241Y-61765621D01*
X109683239Y-61765618D01*
X109683239Y-61765616D01*
X109612938Y-61627644D01*
X109568870Y-61541155D01*
X109518106Y-61471284D01*
X109420798Y-61337350D01*
X109420794Y-61337345D01*
X109242654Y-61159205D01*
X109242649Y-61159201D01*
X109038848Y-61011132D01*
X109038847Y-61011131D01*
X109038845Y-61011130D01*
X108933027Y-60957213D01*
X108814383Y-60896760D01*
X108574785Y-60818910D01*
X108325962Y-60779500D01*
X108074038Y-60779500D01*
X107997554Y-60791614D01*
X107825214Y-60818910D01*
X107585616Y-60896760D01*
X107361151Y-61011132D01*
X107157350Y-61159201D01*
X107157345Y-61159205D01*
X106979205Y-61337345D01*
X106979201Y-61337350D01*
X106831132Y-61541151D01*
X106716760Y-61765616D01*
X106638910Y-62005214D01*
X106600948Y-62244898D01*
X106571019Y-62308033D01*
X106511707Y-62344964D01*
X106478475Y-62349500D01*
X104629602Y-62349500D01*
X104562563Y-62329815D01*
X104519117Y-62281795D01*
X104512284Y-62268385D01*
X104391971Y-62102786D01*
X104247213Y-61958028D01*
X104081610Y-61837712D01*
X104068200Y-61830879D01*
X104017406Y-61782903D01*
X104000500Y-61720397D01*
X104000500Y-61199601D01*
X104020185Y-61132562D01*
X104068206Y-61089116D01*
X104081610Y-61082287D01*
X104247219Y-60961966D01*
X104391966Y-60817219D01*
X104391968Y-60817215D01*
X104391971Y-60817213D01*
X104466655Y-60714417D01*
X104512287Y-60651610D01*
X104605220Y-60469219D01*
X104668477Y-60274534D01*
X104700500Y-60072352D01*
X104700500Y-59867648D01*
X104690651Y-59805465D01*
X104668477Y-59665465D01*
X104635113Y-59562781D01*
X104605220Y-59470781D01*
X104605218Y-59470778D01*
X104605218Y-59470776D01*
X104556305Y-59374780D01*
X104512287Y-59288390D01*
X104482572Y-59247490D01*
X104391971Y-59122786D01*
X104247213Y-58978028D01*
X104081613Y-58857715D01*
X104081612Y-58857714D01*
X104081610Y-58857713D01*
X103986987Y-58809500D01*
X103899223Y-58764781D01*
X103704534Y-58701522D01*
X103529995Y-58673878D01*
X103502352Y-58669500D01*
X103297648Y-58669500D01*
X103273329Y-58673351D01*
X103095465Y-58701522D01*
X102900776Y-58764781D01*
X102718386Y-58857715D01*
X102552786Y-58978028D01*
X102408028Y-59122786D01*
X102287715Y-59288385D01*
X102280883Y-59301795D01*
X102232909Y-59352591D01*
X102170398Y-59369500D01*
X101870098Y-59369500D01*
X101803059Y-59349815D01*
X101782417Y-59333181D01*
X100098124Y-57648888D01*
X98394076Y-55944841D01*
X98360592Y-55883519D01*
X98363828Y-55818841D01*
X98368477Y-55804534D01*
X98400500Y-55602352D01*
X98400500Y-55397648D01*
X98375388Y-55239097D01*
X98368477Y-55195465D01*
X98313241Y-55025468D01*
X98305220Y-55000781D01*
X98305218Y-55000778D01*
X98305218Y-55000776D01*
X98271503Y-54934607D01*
X98212287Y-54818390D01*
X98166933Y-54755965D01*
X98091971Y-54652786D01*
X97947213Y-54508028D01*
X97781614Y-54387715D01*
X97774884Y-54384286D01*
X97688917Y-54340483D01*
X97638123Y-54292511D01*
X97621328Y-54224690D01*
X97643865Y-54158555D01*
X97688917Y-54119516D01*
X97781610Y-54072287D01*
X97809596Y-54051954D01*
X97947213Y-53951971D01*
X97947215Y-53951968D01*
X97947219Y-53951966D01*
X98091966Y-53807219D01*
X98091968Y-53807215D01*
X98091971Y-53807213D01*
X98212284Y-53641614D01*
X98212285Y-53641613D01*
X98212287Y-53641610D01*
X98219117Y-53628204D01*
X98267091Y-53577409D01*
X98329602Y-53560500D01*
X102710939Y-53560500D01*
X102710943Y-53560501D01*
X102869057Y-53560501D01*
X102875548Y-53558761D01*
X102890319Y-53558613D01*
X102903041Y-53562210D01*
X102929883Y-53564675D01*
X103027285Y-53596323D01*
X103095465Y-53618477D01*
X103156885Y-53628205D01*
X103297648Y-53650500D01*
X103297649Y-53650500D01*
X103502351Y-53650500D01*
X103502352Y-53650500D01*
X103704534Y-53618477D01*
X103899219Y-53555220D01*
X104081610Y-53462287D01*
X104181093Y-53390009D01*
X104247213Y-53341971D01*
X104247215Y-53341968D01*
X104247219Y-53341966D01*
X104391966Y-53197219D01*
X104391968Y-53197215D01*
X104391971Y-53197213D01*
X104466573Y-53094530D01*
X104512287Y-53031610D01*
X104605220Y-52849219D01*
X104668477Y-52654534D01*
X104700500Y-52452352D01*
X104700500Y-52247648D01*
X104668477Y-52045466D01*
X104605220Y-51850781D01*
X104605218Y-51850778D01*
X104605218Y-51850776D01*
X104556305Y-51754780D01*
X104512287Y-51668390D01*
X104493681Y-51642781D01*
X104391971Y-51502786D01*
X104247213Y-51358028D01*
X104081613Y-51237715D01*
X104081612Y-51237714D01*
X104081610Y-51237713D01*
X104024653Y-51208691D01*
X103899223Y-51144781D01*
X103704534Y-51081522D01*
X103529995Y-51053878D01*
X103502352Y-51049500D01*
X103297648Y-51049500D01*
X103273329Y-51053351D01*
X103095465Y-51081522D01*
X102900776Y-51144781D01*
X102718386Y-51237715D01*
X102552786Y-51358028D01*
X102408028Y-51502786D01*
X102287715Y-51668386D01*
X102194781Y-51850776D01*
X102131522Y-52045465D01*
X102098738Y-52252460D01*
X102097038Y-52252190D01*
X102074803Y-52310522D01*
X102018570Y-52351990D01*
X101976073Y-52359500D01*
X98329602Y-52359500D01*
X98262563Y-52339815D01*
X98219117Y-52291795D01*
X98212287Y-52278390D01*
X98212285Y-52278387D01*
X98212284Y-52278385D01*
X98091971Y-52112786D01*
X97947213Y-51968028D01*
X97781613Y-51847715D01*
X97781612Y-51847714D01*
X97781610Y-51847713D01*
X97722675Y-51817684D01*
X97599223Y-51754781D01*
X97404534Y-51691522D01*
X97229995Y-51663878D01*
X97202352Y-51659500D01*
X96997648Y-51659500D01*
X96973329Y-51663351D01*
X96795465Y-51691522D01*
X96600776Y-51754781D01*
X96418386Y-51847715D01*
X96252786Y-51968028D01*
X96108028Y-52112786D01*
X95987715Y-52278386D01*
X95894781Y-52460776D01*
X95831522Y-52655465D01*
X95799500Y-52857648D01*
X95799500Y-53062351D01*
X95831522Y-53264534D01*
X95894781Y-53459223D01*
X95948513Y-53564676D01*
X95967675Y-53602284D01*
X95987715Y-53641613D01*
X96108028Y-53807213D01*
X96252786Y-53951971D01*
X96407749Y-54064556D01*
X96418390Y-54072287D01*
X96508495Y-54118198D01*
X96511080Y-54119515D01*
X96561876Y-54167490D01*
X96578671Y-54235311D01*
X96556134Y-54301446D01*
X96511080Y-54340485D01*
X96418386Y-54387715D01*
X96252786Y-54508028D01*
X96108028Y-54652786D01*
X95987715Y-54818386D01*
X95894781Y-55000776D01*
X95831522Y-55195465D01*
X95799500Y-55397648D01*
X95799500Y-55590903D01*
X95779815Y-55657942D01*
X95727011Y-55703697D01*
X95657853Y-55713641D01*
X95594297Y-55684616D01*
X95587819Y-55678584D01*
X95047590Y-55138355D01*
X95047588Y-55138352D01*
X94928717Y-55019481D01*
X94928709Y-55019475D01*
X94827918Y-54961284D01*
X94827916Y-54961283D01*
X94791790Y-54940425D01*
X94791789Y-54940424D01*
X94779263Y-54937067D01*
X94639057Y-54899499D01*
X94480943Y-54899499D01*
X94473347Y-54899499D01*
X94473331Y-54899500D01*
X90709602Y-54899500D01*
X90642563Y-54879815D01*
X90599117Y-54831795D01*
X90592287Y-54818390D01*
X90592285Y-54818387D01*
X90592284Y-54818385D01*
X90471971Y-54652786D01*
X90327217Y-54508032D01*
X90327212Y-54508028D01*
X90233051Y-54439616D01*
X90190385Y-54384286D01*
X90184406Y-54314673D01*
X90217012Y-54252878D01*
X90266933Y-54221592D01*
X90349117Y-54194359D01*
X90349124Y-54194356D01*
X90498345Y-54102315D01*
X90622315Y-53978345D01*
X90714356Y-53829124D01*
X90714358Y-53829119D01*
X90769505Y-53662697D01*
X90769506Y-53662690D01*
X90779999Y-53559986D01*
X90780000Y-53559973D01*
X90780000Y-53210000D01*
X89795686Y-53210000D01*
X89800080Y-53205606D01*
X89852741Y-53114394D01*
X89880000Y-53012661D01*
X89880000Y-52907339D01*
X89852741Y-52805606D01*
X89800080Y-52714394D01*
X89795686Y-52710000D01*
X90779999Y-52710000D01*
X90779999Y-52360028D01*
X90779998Y-52360013D01*
X90769505Y-52257302D01*
X90714358Y-52090880D01*
X90714356Y-52090875D01*
X90622315Y-51941654D01*
X90498345Y-51817684D01*
X90349124Y-51725643D01*
X90349119Y-51725641D01*
X90182697Y-51670494D01*
X90182690Y-51670493D01*
X90079986Y-51660000D01*
X89730000Y-51660000D01*
X89730000Y-52644314D01*
X89725606Y-52639920D01*
X89634394Y-52587259D01*
X89532661Y-52560000D01*
X89427339Y-52560000D01*
X89325606Y-52587259D01*
X89234394Y-52639920D01*
X89230000Y-52644314D01*
X89230000Y-51660000D01*
X88880028Y-51660000D01*
X88880012Y-51660001D01*
X88777302Y-51670494D01*
X88610880Y-51725641D01*
X88610875Y-51725643D01*
X88461654Y-51817684D01*
X88337684Y-51941654D01*
X88245643Y-52090875D01*
X88245641Y-52090880D01*
X88190494Y-52257302D01*
X88190493Y-52257309D01*
X88180000Y-52360013D01*
X88180000Y-52710000D01*
X89164314Y-52710000D01*
X89159920Y-52714394D01*
X89107259Y-52805606D01*
X89080000Y-52907339D01*
X89080000Y-53012661D01*
X89107259Y-53114394D01*
X89159920Y-53205606D01*
X89164314Y-53210000D01*
X88180001Y-53210000D01*
X88180001Y-53559986D01*
X88190494Y-53662697D01*
X88245641Y-53829119D01*
X88245643Y-53829124D01*
X88337684Y-53978345D01*
X88461654Y-54102315D01*
X88610875Y-54194356D01*
X88610882Y-54194359D01*
X88693067Y-54221592D01*
X88750512Y-54261364D01*
X88777336Y-54325880D01*
X88765021Y-54394656D01*
X88726949Y-54439616D01*
X88632787Y-54508028D01*
X88632782Y-54508032D01*
X88488028Y-54652786D01*
X88367715Y-54818386D01*
X88274781Y-55000776D01*
X88211522Y-55195465D01*
X88179500Y-55397648D01*
X88179500Y-55602351D01*
X88211522Y-55804534D01*
X88274781Y-55999223D01*
X88367715Y-56181613D01*
X88488028Y-56347213D01*
X88632786Y-56491971D01*
X88787749Y-56604556D01*
X88798390Y-56612287D01*
X88889840Y-56658883D01*
X88891080Y-56659515D01*
X88941876Y-56707490D01*
X88958671Y-56775311D01*
X88936134Y-56841446D01*
X88891080Y-56880485D01*
X88798386Y-56927715D01*
X88632786Y-57048028D01*
X88488028Y-57192786D01*
X88367715Y-57358386D01*
X88274781Y-57540776D01*
X88211522Y-57735465D01*
X88179500Y-57937648D01*
X88179500Y-58142351D01*
X88211522Y-58344534D01*
X88216173Y-58358848D01*
X88218165Y-58428690D01*
X88185921Y-58484842D01*
X87197584Y-59473181D01*
X87136261Y-59506666D01*
X87109903Y-59509500D01*
X85229602Y-59509500D01*
X85162563Y-59489815D01*
X85119117Y-59441795D01*
X85112284Y-59428385D01*
X84991971Y-59262786D01*
X84847213Y-59118028D01*
X84681613Y-58997715D01*
X84681612Y-58997714D01*
X84681610Y-58997713D01*
X84624653Y-58968691D01*
X84499223Y-58904781D01*
X84304534Y-58841522D01*
X84129995Y-58813878D01*
X84102352Y-58809500D01*
X83897648Y-58809500D01*
X83873329Y-58813351D01*
X83695465Y-58841522D01*
X83500776Y-58904781D01*
X83318386Y-58997715D01*
X83152786Y-59118028D01*
X83008028Y-59262786D01*
X82887715Y-59428386D01*
X82794781Y-59610776D01*
X82731522Y-59805465D01*
X82699500Y-60007648D01*
X82699500Y-60212351D01*
X82731522Y-60414534D01*
X82794781Y-60609223D01*
X82887715Y-60791613D01*
X83008028Y-60957213D01*
X83152786Y-61101971D01*
X83262892Y-61181966D01*
X83318390Y-61222287D01*
X83395566Y-61261610D01*
X83500776Y-61315218D01*
X83500778Y-61315218D01*
X83500781Y-61315220D01*
X83605137Y-61349127D01*
X83695465Y-61378477D01*
X83796557Y-61394488D01*
X83897648Y-61410500D01*
X83897649Y-61410500D01*
X84102351Y-61410500D01*
X84102352Y-61410500D01*
X84304534Y-61378477D01*
X84499219Y-61315220D01*
X84681610Y-61222287D01*
X84774590Y-61154732D01*
X84847213Y-61101971D01*
X84847215Y-61101968D01*
X84847219Y-61101966D01*
X84991966Y-60957219D01*
X84991968Y-60957215D01*
X84991971Y-60957213D01*
X85112284Y-60791614D01*
X85112285Y-60791613D01*
X85112287Y-60791610D01*
X85119117Y-60778204D01*
X85167091Y-60727409D01*
X85229602Y-60710500D01*
X87323331Y-60710500D01*
X87323347Y-60710501D01*
X87330943Y-60710501D01*
X87489054Y-60710501D01*
X87489057Y-60710501D01*
X87641785Y-60669577D01*
X87733635Y-60616547D01*
X87778716Y-60590520D01*
X87890520Y-60478716D01*
X87890520Y-60478714D01*
X87900720Y-60468515D01*
X87900724Y-60468510D01*
X87967821Y-60401412D01*
X88029143Y-60367930D01*
X88098834Y-60372915D01*
X88154768Y-60414786D01*
X88179184Y-60480251D01*
X88179500Y-60489096D01*
X88179500Y-60682351D01*
X88211522Y-60884534D01*
X88274781Y-61079223D01*
X88315533Y-61159201D01*
X88347675Y-61222284D01*
X88367715Y-61261613D01*
X88488028Y-61427213D01*
X88618107Y-61557292D01*
X88622444Y-61565236D01*
X88629692Y-61570661D01*
X88638927Y-61595422D01*
X88651592Y-61618615D01*
X88650946Y-61627644D01*
X88654110Y-61636126D01*
X88648493Y-61661948D01*
X88646608Y-61688307D01*
X88640790Y-61697359D01*
X88639259Y-61704399D01*
X88618108Y-61732653D01*
X88487584Y-61863180D01*
X88426261Y-61896666D01*
X88399902Y-61899500D01*
X83300098Y-61899500D01*
X83233059Y-61879815D01*
X83212417Y-61863181D01*
X82336819Y-60987583D01*
X82303334Y-60926260D01*
X82300500Y-60899902D01*
X82300500Y-55164059D01*
X82300501Y-55164046D01*
X82300501Y-54995945D01*
X82300501Y-54995943D01*
X82259577Y-54843215D01*
X82209203Y-54755965D01*
X82180520Y-54706284D01*
X82068716Y-54594480D01*
X82068715Y-54594479D01*
X82064385Y-54590149D01*
X82064374Y-54590139D01*
X80709077Y-53234842D01*
X80675592Y-53173519D01*
X80678828Y-53108841D01*
X80683477Y-53094534D01*
X80715500Y-52892352D01*
X80715500Y-52687648D01*
X80683477Y-52485466D01*
X80683476Y-52485462D01*
X80683476Y-52485461D01*
X80662562Y-52421094D01*
X80651694Y-52387648D01*
X82699500Y-52387648D01*
X82699500Y-52592351D01*
X82731522Y-52794534D01*
X82794781Y-52989223D01*
X82887715Y-53171613D01*
X83008028Y-53337213D01*
X83152786Y-53481971D01*
X83263228Y-53562210D01*
X83318390Y-53602287D01*
X83430345Y-53659331D01*
X83500776Y-53695218D01*
X83500778Y-53695218D01*
X83500781Y-53695220D01*
X83605137Y-53729127D01*
X83695465Y-53758477D01*
X83796557Y-53774488D01*
X83897648Y-53790500D01*
X83897649Y-53790500D01*
X84102351Y-53790500D01*
X84102352Y-53790500D01*
X84304534Y-53758477D01*
X84499219Y-53695220D01*
X84681610Y-53602287D01*
X84774590Y-53534732D01*
X84847213Y-53481971D01*
X84847215Y-53481968D01*
X84847219Y-53481966D01*
X84991966Y-53337219D01*
X84991968Y-53337215D01*
X84991971Y-53337213D01*
X85044774Y-53264534D01*
X85112287Y-53171610D01*
X85205220Y-52989219D01*
X85268477Y-52794534D01*
X85300500Y-52592352D01*
X85300500Y-52387648D01*
X85268477Y-52185466D01*
X85205220Y-51990781D01*
X85205218Y-51990778D01*
X85205218Y-51990776D01*
X85133886Y-51850781D01*
X85112287Y-51808390D01*
X85085372Y-51771344D01*
X84991971Y-51642786D01*
X84847213Y-51498028D01*
X84681610Y-51377712D01*
X84668200Y-51370879D01*
X84617406Y-51322903D01*
X84600500Y-51260397D01*
X84600500Y-49800096D01*
X84620185Y-49733057D01*
X84636815Y-49712419D01*
X85312416Y-49036817D01*
X85373739Y-49003333D01*
X85400097Y-49000499D01*
X86400002Y-49000499D01*
X86400008Y-49000499D01*
X86502797Y-48989999D01*
X86669334Y-48934814D01*
X86818656Y-48842712D01*
X86942712Y-48718656D01*
X87034814Y-48569334D01*
X87089999Y-48402797D01*
X87100500Y-48300009D01*
X87100499Y-47099992D01*
X87089999Y-46997203D01*
X87034814Y-46830666D01*
X86942712Y-46681344D01*
X86818656Y-46557288D01*
X86669334Y-46465186D01*
X86607558Y-46444715D01*
X86550115Y-46404943D01*
X86523292Y-46340427D01*
X86522946Y-46317280D01*
X86525921Y-46279473D01*
X85846447Y-45600000D01*
X85852661Y-45600000D01*
X85954394Y-45572741D01*
X86045606Y-45520080D01*
X86120080Y-45445606D01*
X86172741Y-45354394D01*
X86200000Y-45252661D01*
X86200000Y-45246447D01*
X86879474Y-45925921D01*
X86911859Y-45881349D01*
X87004755Y-45699031D01*
X87067990Y-45504417D01*
X87100000Y-45302317D01*
X87100000Y-45097682D01*
X87067990Y-44895582D01*
X87004755Y-44700968D01*
X86911859Y-44518650D01*
X86879474Y-44474077D01*
X86879474Y-44474076D01*
X86200000Y-45153551D01*
X86200000Y-45147339D01*
X86172741Y-45045606D01*
X86120080Y-44954394D01*
X86045606Y-44879920D01*
X85954394Y-44827259D01*
X85852661Y-44800000D01*
X85846446Y-44800000D01*
X86525922Y-44120524D01*
X86525921Y-44120523D01*
X86481359Y-44088147D01*
X86481350Y-44088141D01*
X86299031Y-43995244D01*
X86104417Y-43932009D01*
X85902317Y-43900000D01*
X85697683Y-43900000D01*
X85495582Y-43932009D01*
X85300968Y-43995244D01*
X85118644Y-44088143D01*
X85074077Y-44120523D01*
X85074077Y-44120524D01*
X85753554Y-44800000D01*
X85747339Y-44800000D01*
X85645606Y-44827259D01*
X85554394Y-44879920D01*
X85479920Y-44954394D01*
X85427259Y-45045606D01*
X85400000Y-45147339D01*
X85400000Y-45153553D01*
X84720524Y-44474077D01*
X84720523Y-44474077D01*
X84688143Y-44518644D01*
X84595244Y-44700968D01*
X84532009Y-44895582D01*
X84500000Y-45097682D01*
X84500000Y-45302317D01*
X84532009Y-45504417D01*
X84595244Y-45699031D01*
X84688141Y-45881350D01*
X84688147Y-45881359D01*
X84720523Y-45925921D01*
X84720524Y-45925922D01*
X85400000Y-45246446D01*
X85400000Y-45252661D01*
X85427259Y-45354394D01*
X85479920Y-45445606D01*
X85554394Y-45520080D01*
X85645606Y-45572741D01*
X85747339Y-45600000D01*
X85753553Y-45600000D01*
X85074076Y-46279474D01*
X85077052Y-46317282D01*
X85062687Y-46385659D01*
X85013636Y-46435415D01*
X84992440Y-46444715D01*
X84930672Y-46465184D01*
X84930663Y-46465187D01*
X84781342Y-46557289D01*
X84657289Y-46681342D01*
X84565187Y-46830663D01*
X84565186Y-46830666D01*
X84510001Y-46997203D01*
X84510001Y-46997204D01*
X84510000Y-46997204D01*
X84499500Y-47099983D01*
X84499500Y-48099902D01*
X84479815Y-48166941D01*
X84463181Y-48187583D01*
X83519481Y-49131282D01*
X83519479Y-49131285D01*
X83469361Y-49218094D01*
X83469359Y-49218096D01*
X83440425Y-49268209D01*
X83440424Y-49268210D01*
X83424544Y-49327472D01*
X83399499Y-49420943D01*
X83399499Y-49420945D01*
X83399499Y-49589046D01*
X83399500Y-49589059D01*
X83399500Y-51260397D01*
X83379815Y-51327436D01*
X83331800Y-51370879D01*
X83318389Y-51377712D01*
X83152786Y-51498028D01*
X83008028Y-51642786D01*
X82887715Y-51808386D01*
X82794781Y-51990776D01*
X82731522Y-52185465D01*
X82699500Y-52387648D01*
X80651694Y-52387648D01*
X80620218Y-52290776D01*
X80568865Y-52189991D01*
X80527287Y-52108390D01*
X80511892Y-52087200D01*
X80406971Y-51942786D01*
X80262213Y-51798028D01*
X80096613Y-51677715D01*
X80096612Y-51677714D01*
X80096610Y-51677713D01*
X80028052Y-51642781D01*
X79914223Y-51584781D01*
X79719534Y-51521522D01*
X79544995Y-51493878D01*
X79517352Y-51489500D01*
X79312648Y-51489500D01*
X79274599Y-51495526D01*
X79110468Y-51521522D01*
X79101717Y-51524365D01*
X79096154Y-51526173D01*
X79026313Y-51528167D01*
X78970157Y-51495922D01*
X72936819Y-45462584D01*
X72903334Y-45401261D01*
X72900500Y-45374903D01*
X72900500Y-42170096D01*
X72920185Y-42103057D01*
X72951614Y-42069778D01*
X72955403Y-42067024D01*
X72955405Y-42067024D01*
X73114646Y-41951328D01*
X73212319Y-41853655D01*
X73273642Y-41820170D01*
X73343334Y-41825154D01*
X73387681Y-41853655D01*
X73485354Y-41951328D01*
X73644595Y-42067024D01*
X73714704Y-42102746D01*
X73819970Y-42156382D01*
X73819972Y-42156382D01*
X73819975Y-42156384D01*
X73920317Y-42188987D01*
X74007173Y-42217209D01*
X74201578Y-42248000D01*
X74201583Y-42248000D01*
X74398422Y-42248000D01*
X74592826Y-42217209D01*
X74672574Y-42191297D01*
X74780025Y-42156384D01*
X74955405Y-42067024D01*
X74955409Y-42067020D01*
X74959087Y-42065147D01*
X75027756Y-42052251D01*
X75092497Y-42078527D01*
X75115699Y-42102745D01*
X75179207Y-42190156D01*
X75179209Y-42190158D01*
X75357345Y-42368294D01*
X75357350Y-42368298D01*
X75535117Y-42497452D01*
X75561155Y-42516370D01*
X75704184Y-42589247D01*
X75785616Y-42630739D01*
X75785618Y-42630739D01*
X75785621Y-42630741D01*
X76025215Y-42708590D01*
X76274038Y-42748000D01*
X76274039Y-42748000D01*
X76525961Y-42748000D01*
X76525962Y-42748000D01*
X76774785Y-42708590D01*
X77014379Y-42630741D01*
X77238845Y-42516370D01*
X77442656Y-42368293D01*
X77620793Y-42190156D01*
X77768870Y-41986345D01*
X77883241Y-41761879D01*
X77961090Y-41522285D01*
X78000500Y-41273462D01*
X78000500Y-39721538D01*
X77961090Y-39472715D01*
X77883241Y-39233121D01*
X77883239Y-39233118D01*
X77883239Y-39233116D01*
X77836479Y-39141345D01*
X77768870Y-39008655D01*
X77746426Y-38977763D01*
X77620798Y-38804850D01*
X77620794Y-38804845D01*
X77442654Y-38626705D01*
X77442649Y-38626701D01*
X77371449Y-38574971D01*
X77238957Y-38478711D01*
X156249500Y-38478711D01*
X156249500Y-38721288D01*
X156281161Y-38961785D01*
X156343947Y-39196104D01*
X156364782Y-39246403D01*
X156436776Y-39420212D01*
X156558064Y-39630289D01*
X156558066Y-39630292D01*
X156558067Y-39630293D01*
X156705733Y-39822736D01*
X156705739Y-39822743D01*
X156877256Y-39994260D01*
X156877263Y-39994266D01*
X156990321Y-40081018D01*
X157069711Y-40141936D01*
X157279788Y-40263224D01*
X157503900Y-40356054D01*
X157738211Y-40418838D01*
X157918586Y-40442584D01*
X157978711Y-40450500D01*
X157978712Y-40450500D01*
X158221289Y-40450500D01*
X158269388Y-40444167D01*
X158461789Y-40418838D01*
X158696100Y-40356054D01*
X158920212Y-40263224D01*
X159130289Y-40141936D01*
X159322738Y-39994265D01*
X159494265Y-39822738D01*
X159641936Y-39630289D01*
X159763224Y-39420212D01*
X159856054Y-39196100D01*
X159918838Y-38961789D01*
X159950500Y-38721288D01*
X159950500Y-38478712D01*
X159950489Y-38478632D01*
X159935107Y-38361789D01*
X159918838Y-38238211D01*
X159856054Y-38003900D01*
X159763224Y-37779788D01*
X159641936Y-37569711D01*
X159494265Y-37377262D01*
X159494260Y-37377256D01*
X159322743Y-37205739D01*
X159322736Y-37205733D01*
X159130293Y-37058067D01*
X159130292Y-37058066D01*
X159130289Y-37058064D01*
X158920212Y-36936776D01*
X158920205Y-36936773D01*
X158696104Y-36843947D01*
X158461785Y-36781161D01*
X158221289Y-36749500D01*
X158221288Y-36749500D01*
X157978712Y-36749500D01*
X157978711Y-36749500D01*
X157738214Y-36781161D01*
X157503895Y-36843947D01*
X157279794Y-36936773D01*
X157279785Y-36936777D01*
X157069706Y-37058067D01*
X156877263Y-37205733D01*
X156877256Y-37205739D01*
X156705739Y-37377256D01*
X156705733Y-37377263D01*
X156558067Y-37569706D01*
X156436777Y-37779785D01*
X156436773Y-37779794D01*
X156343947Y-38003895D01*
X156281161Y-38238214D01*
X156249500Y-38478711D01*
X77238957Y-38478711D01*
X77238848Y-38478632D01*
X77238847Y-38478631D01*
X77238845Y-38478630D01*
X77168747Y-38442913D01*
X77014383Y-38364260D01*
X76774785Y-38286410D01*
X76525962Y-38247000D01*
X76274038Y-38247000D01*
X76149626Y-38266705D01*
X76025214Y-38286410D01*
X75785616Y-38364260D01*
X75561151Y-38478632D01*
X75357350Y-38626701D01*
X75357345Y-38626705D01*
X75179209Y-38804841D01*
X75179202Y-38804850D01*
X75115699Y-38892253D01*
X75060369Y-38934919D01*
X74990756Y-38940897D01*
X74959087Y-38929852D01*
X74780029Y-38838617D01*
X74592826Y-38777790D01*
X74398422Y-38747000D01*
X74398417Y-38747000D01*
X74201583Y-38747000D01*
X74201578Y-38747000D01*
X74007173Y-38777790D01*
X73819970Y-38838617D01*
X73644594Y-38927976D01*
X73576069Y-38977763D01*
X73485354Y-39043672D01*
X73485352Y-39043674D01*
X73485351Y-39043674D01*
X73387681Y-39141345D01*
X73326358Y-39174830D01*
X73256666Y-39169846D01*
X73212319Y-39141345D01*
X73114648Y-39043674D01*
X73114646Y-39043672D01*
X72955405Y-38927976D01*
X72955403Y-38927975D01*
X72780029Y-38838617D01*
X72592826Y-38777790D01*
X72398422Y-38747000D01*
X72398417Y-38747000D01*
X72201583Y-38747000D01*
X72201578Y-38747000D01*
X72007173Y-38777790D01*
X71819970Y-38838617D01*
X71644595Y-38927975D01*
X71608385Y-38954284D01*
X71542578Y-38977763D01*
X71474524Y-38961937D01*
X71436235Y-38928278D01*
X71407546Y-38889954D01*
X71407544Y-38889952D01*
X71407543Y-38889951D01*
X71292335Y-38803706D01*
X71292328Y-38803702D01*
X71157482Y-38753408D01*
X71157483Y-38753408D01*
X71097883Y-38747001D01*
X71097881Y-38747000D01*
X71097873Y-38747000D01*
X71097864Y-38747000D01*
X69502129Y-38747000D01*
X69502123Y-38747001D01*
X69435443Y-38754169D01*
X69366683Y-38741762D01*
X69334509Y-38718560D01*
X69242654Y-38626705D01*
X69242649Y-38626701D01*
X69038848Y-38478632D01*
X69038847Y-38478631D01*
X69038845Y-38478630D01*
X68968747Y-38442913D01*
X68814383Y-38364260D01*
X68574785Y-38286410D01*
X68325962Y-38247000D01*
X68074038Y-38247000D01*
X67949626Y-38266705D01*
X67825214Y-38286410D01*
X67585616Y-38364260D01*
X67361151Y-38478632D01*
X67157350Y-38626701D01*
X67157345Y-38626705D01*
X66979205Y-38804845D01*
X66979201Y-38804850D01*
X66831132Y-39008651D01*
X66716760Y-39233116D01*
X66638910Y-39472714D01*
X66599500Y-39721538D01*
X66599500Y-41273461D01*
X66638910Y-41522285D01*
X66716760Y-41761883D01*
X66748999Y-41825154D01*
X66813286Y-41951325D01*
X66831132Y-41986348D01*
X66979201Y-42190149D01*
X66979205Y-42190154D01*
X67157345Y-42368294D01*
X67157350Y-42368298D01*
X67335117Y-42497452D01*
X67361155Y-42516370D01*
X67509816Y-42592116D01*
X67585622Y-42630742D01*
X67591837Y-42632761D01*
X67594109Y-42634314D01*
X67596855Y-42634511D01*
X67622786Y-42653922D01*
X67649513Y-42672197D01*
X67650584Y-42674731D01*
X67652789Y-42676382D01*
X67664108Y-42706730D01*
X67676713Y-42736554D01*
X67676243Y-42739266D01*
X67677206Y-42741847D01*
X67670321Y-42773493D01*
X67664801Y-42805401D01*
X67662760Y-42808252D01*
X67662354Y-42810120D01*
X67641203Y-42838374D01*
X67466398Y-43013180D01*
X67405075Y-43046665D01*
X67378717Y-43049499D01*
X62345365Y-43049499D01*
X62278326Y-43029814D01*
X62232571Y-42977010D01*
X62222627Y-42907852D01*
X62230804Y-42878046D01*
X62259714Y-42808252D01*
X62335639Y-42624952D01*
X62411993Y-42339993D01*
X62450500Y-42047506D01*
X62450500Y-41752494D01*
X62411993Y-41460007D01*
X62335639Y-41175048D01*
X62222743Y-40902493D01*
X62075238Y-40647006D01*
X61895646Y-40412958D01*
X61895641Y-40412952D01*
X61687047Y-40204358D01*
X61687040Y-40204352D01*
X61452993Y-40024761D01*
X61197510Y-39877258D01*
X61197500Y-39877254D01*
X60924961Y-39764364D01*
X60924954Y-39764362D01*
X60924952Y-39764361D01*
X60639993Y-39688007D01*
X60591113Y-39681571D01*
X60347513Y-39649500D01*
X60347506Y-39649500D01*
X60052494Y-39649500D01*
X60052486Y-39649500D01*
X59774085Y-39686153D01*
X59760007Y-39688007D01*
X59634867Y-39721538D01*
X59475048Y-39764361D01*
X59475038Y-39764364D01*
X59202499Y-39877254D01*
X59202489Y-39877258D01*
X58947006Y-40024761D01*
X58712959Y-40204352D01*
X58712952Y-40204358D01*
X58504358Y-40412952D01*
X58504352Y-40412959D01*
X58324761Y-40647006D01*
X58177258Y-40902489D01*
X58177254Y-40902499D01*
X58064364Y-41175038D01*
X58064361Y-41175048D01*
X57988008Y-41460004D01*
X57988006Y-41460015D01*
X57949500Y-41752486D01*
X51900000Y-41752486D01*
X51900000Y-37878711D01*
X52349500Y-37878711D01*
X52349500Y-38121288D01*
X52381161Y-38361785D01*
X52443947Y-38596104D01*
X52536773Y-38820205D01*
X52536777Y-38820214D01*
X52547402Y-38838617D01*
X52658064Y-39030289D01*
X52658066Y-39030292D01*
X52658067Y-39030293D01*
X52805733Y-39222736D01*
X52805739Y-39222743D01*
X52977256Y-39394260D01*
X52977262Y-39394265D01*
X53169711Y-39541936D01*
X53379788Y-39663224D01*
X53603900Y-39756054D01*
X53838211Y-39818838D01*
X54018586Y-39842584D01*
X54078711Y-39850500D01*
X54078712Y-39850500D01*
X54321289Y-39850500D01*
X54369388Y-39844167D01*
X54561789Y-39818838D01*
X54796100Y-39756054D01*
X55020212Y-39663224D01*
X55230289Y-39541936D01*
X55422738Y-39394265D01*
X55594265Y-39222738D01*
X55741936Y-39030289D01*
X55863224Y-38820212D01*
X55956054Y-38596100D01*
X56018838Y-38361789D01*
X56050500Y-38121288D01*
X56050500Y-37878712D01*
X56018838Y-37638211D01*
X55956054Y-37403900D01*
X55863224Y-37179788D01*
X55741936Y-36969711D01*
X55594265Y-36777262D01*
X55594260Y-36777256D01*
X55422743Y-36605739D01*
X55422736Y-36605733D01*
X55230293Y-36458067D01*
X55230292Y-36458066D01*
X55230289Y-36458064D01*
X55020212Y-36336776D01*
X55020205Y-36336773D01*
X54796104Y-36243947D01*
X54561785Y-36181161D01*
X54321289Y-36149500D01*
X54321288Y-36149500D01*
X54078712Y-36149500D01*
X54078711Y-36149500D01*
X53838214Y-36181161D01*
X53603895Y-36243947D01*
X53379794Y-36336773D01*
X53379785Y-36336777D01*
X53169706Y-36458067D01*
X52977263Y-36605733D01*
X52977256Y-36605739D01*
X52805739Y-36777256D01*
X52805733Y-36777263D01*
X52658067Y-36969706D01*
X52536777Y-37179785D01*
X52536773Y-37179794D01*
X52443947Y-37403895D01*
X52381161Y-37638214D01*
X52349500Y-37878711D01*
X51900000Y-37878711D01*
X51900000Y-34124500D01*
X51919685Y-34057461D01*
X51972489Y-34011706D01*
X52024000Y-34000500D01*
X162076000Y-34000500D01*
X162143039Y-34020185D01*
G37*
%TD.AperFunction*%
%TD*%
M02*
