%TF.GenerationSoftware,KiCad,Pcbnew,9.0.3*%
%TF.CreationDate,2025-08-22T13:58:03+03:00*%
%TF.ProjectId,chestie,63686573-7469-4652-9e6b-696361645f70,rev?*%
%TF.SameCoordinates,Original*%
%TF.FileFunction,Copper,L2,Bot*%
%TF.FilePolarity,Positive*%
%FSLAX46Y46*%
G04 Gerber Fmt 4.6, Leading zero omitted, Abs format (unit mm)*
G04 Created by KiCad (PCBNEW 9.0.3) date 2025-08-22 13:58:03*
%MOMM*%
%LPD*%
G01*
G04 APERTURE LIST*
G04 Aperture macros list*
%AMRoundRect*
0 Rectangle with rounded corners*
0 $1 Rounding radius*
0 $2 $3 $4 $5 $6 $7 $8 $9 X,Y pos of 4 corners*
0 Add a 4 corners polygon primitive as box body*
4,1,4,$2,$3,$4,$5,$6,$7,$8,$9,$2,$3,0*
0 Add four circle primitives for the rounded corners*
1,1,$1+$1,$2,$3*
1,1,$1+$1,$4,$5*
1,1,$1+$1,$6,$7*
1,1,$1+$1,$8,$9*
0 Add four rect primitives between the rounded corners*
20,1,$1+$1,$2,$3,$4,$5,0*
20,1,$1+$1,$4,$5,$6,$7,0*
20,1,$1+$1,$6,$7,$8,$9,0*
20,1,$1+$1,$8,$9,$2,$3,0*%
G04 Aperture macros list end*
%TA.AperFunction,ComponentPad*%
%ADD10RoundRect,0.250000X0.550000X0.550000X-0.550000X0.550000X-0.550000X-0.550000X0.550000X-0.550000X0*%
%TD*%
%TA.AperFunction,ComponentPad*%
%ADD11C,1.600000*%
%TD*%
%TA.AperFunction,ComponentPad*%
%ADD12R,1.800000X1.800000*%
%TD*%
%TA.AperFunction,ComponentPad*%
%ADD13C,1.800000*%
%TD*%
%TA.AperFunction,ComponentPad*%
%ADD14O,2.200000X3.500000*%
%TD*%
%TA.AperFunction,ComponentPad*%
%ADD15R,1.500000X2.500000*%
%TD*%
%TA.AperFunction,ComponentPad*%
%ADD16O,1.500000X2.500000*%
%TD*%
%TA.AperFunction,ComponentPad*%
%ADD17RoundRect,0.250000X-0.550000X-0.550000X0.550000X-0.550000X0.550000X0.550000X-0.550000X0.550000X0*%
%TD*%
%TA.AperFunction,ComponentPad*%
%ADD18RoundRect,0.249999X0.850001X-0.850001X0.850001X0.850001X-0.850001X0.850001X-0.850001X-0.850001X0*%
%TD*%
%TA.AperFunction,ComponentPad*%
%ADD19C,2.200000*%
%TD*%
%TA.AperFunction,ComponentPad*%
%ADD20R,1.050000X1.500000*%
%TD*%
%TA.AperFunction,ComponentPad*%
%ADD21O,1.050000X1.500000*%
%TD*%
%TA.AperFunction,ComponentPad*%
%ADD22RoundRect,0.250002X1.499998X-1.499998X1.499998X1.499998X-1.499998X1.499998X-1.499998X-1.499998X0*%
%TD*%
%TA.AperFunction,ComponentPad*%
%ADD23C,3.500000*%
%TD*%
%TA.AperFunction,ComponentPad*%
%ADD24RoundRect,0.250000X0.550000X-0.550000X0.550000X0.550000X-0.550000X0.550000X-0.550000X-0.550000X0*%
%TD*%
%TA.AperFunction,ViaPad*%
%ADD25C,0.600000*%
%TD*%
%TA.AperFunction,Conductor*%
%ADD26C,0.200000*%
%TD*%
G04 APERTURE END LIST*
D10*
%TO.P,C1,1*%
%TO.N,Net-(D1-K)*%
X97100000Y-66960000D03*
D11*
%TO.P,C1,2*%
%TO.N,GND*%
X94600000Y-66960000D03*
%TD*%
D12*
%TO.P,D5,1,K*%
%TO.N,Net-(D5-K)*%
X119640000Y-71800000D03*
D13*
%TO.P,D5,2,A*%
%TO.N,Net-(D5-A)*%
X117100000Y-71800000D03*
%TD*%
D14*
%TO.P,SW1,*%
%TO.N,*%
X68200000Y-40497500D03*
X76400000Y-40497500D03*
D15*
%TO.P,SW1,1,A*%
%TO.N,Net-(J1-Pin_2)*%
X70300000Y-40497500D03*
D16*
%TO.P,SW1,2,B*%
%TO.N,Net-(Q1-C)*%
X72300000Y-40497500D03*
%TO.P,SW1,3*%
%TO.N,N/C*%
X74300000Y-40497500D03*
%TD*%
D12*
%TO.P,D15,1,K*%
%TO.N,Net-(D15-K)*%
X114140000Y-94700000D03*
D13*
%TO.P,D15,2,A*%
%TO.N,Net-(D14-K)*%
X111600000Y-94700000D03*
%TD*%
D12*
%TO.P,D10,1,K*%
%TO.N,GND*%
X155540000Y-65000000D03*
D13*
%TO.P,D10,2,A*%
%TO.N,Net-(D10-A)*%
X153000000Y-65000000D03*
%TD*%
D17*
%TO.P,U1,1,GND*%
%TO.N,GND*%
X89480000Y-52960000D03*
D11*
%TO.P,U1,2,TR*%
%TO.N,Net-(D1-K)*%
X89480000Y-55500000D03*
%TO.P,U1,3,Q*%
%TO.N,Net-(U1-Q)*%
X89480000Y-58040000D03*
%TO.P,U1,4,R*%
%TO.N,Net-(Q1-C)*%
X89480000Y-60580000D03*
%TO.P,U1,5,CV*%
%TO.N,Net-(U1-CV)*%
X97100000Y-60580000D03*
%TO.P,U1,6,THR*%
%TO.N,Net-(D1-K)*%
X97100000Y-58040000D03*
%TO.P,U1,7,DIS*%
%TO.N,Net-(D1-A)*%
X97100000Y-55500000D03*
%TO.P,U1,8,VCC*%
%TO.N,Net-(Q1-C)*%
X97100000Y-52960000D03*
%TD*%
D18*
%TO.P,D1,1,K*%
%TO.N,Net-(D1-K)*%
X108200000Y-72540000D03*
D19*
%TO.P,D1,2,A*%
%TO.N,Net-(D1-A)*%
X108200000Y-62380000D03*
%TD*%
D11*
%TO.P,R6,1*%
%TO.N,Net-(Q1-E)*%
X66290000Y-95600000D03*
%TO.P,R6,2*%
%TO.N,Net-(D2-A)*%
X73910000Y-95600000D03*
%TD*%
%TO.P,R11,1*%
%TO.N,Net-(Q1-E)*%
X66390000Y-74300000D03*
%TO.P,R11,2*%
%TO.N,Net-(D17-A)*%
X74010000Y-74300000D03*
%TD*%
D12*
%TO.P,D16,1,K*%
%TO.N,GND*%
X118280000Y-87400000D03*
D13*
%TO.P,D16,2,A*%
%TO.N,Net-(D15-K)*%
X115740000Y-87400000D03*
%TD*%
D11*
%TO.P,R2,1*%
%TO.N,Net-(D1-A)*%
X103400000Y-62950000D03*
%TO.P,R2,2*%
%TO.N,Net-(D1-K)*%
X103400000Y-70570000D03*
%TD*%
%TO.P,R4,1*%
%TO.N,Net-(U2A--)*%
X66900000Y-60190000D03*
%TO.P,R4,2*%
%TO.N,Net-(Q1-B)*%
X66900000Y-67810000D03*
%TD*%
D12*
%TO.P,D3,1,K*%
%TO.N,Net-(D3-K)*%
X110140000Y-87000000D03*
D13*
%TO.P,D3,2,A*%
%TO.N,Net-(D2-K)*%
X107600000Y-87000000D03*
%TD*%
D11*
%TO.P,R3,1*%
%TO.N,Net-(U1-Q)*%
X84000000Y-60110000D03*
%TO.P,R3,2*%
%TO.N,Net-(U2A-+)*%
X84000000Y-52490000D03*
%TD*%
D12*
%TO.P,D14,1,K*%
%TO.N,Net-(D14-K)*%
X144265000Y-94700000D03*
D13*
%TO.P,D14,2,A*%
%TO.N,Net-(D14-A)*%
X141725000Y-94700000D03*
%TD*%
D20*
%TO.P,Q1,1,C*%
%TO.N,Net-(Q1-C)*%
X74230000Y-67300000D03*
D21*
%TO.P,Q1,2,B*%
%TO.N,Net-(Q1-B)*%
X75500000Y-67300000D03*
%TO.P,Q1,3,E*%
%TO.N,Net-(Q1-E)*%
X76770000Y-67300000D03*
%TD*%
D11*
%TO.P,C2,1*%
%TO.N,Net-(U1-CV)*%
X89700000Y-66860000D03*
%TO.P,C2,2*%
%TO.N,GND*%
X84700000Y-66860000D03*
%TD*%
%TO.P,R5,1*%
%TO.N,Net-(U2A--)*%
X66900000Y-49490000D03*
%TO.P,R5,2*%
%TO.N,GND*%
X66900000Y-57110000D03*
%TD*%
D12*
%TO.P,D7,1,K*%
%TO.N,GND*%
X132140000Y-65000000D03*
D13*
%TO.P,D7,2,A*%
%TO.N,Net-(D6-K)*%
X129600000Y-65000000D03*
%TD*%
D12*
%TO.P,D4,1,K*%
%TO.N,GND*%
X114240000Y-79500000D03*
D13*
%TO.P,D4,2,A*%
%TO.N,Net-(D3-K)*%
X111700000Y-79500000D03*
%TD*%
D22*
%TO.P,J1,1,Pin_1*%
%TO.N,GND*%
X60200000Y-48900000D03*
D23*
%TO.P,J1,2,Pin_2*%
%TO.N,Net-(J1-Pin_2)*%
X60200000Y-41900000D03*
%TD*%
D12*
%TO.P,D2,1,K*%
%TO.N,Net-(D2-K)*%
X106240000Y-94600000D03*
D13*
%TO.P,D2,2,A*%
%TO.N,Net-(D2-A)*%
X103700000Y-94600000D03*
%TD*%
D11*
%TO.P,R1,1*%
%TO.N,Net-(Q1-C)*%
X103400000Y-52350000D03*
%TO.P,R1,2*%
%TO.N,Net-(D1-A)*%
X103400000Y-59970000D03*
%TD*%
D12*
%TO.P,D12,1,K*%
%TO.N,Net-(D12-K)*%
X149165000Y-80000000D03*
D13*
%TO.P,D12,2,A*%
%TO.N,Net-(D11-K)*%
X146625000Y-80000000D03*
%TD*%
D12*
%TO.P,D17,1,K*%
%TO.N,Net-(D17-K)*%
X122380000Y-80000000D03*
D13*
%TO.P,D17,2,A*%
%TO.N,Net-(D17-A)*%
X119840000Y-80000000D03*
%TD*%
D12*
%TO.P,D18,1,K*%
%TO.N,Net-(D18-K)*%
X126980000Y-72100000D03*
D13*
%TO.P,D18,2,A*%
%TO.N,Net-(D17-K)*%
X124440000Y-72100000D03*
%TD*%
D11*
%TO.P,R7,1*%
%TO.N,Net-(Q1-E)*%
X66380000Y-91300000D03*
%TO.P,R7,2*%
%TO.N,Net-(D5-A)*%
X74000000Y-91300000D03*
%TD*%
D12*
%TO.P,D6,1,K*%
%TO.N,Net-(D6-K)*%
X124740000Y-65000000D03*
D13*
%TO.P,D6,2,A*%
%TO.N,Net-(D5-K)*%
X122200000Y-65000000D03*
%TD*%
D11*
%TO.P,R10,1*%
%TO.N,Net-(Q1-E)*%
X66380000Y-79000000D03*
%TO.P,R10,2*%
%TO.N,Net-(D14-A)*%
X74000000Y-79000000D03*
%TD*%
D12*
%TO.P,D13,1,K*%
%TO.N,GND*%
X146605000Y-87500000D03*
D13*
%TO.P,D13,2,A*%
%TO.N,Net-(D12-K)*%
X144065000Y-87500000D03*
%TD*%
D12*
%TO.P,D8,1,K*%
%TO.N,Net-(D8-K)*%
X139540000Y-65000000D03*
D13*
%TO.P,D8,2,A*%
%TO.N,Net-(D8-A)*%
X137000000Y-65000000D03*
%TD*%
D24*
%TO.P,C3,1*%
%TO.N,Net-(U2A-+)*%
X85800000Y-47700000D03*
D11*
%TO.P,C3,2*%
%TO.N,GND*%
X85800000Y-45200000D03*
%TD*%
D12*
%TO.P,D19,1,K*%
%TO.N,GND*%
X134480000Y-72200000D03*
D13*
%TO.P,D19,2,A*%
%TO.N,Net-(D18-K)*%
X131940000Y-72200000D03*
%TD*%
D12*
%TO.P,D11,1,K*%
%TO.N,Net-(D11-K)*%
X152265000Y-72200000D03*
D13*
%TO.P,D11,2,A*%
%TO.N,Net-(D11-A)*%
X149725000Y-72200000D03*
%TD*%
D12*
%TO.P,D9,1,K*%
%TO.N,Net-(D10-A)*%
X146740000Y-65000000D03*
D13*
%TO.P,D9,2,A*%
%TO.N,Net-(D8-K)*%
X144200000Y-65000000D03*
%TD*%
D11*
%TO.P,R9,1*%
%TO.N,Net-(Q1-E)*%
X66380000Y-83300000D03*
%TO.P,R9,2*%
%TO.N,Net-(D11-A)*%
X74000000Y-83300000D03*
%TD*%
D17*
%TO.P,U2,1*%
%TO.N,Net-(Q1-B)*%
X71795000Y-52790000D03*
D11*
%TO.P,U2,2,-*%
%TO.N,Net-(U2A--)*%
X71795000Y-55330000D03*
%TO.P,U2,3,+*%
%TO.N,Net-(U2A-+)*%
X71795000Y-57870000D03*
%TO.P,U2,4,V-*%
%TO.N,GND*%
X71795000Y-60410000D03*
%TO.P,U2,5*%
%TO.N,N/C*%
X79415000Y-60410000D03*
%TO.P,U2,6*%
X79415000Y-57870000D03*
%TO.P,U2,7*%
X79415000Y-55330000D03*
%TO.P,U2,8,V+*%
%TO.N,Net-(Q1-C)*%
X79415000Y-52790000D03*
%TD*%
%TO.P,R8,1*%
%TO.N,Net-(Q1-E)*%
X66380000Y-87300000D03*
%TO.P,R8,2*%
%TO.N,Net-(D8-A)*%
X74000000Y-87300000D03*
%TD*%
D25*
%TO.N,Net-(D17-A)*%
X109000000Y-83100000D03*
X103300000Y-79200000D03*
%TO.N,Net-(Q1-B)*%
X75500000Y-57600000D03*
%TO.N,Net-(U2A-+)*%
X74756470Y-56600000D03*
%TO.N,Net-(Q1-C)*%
X93300000Y-57200000D03*
%TD*%
D26*
%TO.N,Net-(D17-A)*%
X109000000Y-83100000D02*
X116740000Y-83100000D01*
X116740000Y-83100000D02*
X119840000Y-80000000D01*
X98400000Y-74300000D02*
X103300000Y-79200000D01*
X74010000Y-74300000D02*
X98400000Y-74300000D01*
%TO.N,Net-(D14-A)*%
X136725000Y-99700000D02*
X141725000Y-94700000D01*
X70200000Y-99600000D02*
X70300000Y-99700000D01*
X70300000Y-99700000D02*
X136725000Y-99700000D01*
X70200000Y-82800000D02*
X70200000Y-99600000D01*
X74000000Y-79000000D02*
X70200000Y-82800000D01*
%TO.N,Net-(D11-A)*%
X117801529Y-69400000D02*
X146925000Y-69400000D01*
X73543950Y-88401000D02*
X98800529Y-88401000D01*
X72899000Y-87756050D02*
X73543950Y-88401000D01*
X98800529Y-88401000D02*
X117801529Y-69400000D01*
X74000000Y-83300000D02*
X72899000Y-84401000D01*
X72899000Y-84401000D02*
X72899000Y-87756050D01*
X146925000Y-69400000D02*
X149725000Y-72200000D01*
%TO.N,Net-(D8-A)*%
X123200000Y-60800000D02*
X132800000Y-60800000D01*
X96700000Y-87300000D02*
X123200000Y-60800000D01*
X132800000Y-60800000D02*
X137000000Y-65000000D01*
X74000000Y-87300000D02*
X96700000Y-87300000D01*
%TO.N,Net-(D5-A)*%
X97600000Y-91300000D02*
X117100000Y-71800000D01*
X74000000Y-91300000D02*
X97600000Y-91300000D01*
%TO.N,Net-(D2-A)*%
X102700000Y-95600000D02*
X103700000Y-94600000D01*
X73910000Y-95600000D02*
X102700000Y-95600000D01*
%TO.N,Net-(Q1-B)*%
X75500000Y-56495000D02*
X71795000Y-52790000D01*
X75500000Y-57600000D02*
X75500000Y-56495000D01*
%TO.N,Net-(U2A-+)*%
X84000000Y-55600000D02*
X80629000Y-58971000D01*
X75850057Y-58800000D02*
X74756470Y-57706413D01*
X77300000Y-58800000D02*
X75850057Y-58800000D01*
X80629000Y-58971000D02*
X77471000Y-58971000D01*
X77471000Y-58971000D02*
X77300000Y-58800000D01*
X74756470Y-57706413D02*
X74756470Y-56600000D01*
X84000000Y-52490000D02*
X84000000Y-55600000D01*
%TO.N,Net-(Q1-C)*%
X93300000Y-56760000D02*
X97100000Y-52960000D01*
X93300000Y-57200000D02*
X93300000Y-56760000D01*
%TD*%
M02*
