M48
; DRILL file {KiCad 9.0.3} date 2025-08-22T13:58:50+0300
; FORMAT={-:-/ absolute / metric / decimal}
; #@! TF.CreationDate,2025-08-22T13:58:50+03:00
; #@! TF.GenerationSoftware,Kicad,Pcbnew,9.0.3
; #@! TF.FileFunction,Plated,1,2,PTH
FMAT,2
METRIC
; #@! TA.AperFunction,Plated,PTH,ViaDrill
T1C0.300
; #@! TA.AperFunction,Plated,PTH,ComponentDrill
T2C0.750
; #@! TA.AperFunction,Plated,PTH,ComponentDrill
T3C0.800
; #@! TA.AperFunction,Plated,PTH,ComponentDrill
T4C0.900
; #@! TA.AperFunction,Plated,PTH,ComponentDrill
T5C1.100
; #@! TA.AperFunction,Plated,PTH,ComponentDrill
T6C1.500
; #@! TA.AperFunction,Plated,PTH,ComponentDrill
T7C1.600
%
G90
G05
T1
X74.756Y-56.6
X75.5Y-57.6
X93.3Y-57.2
X103.3Y-79.2
X109.0Y-83.1
T2
X74.23Y-67.3
X75.5Y-67.3
X76.77Y-67.3
T3
X66.29Y-95.6
X66.38Y-79.0
X66.38Y-83.3
X66.38Y-87.3
X66.38Y-91.3
X66.39Y-74.3
X66.9Y-49.49
X66.9Y-57.11
X66.9Y-60.19
X66.9Y-67.81
X70.3Y-40.497
X71.795Y-52.79
X71.795Y-55.33
X71.795Y-57.87
X71.795Y-60.41
X72.3Y-40.497
X73.91Y-95.6
X74.0Y-79.0
X74.0Y-83.3
X74.0Y-87.3
X74.0Y-91.3
X74.01Y-74.3
X74.3Y-40.497
X79.415Y-52.79
X79.415Y-55.33
X79.415Y-57.87
X79.415Y-60.41
X84.0Y-52.49
X84.0Y-60.11
X84.7Y-66.86
X85.8Y-45.2
X85.8Y-47.7
X89.48Y-52.96
X89.48Y-55.5
X89.48Y-58.04
X89.48Y-60.58
X89.7Y-66.86
X94.6Y-66.96
X97.1Y-52.96
X97.1Y-55.5
X97.1Y-58.04
X97.1Y-60.58
X97.1Y-66.96
X103.4Y-52.35
X103.4Y-59.97
X103.4Y-62.95
X103.4Y-70.57
T4
X103.7Y-94.6
X106.24Y-94.6
X107.6Y-87.0
X110.14Y-87.0
X111.6Y-94.7
X111.7Y-79.5
X114.14Y-94.7
X114.24Y-79.5
X115.74Y-87.4
X117.1Y-71.8
X118.28Y-87.4
X119.64Y-71.8
X119.84Y-80.0
X122.2Y-65.0
X122.38Y-80.0
X124.44Y-72.1
X124.74Y-65.0
X126.98Y-72.1
X129.6Y-65.0
X131.94Y-72.2
X132.14Y-65.0
X134.48Y-72.2
X137.0Y-65.0
X139.54Y-65.0
X141.725Y-94.7
X144.065Y-87.5
X144.2Y-65.0
X144.265Y-94.7
X146.605Y-87.5
X146.625Y-80.0
X146.74Y-65.0
X149.165Y-80.0
X149.725Y-72.2
X152.265Y-72.2
X153.0Y-65.0
X155.54Y-65.0
T5
X108.2Y-62.38
X108.2Y-72.54
T6
X68.2Y-40.497
X76.4Y-40.497
T7
X60.2Y-41.9
X60.2Y-48.9
M30
